  0
SECTION
  2
HEADER
  9
$ACADVER
  1
AC1009
  9
$EXTMIN
 10
0.0
 20
0.0
 30
0.0
  9
$EXTMAX
 10
1000.0
 20
1000.0
 30
0.0
  9
$FILLMODE
 70
 0
  9
$SPLFRAME
 70
 1
  0
ENDSEC
  0
SECTION
  2
TABLES
  0
TABLE
  2
LAYER
 70
1
  0
LAYER
  2
0
 70
     0
 62
     7
  6
CONTINUOUS
  0
ENDTAB
  0
ENDSEC
  0
SECTION
  2
ENTITIES
  0
POLYLINE
  8
0
 62
     0
 66
     1
 10
0
 20
0
 30
0.0
 70
     1
 40
0
 41
0
  0
VERTEX
  8
0
 10
0.166667
 20
137.68
 30
0.0
 40
0
 41
0
  0
VERTEX
  8
0
 10
13.4475
 20
192.533
 30
0.0
 40
0
 41
0
  0
VERTEX
  8
0
 10
13.4722
 20
192.636
 30
0.0
 40
0
 41
0
  0
VERTEX
  8
0
 10
13.5548
 20
192.939
 30
0.0
 40
0
 41
0
  0
VERTEX
  8
0
 10
13.6787
 20
193.339
 30
0.0
 40
0
 41
0
  0
VERTEX
  8
0
 10
13.8187
 20
193.732
 30
0.0
 40
0
 41
0
  0
VERTEX
  8
0
 10
13.9747
 20
194.118
 30
0.0
 40
0
 41
0
  0
VERTEX
  8
0
 10
14.1464
 20
194.497
 30
0.0
 40
0
 41
0
  0
VERTEX
  8
0
 10
14.3333
 20
194.868
 30
0.0
 40
0
 41
0
  0
VERTEX
  8
0
 10
14.5354
 20
195.231
 30
0.0
 40
0
 41
0
  0
VERTEX
  8
0
 10
14.7522
 20
195.585
 30
0.0
 40
0
 41
0
  0
VERTEX
  8
0
 10
14.9836
 20
195.928
 30
0.0
 40
0
 41
0
  0
VERTEX
  8
0
 10
15.229
 20
196.263
 30
0.0
 40
0
 41
0
  0
VERTEX
  8
0
 10
15.4885
 20
196.587
 30
0.0
 40
0
 41
0
  0
VERTEX
  8
0
 10
15.7614
 20
196.901
 30
0.0
 40
0
 41
0
  0
VERTEX
  8
0
 10
16.0476
 20
197.203
 30
0.0
 40
0
 41
0
  0
VERTEX
  8
0
 10
16.3469
 20
197.494
 30
0.0
 40
0
 41
0
  0
VERTEX
  8
0
 10
16.6589
 20
197.774
 30
0.0
 40
0
 41
0
  0
VERTEX
  8
0
 10
16.9008
 20
197.975
 30
0.0
 40
0
 41
0
  0
VERTEX
  8
0
 10
16.9833
 20
198.04
 30
0.0
 40
0
 41
0
  0
VERTEX
  8
0
 10
17.1478
 20
198.169
 30
0.0
 40
0
 41
0
  0
VERTEX
  8
0
 10
17.6631
 20
198.529
 30
0.0
 40
0
 41
0
  0
VERTEX
  8
0
 10
18.3776
 20
198.96
 30
0.0
 40
0
 41
0
  0
VERTEX
  8
0
 10
19.1231
 20
199.326
 30
0.0
 40
0
 41
0
  0
VERTEX
  8
0
 10
19.8949
 20
199.631
 30
0.0
 40
0
 41
0
  0
VERTEX
  8
0
 10
20.6893
 20
199.869
 30
0.0
 40
0
 41
0
  0
VERTEX
  8
0
 10
21.5022
 20
200.042
 30
0.0
 40
0
 41
0
  0
VERTEX
  8
0
 10
22.3293
 20
200.146
 30
0.0
 40
0
 41
0
  0
VERTEX
  8
0
 10
22.9574
 20
200.181
 30
0.0
 40
0
 41
0
  0
VERTEX
  8
0
 10
23.1667
 20
200.181
 30
0.0
 40
0
 41
0
  0
VERTEX
  8
0
 10
78.1668
 20
200.181
 30
0.0
 40
0
 41
0
  0
VERTEX
  8
0
 10
78.324
 20
200.181
 30
0.0
 40
0
 41
0
  0
VERTEX
  8
0
 10
78.7957
 20
200.161
 30
0.0
 40
0
 41
0
  0
VERTEX
  8
0
 10
79.4176
 20
200.103
 30
0.0
 40
0
 41
0
  0
VERTEX
  8
0
 10
80.0313
 20
200.006
 30
0.0
 40
0
 41
0
  0
VERTEX
  8
0
 10
80.6349
 20
199.871
 30
0.0
 40
0
 41
0
  0
VERTEX
  8
0
 10
81.2269
 20
199.701
 30
0.0
 40
0
 41
0
  0
VERTEX
  8
0
 10
81.8058
 20
199.494
 30
0.0
 40
0
 41
0
  0
VERTEX
  8
0
 10
82.37
 20
199.254
 30
0.0
 40
0
 41
0
  0
VERTEX
  8
0
 10
82.9179
 20
198.979
 30
0.0
 40
0
 41
0
  0
VERTEX
  8
0
 10
83.4481
 20
198.672
 30
0.0
 40
0
 41
0
  0
VERTEX
  8
0
 10
83.9587
 20
198.332
 30
0.0
 40
0
 41
0
  0
VERTEX
  8
0
 10
84.4485
 20
197.961
 30
0.0
 40
0
 41
0
  0
VERTEX
  8
0
 10
84.9157
 20
197.56
 30
0.0
 40
0
 41
0
  0
VERTEX
  8
0
 10
85.3589
 20
197.129
 30
0.0
 40
0
 41
0
  0
VERTEX
  8
0
 10
85.7764
 20
196.668
 30
0.0
 40
0
 41
0
  0
VERTEX
  8
0
 10
86.1667
 20
196.181
 30
0.0
 40
0
 41
0
  0
VERTEX
  8
0
 10
86.4419
 20
195.797
 30
0.0
 40
0
 41
0
  0
VERTEX
  8
0
 10
86.5282
 20
195.665
 30
0.0
 40
0
 41
0
  0
VERTEX
  8
0
 10
99.9668
 20
175.181
 30
0.0
 40
0
 41
0
  0
VERTEX
  8
0
 10
99.9668
 20
25.1803
 30
0.0
 40
0
 41
0
  0
VERTEX
  8
0
 10
86.5282
 20
4.69504
 30
0.0
 40
0
 41
0
  0
VERTEX
  8
0
 10
86.4419
 20
4.56358
 30
0.0
 40
0
 41
0
  0
VERTEX
  8
0
 10
86.1667
 20
4.18001
 30
0.0
 40
0
 41
0
  0
VERTEX
  8
0
 10
85.7764
 20
3.69211
 30
0.0
 40
0
 41
0
  0
VERTEX
  8
0
 10
85.3589
 20
3.23215
 30
0.0
 40
0
 41
0
  0
VERTEX
  8
0
 10
84.9157
 20
2.80094
 30
0.0
 40
0
 41
0
  0
VERTEX
  8
0
 10
84.4485
 20
2.39942
 30
0.0
 40
0
 41
0
  0
VERTEX
  8
0
 10
83.9587
 20
2.02838
 30
0.0
 40
0
 41
0
  0
VERTEX
  8
0
 10
83.4481
 20
1.68864
 30
0.0
 40
0
 41
0
  0
VERTEX
  8
0
 10
82.9179
 20
1.38108
 30
0.0
 40
0
 41
0
  0
VERTEX
  8
0
 10
82.37
 20
1.1065
 30
0.0
 40
0
 41
0
  0
VERTEX
  8
0
 10
81.8058
 20
0.865831
 30
0.0
 40
0
 41
0
  0
VERTEX
  8
0
 10
81.2269
 20
0.659885
 30
0.0
 40
0
 41
0
  0
VERTEX
  8
0
 10
80.6349
 20
0.489475
 30
0.0
 40
0
 41
0
  0
VERTEX
  8
0
 10
80.0313
 20
0.355469
 30
0.0
 40
0
 41
0
  0
VERTEX
  8
0
 10
79.4176
 20
0.258681
 30
0.0
 40
0
 41
0
  0
VERTEX
  8
0
 10
78.7957
 20
0.200032
 30
0.0
 40
0
 41
0
  0
VERTEX
  8
0
 10
78.324
 20
0.180231
 30
0.0
 40
0
 41
0
  0
VERTEX
  8
0
 10
78.1668
 20
0.180231
 30
0.0
 40
0
 41
0
  0
VERTEX
  8
0
 10
23.1667
 20
0.180231
 30
0.0
 40
0
 41
0
  0
VERTEX
  8
0
 10
22.9574
 20
0.180231
 30
0.0
 40
0
 41
0
  0
VERTEX
  8
0
 10
22.3293
 20
0.215386
 30
0.0
 40
0
 41
0
  0
VERTEX
  8
0
 10
21.5022
 20
0.319715
 30
0.0
 40
0
 41
0
  0
VERTEX
  8
0
 10
20.6893
 20
0.491971
 30
0.0
 40
0
 41
0
  0
VERTEX
  8
0
 10
19.8949
 20
0.730632
 30
0.0
 40
0
 41
0
  0
VERTEX
  8
0
 10
19.1231
 20
1.03429
 30
0.0
 40
0
 41
0
  0
VERTEX
  8
0
 10
18.3776
 20
1.40153
 30
0.0
 40
0
 41
0
  0
VERTEX
  8
0
 10
17.6631
 20
1.831
 30
0.0
 40
0
 41
0
  0
VERTEX
  8
0
 10
17.1478
 20
2.19174
 30
0.0
 40
0
 41
0
  0
VERTEX
  8
0
 10
16.9833
 20
2.32113
 30
0.0
 40
0
 41
0
  0
VERTEX
  8
0
 10
16.9008
 20
2.38601
 30
0.0
 40
0
 41
0
  0
VERTEX
  8
0
 10
16.6589
 20
2.58757
 30
0.0
 40
0
 41
0
  0
VERTEX
  8
0
 10
16.3469
 20
2.86654
 30
0.0
 40
0
 41
0
  0
VERTEX
  8
0
 10
16.0476
 20
3.1575
 30
0.0
 40
0
 41
0
  0
VERTEX
  8
0
 10
15.7614
 20
3.46001
 30
0.0
 40
0
 41
0
  0
VERTEX
  8
0
 10
15.4885
 20
3.77365
 30
0.0
 40
0
 41
0
  0
VERTEX
  8
0
 10
15.229
 20
4.09799
 30
0.0
 40
0
 41
0
  0
VERTEX
  8
0
 10
14.9836
 20
4.43251
 30
0.0
 40
0
 41
0
  0
VERTEX
  8
0
 10
14.7522
 20
4.77675
 30
0.0
 40
0
 41
0
  0
VERTEX
  8
0
 10
14.5354
 20
5.13032
 30
0.0
 40
0
 41
0
  0
VERTEX
  8
0
 10
14.3333
 20
5.49274
 30
0.0
 40
0
 41
0
  0
VERTEX
  8
0
 10
14.1464
 20
5.8635
 30
0.0
 40
0
 41
0
  0
VERTEX
  8
0
 10
13.9747
 20
6.24219
 30
0.0
 40
0
 41
0
  0
VERTEX
  8
0
 10
13.8187
 20
6.62836
 30
0.0
 40
0
 41
0
  0
VERTEX
  8
0
 10
13.6787
 20
7.02154
 30
0.0
 40
0
 41
0
  0
VERTEX
  8
0
 10
13.5548
 20
7.42128
 30
0.0
 40
0
 41
0
  0
VERTEX
  8
0
 10
13.4722
 20
7.72515
 30
0.0
 40
0
 41
0
  0
VERTEX
  8
0
 10
13.4475
 20
7.8271
 30
0.0
 40
0
 41
0
  0
VERTEX
  8
0
 10
0.166667
 20
62.6803
 30
0.0
 40
0
 41
0
  0
VERTEX
  8
0
 10
0.166667
 20
137.68
 30
0.0
 40
0
 41
0
  0
SEQEND
 8
0
  0
POLYLINE
  8
0
 62
     0
 66
     1
 10
0
 20
0
 30
0.0
 70
     1
 40
24
 41
24
  0
VERTEX
  8
0
 10
0.166667
 20
137.68
 30
0.0
 40
0.333333
 41
0.333333
  0
VERTEX
  8
0
 10
13.4475
 20
192.533
 30
0.0
 40
0.333333
 41
0.333333
  0
VERTEX
  8
0
 10
13.4722
 20
192.636
 30
0.0
 40
0.333333
 41
0.333333
  0
VERTEX
  8
0
 10
13.5548
 20
192.939
 30
0.0
 40
0.333333
 41
0.333333
  0
VERTEX
  8
0
 10
13.6787
 20
193.339
 30
0.0
 40
0.333333
 41
0.333333
  0
VERTEX
  8
0
 10
13.8187
 20
193.732
 30
0.0
 40
0.333333
 41
0.333333
  0
VERTEX
  8
0
 10
13.9747
 20
194.118
 30
0.0
 40
0.333333
 41
0.333333
  0
VERTEX
  8
0
 10
14.1464
 20
194.497
 30
0.0
 40
0.333333
 41
0.333333
  0
VERTEX
  8
0
 10
14.3333
 20
194.868
 30
0.0
 40
0.333333
 41
0.333333
  0
VERTEX
  8
0
 10
14.5354
 20
195.231
 30
0.0
 40
0.333333
 41
0.333333
  0
VERTEX
  8
0
 10
14.7522
 20
195.585
 30
0.0
 40
0.333333
 41
0.333333
  0
VERTEX
  8
0
 10
14.9836
 20
195.928
 30
0.0
 40
0.333333
 41
0.333333
  0
VERTEX
  8
0
 10
15.229
 20
196.263
 30
0.0
 40
0.333333
 41
0.333333
  0
VERTEX
  8
0
 10
15.4885
 20
196.587
 30
0.0
 40
0.333333
 41
0.333333
  0
VERTEX
  8
0
 10
15.7614
 20
196.901
 30
0.0
 40
0.333333
 41
0.333333
  0
VERTEX
  8
0
 10
16.0476
 20
197.203
 30
0.0
 40
0.333333
 41
0.333333
  0
VERTEX
  8
0
 10
16.3469
 20
197.494
 30
0.0
 40
0.333333
 41
0.333333
  0
VERTEX
  8
0
 10
16.6589
 20
197.774
 30
0.0
 40
0.333333
 41
0.333333
  0
VERTEX
  8
0
 10
16.9008
 20
197.975
 30
0.0
 40
0.333333
 41
0.333333
  0
VERTEX
  8
0
 10
16.9833
 20
198.04
 30
0.0
 40
0.333333
 41
0.333333
  0
VERTEX
  8
0
 10
17.1478
 20
198.169
 30
0.0
 40
0.333333
 41
0.333333
  0
VERTEX
  8
0
 10
17.6631
 20
198.529
 30
0.0
 40
0.333333
 41
0.333333
  0
VERTEX
  8
0
 10
18.3776
 20
198.96
 30
0.0
 40
0.333333
 41
0.333333
  0
VERTEX
  8
0
 10
19.1231
 20
199.326
 30
0.0
 40
0.333333
 41
0.333333
  0
VERTEX
  8
0
 10
19.8949
 20
199.631
 30
0.0
 40
0.333333
 41
0.333333
  0
VERTEX
  8
0
 10
20.6893
 20
199.869
 30
0.0
 40
0.333333
 41
0.333333
  0
VERTEX
  8
0
 10
21.5022
 20
200.042
 30
0.0
 40
0.333333
 41
0.333333
  0
VERTEX
  8
0
 10
22.3293
 20
200.146
 30
0.0
 40
0.333333
 41
0.333333
  0
VERTEX
  8
0
 10
22.9574
 20
200.181
 30
0.0
 40
0.333333
 41
0.333333
  0
VERTEX
  8
0
 10
23.1667
 20
200.181
 30
0.0
 40
0.333333
 41
0.333333
  0
VERTEX
  8
0
 10
78.1668
 20
200.181
 30
0.0
 40
0.333333
 41
0.333333
  0
VERTEX
  8
0
 10
78.324
 20
200.181
 30
0.0
 40
0.333333
 41
0.333333
  0
VERTEX
  8
0
 10
78.7957
 20
200.161
 30
0.0
 40
0.333333
 41
0.333333
  0
VERTEX
  8
0
 10
79.4176
 20
200.103
 30
0.0
 40
0.333333
 41
0.333333
  0
VERTEX
  8
0
 10
80.0313
 20
200.006
 30
0.0
 40
0.333333
 41
0.333333
  0
VERTEX
  8
0
 10
80.6349
 20
199.871
 30
0.0
 40
0.333333
 41
0.333333
  0
VERTEX
  8
0
 10
81.2269
 20
199.701
 30
0.0
 40
0.333333
 41
0.333333
  0
VERTEX
  8
0
 10
81.8058
 20
199.494
 30
0.0
 40
0.333333
 41
0.333333
  0
VERTEX
  8
0
 10
82.37
 20
199.254
 30
0.0
 40
0.333333
 41
0.333333
  0
VERTEX
  8
0
 10
82.9179
 20
198.979
 30
0.0
 40
0.333333
 41
0.333333
  0
VERTEX
  8
0
 10
83.4481
 20
198.672
 30
0.0
 40
0.333333
 41
0.333333
  0
VERTEX
  8
0
 10
83.9587
 20
198.332
 30
0.0
 40
0.333333
 41
0.333333
  0
VERTEX
  8
0
 10
84.4485
 20
197.961
 30
0.0
 40
0.333333
 41
0.333333
  0
VERTEX
  8
0
 10
84.9157
 20
197.56
 30
0.0
 40
0.333333
 41
0.333333
  0
VERTEX
  8
0
 10
85.3589
 20
197.129
 30
0.0
 40
0.333333
 41
0.333333
  0
VERTEX
  8
0
 10
85.7764
 20
196.668
 30
0.0
 40
0.333333
 41
0.333333
  0
VERTEX
  8
0
 10
86.1667
 20
196.181
 30
0.0
 40
0.333333
 41
0.333333
  0
VERTEX
  8
0
 10
86.4419
 20
195.797
 30
0.0
 40
0.333333
 41
0.333333
  0
VERTEX
  8
0
 10
86.5282
 20
195.665
 30
0.0
 40
0.333333
 41
0.333333
  0
VERTEX
  8
0
 10
99.9668
 20
175.181
 30
0.0
 40
0.333333
 41
0.333333
  0
VERTEX
  8
0
 10
99.9668
 20
25.1803
 30
0.0
 40
0.333333
 41
0.333333
  0
VERTEX
  8
0
 10
86.5282
 20
4.69504
 30
0.0
 40
0.333333
 41
0.333333
  0
VERTEX
  8
0
 10
86.4419
 20
4.56358
 30
0.0
 40
0.333333
 41
0.333333
  0
VERTEX
  8
0
 10
86.1667
 20
4.18001
 30
0.0
 40
0.333333
 41
0.333333
  0
VERTEX
  8
0
 10
85.7764
 20
3.69211
 30
0.0
 40
0.333333
 41
0.333333
  0
VERTEX
  8
0
 10
85.3589
 20
3.23215
 30
0.0
 40
0.333333
 41
0.333333
  0
VERTEX
  8
0
 10
84.9157
 20
2.80094
 30
0.0
 40
0.333333
 41
0.333333
  0
VERTEX
  8
0
 10
84.4485
 20
2.39942
 30
0.0
 40
0.333333
 41
0.333333
  0
VERTEX
  8
0
 10
83.9587
 20
2.02838
 30
0.0
 40
0.333333
 41
0.333333
  0
VERTEX
  8
0
 10
83.4481
 20
1.68864
 30
0.0
 40
0.333333
 41
0.333333
  0
VERTEX
  8
0
 10
82.9179
 20
1.38108
 30
0.0
 40
0.333333
 41
0.333333
  0
VERTEX
  8
0
 10
82.37
 20
1.1065
 30
0.0
 40
0.333333
 41
0.333333
  0
VERTEX
  8
0
 10
81.8058
 20
0.865831
 30
0.0
 40
0.333333
 41
0.333333
  0
VERTEX
  8
0
 10
81.2269
 20
0.659885
 30
0.0
 40
0.333333
 41
0.333333
  0
VERTEX
  8
0
 10
80.6349
 20
0.489475
 30
0.0
 40
0.333333
 41
0.333333
  0
VERTEX
  8
0
 10
80.0313
 20
0.355469
 30
0.0
 40
0.333333
 41
0.333333
  0
VERTEX
  8
0
 10
79.4176
 20
0.258681
 30
0.0
 40
0.333333
 41
0.333333
  0
VERTEX
  8
0
 10
78.7957
 20
0.200032
 30
0.0
 40
0.333333
 41
0.333333
  0
VERTEX
  8
0
 10
78.324
 20
0.180231
 30
0.0
 40
0.333333
 41
0.333333
  0
VERTEX
  8
0
 10
78.1668
 20
0.180231
 30
0.0
 40
0.333333
 41
0.333333
  0
VERTEX
  8
0
 10
23.1667
 20
0.180231
 30
0.0
 40
0.333333
 41
0.333333
  0
VERTEX
  8
0
 10
22.9574
 20
0.180231
 30
0.0
 40
0.333333
 41
0.333333
  0
VERTEX
  8
0
 10
22.3293
 20
0.215386
 30
0.0
 40
0.333333
 41
0.333333
  0
VERTEX
  8
0
 10
21.5022
 20
0.319715
 30
0.0
 40
0.333333
 41
0.333333
  0
VERTEX
  8
0
 10
20.6893
 20
0.491971
 30
0.0
 40
0.333333
 41
0.333333
  0
VERTEX
  8
0
 10
19.8949
 20
0.730632
 30
0.0
 40
0.333333
 41
0.333333
  0
VERTEX
  8
0
 10
19.1231
 20
1.03429
 30
0.0
 40
0.333333
 41
0.333333
  0
VERTEX
  8
0
 10
18.3776
 20
1.40153
 30
0.0
 40
0.333333
 41
0.333333
  0
VERTEX
  8
0
 10
17.6631
 20
1.831
 30
0.0
 40
0.333333
 41
0.333333
  0
VERTEX
  8
0
 10
17.1478
 20
2.19174
 30
0.0
 40
0.333333
 41
0.333333
  0
VERTEX
  8
0
 10
16.9833
 20
2.32113
 30
0.0
 40
0.333333
 41
0.333333
  0
VERTEX
  8
0
 10
16.9008
 20
2.38601
 30
0.0
 40
0.333333
 41
0.333333
  0
VERTEX
  8
0
 10
16.6589
 20
2.58757
 30
0.0
 40
0.333333
 41
0.333333
  0
VERTEX
  8
0
 10
16.3469
 20
2.86654
 30
0.0
 40
0.333333
 41
0.333333
  0
VERTEX
  8
0
 10
16.0476
 20
3.1575
 30
0.0
 40
0.333333
 41
0.333333
  0
VERTEX
  8
0
 10
15.7614
 20
3.46001
 30
0.0
 40
0.333333
 41
0.333333
  0
VERTEX
  8
0
 10
15.4885
 20
3.77365
 30
0.0
 40
0.333333
 41
0.333333
  0
VERTEX
  8
0
 10
15.229
 20
4.09799
 30
0.0
 40
0.333333
 41
0.333333
  0
VERTEX
  8
0
 10
14.9836
 20
4.43251
 30
0.0
 40
0.333333
 41
0.333333
  0
VERTEX
  8
0
 10
14.7522
 20
4.77675
 30
0.0
 40
0.333333
 41
0.333333
  0
VERTEX
  8
0
 10
14.5354
 20
5.13032
 30
0.0
 40
0.333333
 41
0.333333
  0
VERTEX
  8
0
 10
14.3333
 20
5.49274
 30
0.0
 40
0.333333
 41
0.333333
  0
VERTEX
  8
0
 10
14.1464
 20
5.8635
 30
0.0
 40
0.333333
 41
0.333333
  0
VERTEX
  8
0
 10
13.9747
 20
6.24219
 30
0.0
 40
0.333333
 41
0.333333
  0
VERTEX
  8
0
 10
13.8187
 20
6.62836
 30
0.0
 40
0.333333
 41
0.333333
  0
VERTEX
  8
0
 10
13.6787
 20
7.02154
 30
0.0
 40
0.333333
 41
0.333333
  0
VERTEX
  8
0
 10
13.5548
 20
7.42128
 30
0.0
 40
0.333333
 41
0.333333
  0
VERTEX
  8
0
 10
13.4722
 20
7.72515
 30
0.0
 40
0.333333
 41
0.333333
  0
VERTEX
  8
0
 10
13.4475
 20
7.8271
 30
0.0
 40
0.333333
 41
0.333333
  0
VERTEX
  8
0
 10
0.166667
 20
62.6803
 30
0.0
 40
0.333333
 41
0.333333
  0
VERTEX
  8
0
 10
0.166667
 20
137.68
 30
0.0
 40
0.333333
 41
0.333333
  0
SEQEND
 8
0
  0
POLYLINE
  8
0
 62
     0
 66
     1
 10
0
 20
0
 30
0.0
 70
     1
 40
0
 41
0
  0
VERTEX
  8
0
 10
78.1668
 20
192.181
 30
0.0
 40
0
 41
0
  0
VERTEX
  8
0
 10
78.2179
 20
192.181
 30
0.0
 40
0
 41
0
  0
VERTEX
  8
0
 10
78.3713
 20
192.171
 30
0.0
 40
0
 41
0
  0
VERTEX
  8
0
 10
78.5699
 20
192.14
 30
0.0
 40
0
 41
0
  0
VERTEX
  8
0
 10
78.7615
 20
192.09
 30
0.0
 40
0
 41
0
  0
VERTEX
  8
0
 10
78.9453
 20
192.024
 30
0.0
 40
0
 41
0
  0
VERTEX
  8
0
 10
79.12
 20
191.939
 30
0.0
 40
0
 41
0
  0
VERTEX
  8
0
 10
79.285
 20
191.839
 30
0.0
 40
0
 41
0
  0
VERTEX
  8
0
 10
79.439
 20
191.724
 30
0.0
 40
0
 41
0
  0
VERTEX
  8
0
 10
79.581
 20
191.594
 30
0.0
 40
0
 41
0
  0
VERTEX
  8
0
 10
79.7101
 20
191.453
 30
0.0
 40
0
 41
0
  0
VERTEX
  8
0
 10
79.8251
 20
191.299
 30
0.0
 40
0
 41
0
  0
VERTEX
  8
0
 10
79.9254
 20
191.133
 30
0.0
 40
0
 41
0
  0
VERTEX
  8
0
 10
80.0096
 20
190.96
 30
0.0
 40
0
 41
0
  0
VERTEX
  8
0
 10
80.0768
 20
190.775
 30
0.0
 40
0
 41
0
  0
VERTEX
  8
0
 10
80.1261
 20
190.583
 30
0.0
 40
0
 41
0
  0
VERTEX
  8
0
 10
80.1564
 20
190.385
 30
0.0
 40
0
 41
0
  0
VERTEX
  8
0
 10
80.1668
 20
190.232
 30
0.0
 40
0
 41
0
  0
VERTEX
  8
0
 10
80.1668
 20
190.181
 30
0.0
 40
0
 41
0
  0
VERTEX
  8
0
 10
80.1668
 20
190.129
 30
0.0
 40
0
 41
0
  0
VERTEX
  8
0
 10
80.1564
 20
189.976
 30
0.0
 40
0
 41
0
  0
VERTEX
  8
0
 10
80.1261
 20
189.778
 30
0.0
 40
0
 41
0
  0
VERTEX
  8
0
 10
80.0768
 20
189.586
 30
0.0
 40
0
 41
0
  0
VERTEX
  8
0
 10
80.0096
 20
189.401
 30
0.0
 40
0
 41
0
  0
VERTEX
  8
0
 10
79.9254
 20
189.228
 30
0.0
 40
0
 41
0
  0
VERTEX
  8
0
 10
79.8251
 20
189.063
 30
0.0
 40
0
 41
0
  0
VERTEX
  8
0
 10
79.7101
 20
188.908
 30
0.0
 40
0
 41
0
  0
VERTEX
  8
0
 10
79.581
 20
188.767
 30
0.0
 40
0
 41
0
  0
VERTEX
  8
0
 10
79.439
 20
188.638
 30
0.0
 40
0
 41
0
  0
VERTEX
  8
0
 10
79.285
 20
188.522
 30
0.0
 40
0
 41
0
  0
VERTEX
  8
0
 10
79.12
 20
188.422
 30
0.0
 40
0
 41
0
  0
VERTEX
  8
0
 10
78.9453
 20
188.337
 30
0.0
 40
0
 41
0
  0
VERTEX
  8
0
 10
78.7615
 20
188.271
 30
0.0
 40
0
 41
0
  0
VERTEX
  8
0
 10
78.5699
 20
188.221
 30
0.0
 40
0
 41
0
  0
VERTEX
  8
0
 10
78.3713
 20
188.19
 30
0.0
 40
0
 41
0
  0
VERTEX
  8
0
 10
78.2179
 20
188.181
 30
0.0
 40
0
 41
0
  0
VERTEX
  8
0
 10
78.1668
 20
188.181
 30
0.0
 40
0
 41
0
  0
VERTEX
  8
0
 10
78.1156
 20
188.181
 30
0.0
 40
0
 41
0
  0
VERTEX
  8
0
 10
77.9622
 20
188.19
 30
0.0
 40
0
 41
0
  0
VERTEX
  8
0
 10
77.7636
 20
188.221
 30
0.0
 40
0
 41
0
  0
VERTEX
  8
0
 10
77.5719
 20
188.271
 30
0.0
 40
0
 41
0
  0
VERTEX
  8
0
 10
77.3883
 20
188.337
 30
0.0
 40
0
 41
0
  0
VERTEX
  8
0
 10
77.2135
 20
188.422
 30
0.0
 40
0
 41
0
  0
VERTEX
  8
0
 10
77.0486
 20
188.522
 30
0.0
 40
0
 41
0
  0
VERTEX
  8
0
 10
76.8946
 20
188.638
 30
0.0
 40
0
 41
0
  0
VERTEX
  8
0
 10
76.7525
 20
188.767
 30
0.0
 40
0
 41
0
  0
VERTEX
  8
0
 10
76.6235
 20
188.908
 30
0.0
 40
0
 41
0
  0
VERTEX
  8
0
 10
76.5083
 20
189.063
 30
0.0
 40
0
 41
0
  0
VERTEX
  8
0
 10
76.4082
 20
189.228
 30
0.0
 40
0
 41
0
  0
VERTEX
  8
0
 10
76.3239
 20
189.401
 30
0.0
 40
0
 41
0
  0
VERTEX
  8
0
 10
76.2567
 20
189.586
 30
0.0
 40
0
 41
0
  0
VERTEX
  8
0
 10
76.2074
 20
189.778
 30
0.0
 40
0
 41
0
  0
VERTEX
  8
0
 10
76.1771
 20
189.976
 30
0.0
 40
0
 41
0
  0
VERTEX
  8
0
 10
76.1668
 20
190.129
 30
0.0
 40
0
 41
0
  0
VERTEX
  8
0
 10
76.1668
 20
190.181
 30
0.0
 40
0
 41
0
  0
VERTEX
  8
0
 10
76.1668
 20
190.232
 30
0.0
 40
0
 41
0
  0
VERTEX
  8
0
 10
76.1771
 20
190.385
 30
0.0
 40
0
 41
0
  0
VERTEX
  8
0
 10
76.2074
 20
190.583
 30
0.0
 40
0
 41
0
  0
VERTEX
  8
0
 10
76.2567
 20
190.775
 30
0.0
 40
0
 41
0
  0
VERTEX
  8
0
 10
76.3239
 20
190.96
 30
0.0
 40
0
 41
0
  0
VERTEX
  8
0
 10
76.4082
 20
191.133
 30
0.0
 40
0
 41
0
  0
VERTEX
  8
0
 10
76.5083
 20
191.299
 30
0.0
 40
0
 41
0
  0
VERTEX
  8
0
 10
76.6235
 20
191.453
 30
0.0
 40
0
 41
0
  0
VERTEX
  8
0
 10
76.7525
 20
191.594
 30
0.0
 40
0
 41
0
  0
VERTEX
  8
0
 10
76.8946
 20
191.724
 30
0.0
 40
0
 41
0
  0
VERTEX
  8
0
 10
77.0486
 20
191.839
 30
0.0
 40
0
 41
0
  0
VERTEX
  8
0
 10
77.2135
 20
191.939
 30
0.0
 40
0
 41
0
  0
VERTEX
  8
0
 10
77.3883
 20
192.024
 30
0.0
 40
0
 41
0
  0
VERTEX
  8
0
 10
77.5719
 20
192.09
 30
0.0
 40
0
 41
0
  0
VERTEX
  8
0
 10
77.7636
 20
192.14
 30
0.0
 40
0
 41
0
  0
VERTEX
  8
0
 10
77.9622
 20
192.171
 30
0.0
 40
0
 41
0
  0
VERTEX
  8
0
 10
78.1156
 20
192.181
 30
0.0
 40
0
 41
0
  0
VERTEX
  8
0
 10
78.1668
 20
192.181
 30
0.0
 40
0
 41
0
  0
SEQEND
 8
0
  0
POLYLINE
  8
0
 62
     0
 66
     1
 10
0
 20
0
 30
0.0
 70
     1
 40
24
 41
24
  0
VERTEX
  8
0
 10
78.1668
 20
192.181
 30
0.0
 40
0.333333
 41
0.333333
  0
VERTEX
  8
0
 10
78.2179
 20
192.181
 30
0.0
 40
0.333333
 41
0.333333
  0
VERTEX
  8
0
 10
78.3713
 20
192.171
 30
0.0
 40
0.333333
 41
0.333333
  0
VERTEX
  8
0
 10
78.5699
 20
192.14
 30
0.0
 40
0.333333
 41
0.333333
  0
VERTEX
  8
0
 10
78.7615
 20
192.09
 30
0.0
 40
0.333333
 41
0.333333
  0
VERTEX
  8
0
 10
78.9453
 20
192.024
 30
0.0
 40
0.333333
 41
0.333333
  0
VERTEX
  8
0
 10
79.12
 20
191.939
 30
0.0
 40
0.333333
 41
0.333333
  0
VERTEX
  8
0
 10
79.285
 20
191.839
 30
0.0
 40
0.333333
 41
0.333333
  0
VERTEX
  8
0
 10
79.439
 20
191.724
 30
0.0
 40
0.333333
 41
0.333333
  0
VERTEX
  8
0
 10
79.581
 20
191.594
 30
0.0
 40
0.333333
 41
0.333333
  0
VERTEX
  8
0
 10
79.7101
 20
191.453
 30
0.0
 40
0.333333
 41
0.333333
  0
VERTEX
  8
0
 10
79.8251
 20
191.299
 30
0.0
 40
0.333333
 41
0.333333
  0
VERTEX
  8
0
 10
79.9254
 20
191.133
 30
0.0
 40
0.333333
 41
0.333333
  0
VERTEX
  8
0
 10
80.0096
 20
190.96
 30
0.0
 40
0.333333
 41
0.333333
  0
VERTEX
  8
0
 10
80.0768
 20
190.775
 30
0.0
 40
0.333333
 41
0.333333
  0
VERTEX
  8
0
 10
80.1261
 20
190.583
 30
0.0
 40
0.333333
 41
0.333333
  0
VERTEX
  8
0
 10
80.1564
 20
190.385
 30
0.0
 40
0.333333
 41
0.333333
  0
VERTEX
  8
0
 10
80.1668
 20
190.232
 30
0.0
 40
0.333333
 41
0.333333
  0
VERTEX
  8
0
 10
80.1668
 20
190.181
 30
0.0
 40
0.333333
 41
0.333333
  0
VERTEX
  8
0
 10
80.1668
 20
190.129
 30
0.0
 40
0.333333
 41
0.333333
  0
VERTEX
  8
0
 10
80.1564
 20
189.976
 30
0.0
 40
0.333333
 41
0.333333
  0
VERTEX
  8
0
 10
80.1261
 20
189.778
 30
0.0
 40
0.333333
 41
0.333333
  0
VERTEX
  8
0
 10
80.0768
 20
189.586
 30
0.0
 40
0.333333
 41
0.333333
  0
VERTEX
  8
0
 10
80.0096
 20
189.401
 30
0.0
 40
0.333333
 41
0.333333
  0
VERTEX
  8
0
 10
79.9254
 20
189.228
 30
0.0
 40
0.333333
 41
0.333333
  0
VERTEX
  8
0
 10
79.8251
 20
189.063
 30
0.0
 40
0.333333
 41
0.333333
  0
VERTEX
  8
0
 10
79.7101
 20
188.908
 30
0.0
 40
0.333333
 41
0.333333
  0
VERTEX
  8
0
 10
79.581
 20
188.767
 30
0.0
 40
0.333333
 41
0.333333
  0
VERTEX
  8
0
 10
79.439
 20
188.638
 30
0.0
 40
0.333333
 41
0.333333
  0
VERTEX
  8
0
 10
79.285
 20
188.522
 30
0.0
 40
0.333333
 41
0.333333
  0
VERTEX
  8
0
 10
79.12
 20
188.422
 30
0.0
 40
0.333333
 41
0.333333
  0
VERTEX
  8
0
 10
78.9453
 20
188.337
 30
0.0
 40
0.333333
 41
0.333333
  0
VERTEX
  8
0
 10
78.7615
 20
188.271
 30
0.0
 40
0.333333
 41
0.333333
  0
VERTEX
  8
0
 10
78.5699
 20
188.221
 30
0.0
 40
0.333333
 41
0.333333
  0
VERTEX
  8
0
 10
78.3713
 20
188.19
 30
0.0
 40
0.333333
 41
0.333333
  0
VERTEX
  8
0
 10
78.2179
 20
188.181
 30
0.0
 40
0.333333
 41
0.333333
  0
VERTEX
  8
0
 10
78.1668
 20
188.181
 30
0.0
 40
0.333333
 41
0.333333
  0
VERTEX
  8
0
 10
78.1156
 20
188.181
 30
0.0
 40
0.333333
 41
0.333333
  0
VERTEX
  8
0
 10
77.9622
 20
188.19
 30
0.0
 40
0.333333
 41
0.333333
  0
VERTEX
  8
0
 10
77.7636
 20
188.221
 30
0.0
 40
0.333333
 41
0.333333
  0
VERTEX
  8
0
 10
77.5719
 20
188.271
 30
0.0
 40
0.333333
 41
0.333333
  0
VERTEX
  8
0
 10
77.3883
 20
188.337
 30
0.0
 40
0.333333
 41
0.333333
  0
VERTEX
  8
0
 10
77.2135
 20
188.422
 30
0.0
 40
0.333333
 41
0.333333
  0
VERTEX
  8
0
 10
77.0486
 20
188.522
 30
0.0
 40
0.333333
 41
0.333333
  0
VERTEX
  8
0
 10
76.8946
 20
188.638
 30
0.0
 40
0.333333
 41
0.333333
  0
VERTEX
  8
0
 10
76.7525
 20
188.767
 30
0.0
 40
0.333333
 41
0.333333
  0
VERTEX
  8
0
 10
76.6235
 20
188.908
 30
0.0
 40
0.333333
 41
0.333333
  0
VERTEX
  8
0
 10
76.5083
 20
189.063
 30
0.0
 40
0.333333
 41
0.333333
  0
VERTEX
  8
0
 10
76.4082
 20
189.228
 30
0.0
 40
0.333333
 41
0.333333
  0
VERTEX
  8
0
 10
76.3239
 20
189.401
 30
0.0
 40
0.333333
 41
0.333333
  0
VERTEX
  8
0
 10
76.2567
 20
189.586
 30
0.0
 40
0.333333
 41
0.333333
  0
VERTEX
  8
0
 10
76.2074
 20
189.778
 30
0.0
 40
0.333333
 41
0.333333
  0
VERTEX
  8
0
 10
76.1771
 20
189.976
 30
0.0
 40
0.333333
 41
0.333333
  0
VERTEX
  8
0
 10
76.1668
 20
190.129
 30
0.0
 40
0.333333
 41
0.333333
  0
VERTEX
  8
0
 10
76.1668
 20
190.181
 30
0.0
 40
0.333333
 41
0.333333
  0
VERTEX
  8
0
 10
76.1668
 20
190.232
 30
0.0
 40
0.333333
 41
0.333333
  0
VERTEX
  8
0
 10
76.1771
 20
190.385
 30
0.0
 40
0.333333
 41
0.333333
  0
VERTEX
  8
0
 10
76.2074
 20
190.583
 30
0.0
 40
0.333333
 41
0.333333
  0
VERTEX
  8
0
 10
76.2567
 20
190.775
 30
0.0
 40
0.333333
 41
0.333333
  0
VERTEX
  8
0
 10
76.3239
 20
190.96
 30
0.0
 40
0.333333
 41
0.333333
  0
VERTEX
  8
0
 10
76.4082
 20
191.133
 30
0.0
 40
0.333333
 41
0.333333
  0
VERTEX
  8
0
 10
76.5083
 20
191.299
 30
0.0
 40
0.333333
 41
0.333333
  0
VERTEX
  8
0
 10
76.6235
 20
191.453
 30
0.0
 40
0.333333
 41
0.333333
  0
VERTEX
  8
0
 10
76.7525
 20
191.594
 30
0.0
 40
0.333333
 41
0.333333
  0
VERTEX
  8
0
 10
76.8946
 20
191.724
 30
0.0
 40
0.333333
 41
0.333333
  0
VERTEX
  8
0
 10
77.0486
 20
191.839
 30
0.0
 40
0.333333
 41
0.333333
  0
VERTEX
  8
0
 10
77.2135
 20
191.939
 30
0.0
 40
0.333333
 41
0.333333
  0
VERTEX
  8
0
 10
77.3883
 20
192.024
 30
0.0
 40
0.333333
 41
0.333333
  0
VERTEX
  8
0
 10
77.5719
 20
192.09
 30
0.0
 40
0.333333
 41
0.333333
  0
VERTEX
  8
0
 10
77.7636
 20
192.14
 30
0.0
 40
0.333333
 41
0.333333
  0
VERTEX
  8
0
 10
77.9622
 20
192.171
 30
0.0
 40
0.333333
 41
0.333333
  0
VERTEX
  8
0
 10
78.1156
 20
192.181
 30
0.0
 40
0.333333
 41
0.333333
  0
VERTEX
  8
0
 10
78.1668
 20
192.181
 30
0.0
 40
0.333333
 41
0.333333
  0
SEQEND
 8
0
  0
POLYLINE
  8
0
 62
     0
 66
     1
 10
0
 20
0
 30
0.0
 70
     1
 40
0
 41
0
  0
VERTEX
  8
0
 10
23.1667
 20
192.181
 30
0.0
 40
0
 41
0
  0
VERTEX
  8
0
 10
23.2178
 20
192.181
 30
0.0
 40
0
 41
0
  0
VERTEX
  8
0
 10
23.3712
 20
192.171
 30
0.0
 40
0
 41
0
  0
VERTEX
  8
0
 10
23.5697
 20
192.14
 30
0.0
 40
0
 41
0
  0
VERTEX
  8
0
 10
23.7614
 20
192.09
 30
0.0
 40
0
 41
0
  0
VERTEX
  8
0
 10
23.9451
 20
192.024
 30
0.0
 40
0
 41
0
  0
VERTEX
  8
0
 10
24.12
 20
191.939
 30
0.0
 40
0
 41
0
  0
VERTEX
  8
0
 10
24.2849
 20
191.839
 30
0.0
 40
0
 41
0
  0
VERTEX
  8
0
 10
24.4389
 20
191.724
 30
0.0
 40
0
 41
0
  0
VERTEX
  8
0
 10
24.5808
 20
191.594
 30
0.0
 40
0
 41
0
  0
VERTEX
  8
0
 10
24.71
 20
191.453
 30
0.0
 40
0
 41
0
  0
VERTEX
  8
0
 10
24.8251
 20
191.299
 30
0.0
 40
0
 41
0
  0
VERTEX
  8
0
 10
24.9253
 20
191.133
 30
0.0
 40
0
 41
0
  0
VERTEX
  8
0
 10
25.0094
 20
190.96
 30
0.0
 40
0
 41
0
  0
VERTEX
  8
0
 10
25.0768
 20
190.775
 30
0.0
 40
0
 41
0
  0
VERTEX
  8
0
 10
25.1261
 20
190.583
 30
0.0
 40
0
 41
0
  0
VERTEX
  8
0
 10
25.1564
 20
190.385
 30
0.0
 40
0
 41
0
  0
VERTEX
  8
0
 10
25.1667
 20
190.232
 30
0.0
 40
0
 41
0
  0
VERTEX
  8
0
 10
25.1667
 20
190.181
 30
0.0
 40
0
 41
0
  0
VERTEX
  8
0
 10
25.1667
 20
190.129
 30
0.0
 40
0
 41
0
  0
VERTEX
  8
0
 10
25.1564
 20
189.976
 30
0.0
 40
0
 41
0
  0
VERTEX
  8
0
 10
25.1261
 20
189.778
 30
0.0
 40
0
 41
0
  0
VERTEX
  8
0
 10
25.0768
 20
189.586
 30
0.0
 40
0
 41
0
  0
VERTEX
  8
0
 10
25.0094
 20
189.401
 30
0.0
 40
0
 41
0
  0
VERTEX
  8
0
 10
24.9253
 20
189.228
 30
0.0
 40
0
 41
0
  0
VERTEX
  8
0
 10
24.8251
 20
189.063
 30
0.0
 40
0
 41
0
  0
VERTEX
  8
0
 10
24.71
 20
188.908
 30
0.0
 40
0
 41
0
  0
VERTEX
  8
0
 10
24.5808
 20
188.767
 30
0.0
 40
0
 41
0
  0
VERTEX
  8
0
 10
24.4389
 20
188.638
 30
0.0
 40
0
 41
0
  0
VERTEX
  8
0
 10
24.2849
 20
188.522
 30
0.0
 40
0
 41
0
  0
VERTEX
  8
0
 10
24.12
 20
188.422
 30
0.0
 40
0
 41
0
  0
VERTEX
  8
0
 10
23.9451
 20
188.337
 30
0.0
 40
0
 41
0
  0
VERTEX
  8
0
 10
23.7614
 20
188.271
 30
0.0
 40
0
 41
0
  0
VERTEX
  8
0
 10
23.5697
 20
188.221
 30
0.0
 40
0
 41
0
  0
VERTEX
  8
0
 10
23.3712
 20
188.19
 30
0.0
 40
0
 41
0
  0
VERTEX
  8
0
 10
23.2178
 20
188.181
 30
0.0
 40
0
 41
0
  0
VERTEX
  8
0
 10
23.1667
 20
188.181
 30
0.0
 40
0
 41
0
  0
VERTEX
  8
0
 10
23.1156
 20
188.181
 30
0.0
 40
0
 41
0
  0
VERTEX
  8
0
 10
22.9622
 20
188.19
 30
0.0
 40
0
 41
0
  0
VERTEX
  8
0
 10
22.7636
 20
188.221
 30
0.0
 40
0
 41
0
  0
VERTEX
  8
0
 10
22.5719
 20
188.271
 30
0.0
 40
0
 41
0
  0
VERTEX
  8
0
 10
22.3882
 20
188.337
 30
0.0
 40
0
 41
0
  0
VERTEX
  8
0
 10
22.2133
 20
188.422
 30
0.0
 40
0
 41
0
  0
VERTEX
  8
0
 10
22.0485
 20
188.522
 30
0.0
 40
0
 41
0
  0
VERTEX
  8
0
 10
21.8944
 20
188.638
 30
0.0
 40
0
 41
0
  0
VERTEX
  8
0
 10
21.7525
 20
188.767
 30
0.0
 40
0
 41
0
  0
VERTEX
  8
0
 10
21.6233
 20
188.908
 30
0.0
 40
0
 41
0
  0
VERTEX
  8
0
 10
21.5082
 20
189.063
 30
0.0
 40
0
 41
0
  0
VERTEX
  8
0
 10
21.4081
 20
189.228
 30
0.0
 40
0
 41
0
  0
VERTEX
  8
0
 10
21.3239
 20
189.401
 30
0.0
 40
0
 41
0
  0
VERTEX
  8
0
 10
21.2567
 20
189.586
 30
0.0
 40
0
 41
0
  0
VERTEX
  8
0
 10
21.2074
 20
189.778
 30
0.0
 40
0
 41
0
  0
VERTEX
  8
0
 10
21.1771
 20
189.976
 30
0.0
 40
0
 41
0
  0
VERTEX
  8
0
 10
21.1667
 20
190.129
 30
0.0
 40
0
 41
0
  0
VERTEX
  8
0
 10
21.1667
 20
190.181
 30
0.0
 40
0
 41
0
  0
VERTEX
  8
0
 10
21.1667
 20
190.232
 30
0.0
 40
0
 41
0
  0
VERTEX
  8
0
 10
21.1771
 20
190.385
 30
0.0
 40
0
 41
0
  0
VERTEX
  8
0
 10
21.2074
 20
190.583
 30
0.0
 40
0
 41
0
  0
VERTEX
  8
0
 10
21.2567
 20
190.775
 30
0.0
 40
0
 41
0
  0
VERTEX
  8
0
 10
21.3239
 20
190.96
 30
0.0
 40
0
 41
0
  0
VERTEX
  8
0
 10
21.4081
 20
191.133
 30
0.0
 40
0
 41
0
  0
VERTEX
  8
0
 10
21.5082
 20
191.299
 30
0.0
 40
0
 41
0
  0
VERTEX
  8
0
 10
21.6233
 20
191.453
 30
0.0
 40
0
 41
0
  0
VERTEX
  8
0
 10
21.7525
 20
191.594
 30
0.0
 40
0
 41
0
  0
VERTEX
  8
0
 10
21.8944
 20
191.724
 30
0.0
 40
0
 41
0
  0
VERTEX
  8
0
 10
22.0485
 20
191.839
 30
0.0
 40
0
 41
0
  0
VERTEX
  8
0
 10
22.2133
 20
191.939
 30
0.0
 40
0
 41
0
  0
VERTEX
  8
0
 10
22.3882
 20
192.024
 30
0.0
 40
0
 41
0
  0
VERTEX
  8
0
 10
22.5719
 20
192.09
 30
0.0
 40
0
 41
0
  0
VERTEX
  8
0
 10
22.7636
 20
192.14
 30
0.0
 40
0
 41
0
  0
VERTEX
  8
0
 10
22.9622
 20
192.171
 30
0.0
 40
0
 41
0
  0
VERTEX
  8
0
 10
23.1156
 20
192.181
 30
0.0
 40
0
 41
0
  0
VERTEX
  8
0
 10
23.1667
 20
192.181
 30
0.0
 40
0
 41
0
  0
SEQEND
 8
0
  0
POLYLINE
  8
0
 62
     0
 66
     1
 10
0
 20
0
 30
0.0
 70
     1
 40
24
 41
24
  0
VERTEX
  8
0
 10
23.1667
 20
192.181
 30
0.0
 40
0.333333
 41
0.333333
  0
VERTEX
  8
0
 10
23.2178
 20
192.181
 30
0.0
 40
0.333333
 41
0.333333
  0
VERTEX
  8
0
 10
23.3712
 20
192.171
 30
0.0
 40
0.333333
 41
0.333333
  0
VERTEX
  8
0
 10
23.5697
 20
192.14
 30
0.0
 40
0.333333
 41
0.333333
  0
VERTEX
  8
0
 10
23.7614
 20
192.09
 30
0.0
 40
0.333333
 41
0.333333
  0
VERTEX
  8
0
 10
23.9451
 20
192.024
 30
0.0
 40
0.333333
 41
0.333333
  0
VERTEX
  8
0
 10
24.12
 20
191.939
 30
0.0
 40
0.333333
 41
0.333333
  0
VERTEX
  8
0
 10
24.2849
 20
191.839
 30
0.0
 40
0.333333
 41
0.333333
  0
VERTEX
  8
0
 10
24.4389
 20
191.724
 30
0.0
 40
0.333333
 41
0.333333
  0
VERTEX
  8
0
 10
24.5808
 20
191.594
 30
0.0
 40
0.333333
 41
0.333333
  0
VERTEX
  8
0
 10
24.71
 20
191.453
 30
0.0
 40
0.333333
 41
0.333333
  0
VERTEX
  8
0
 10
24.8251
 20
191.299
 30
0.0
 40
0.333333
 41
0.333333
  0
VERTEX
  8
0
 10
24.9253
 20
191.133
 30
0.0
 40
0.333333
 41
0.333333
  0
VERTEX
  8
0
 10
25.0094
 20
190.96
 30
0.0
 40
0.333333
 41
0.333333
  0
VERTEX
  8
0
 10
25.0768
 20
190.775
 30
0.0
 40
0.333333
 41
0.333333
  0
VERTEX
  8
0
 10
25.1261
 20
190.583
 30
0.0
 40
0.333333
 41
0.333333
  0
VERTEX
  8
0
 10
25.1564
 20
190.385
 30
0.0
 40
0.333333
 41
0.333333
  0
VERTEX
  8
0
 10
25.1667
 20
190.232
 30
0.0
 40
0.333333
 41
0.333333
  0
VERTEX
  8
0
 10
25.1667
 20
190.181
 30
0.0
 40
0.333333
 41
0.333333
  0
VERTEX
  8
0
 10
25.1667
 20
190.129
 30
0.0
 40
0.333333
 41
0.333333
  0
VERTEX
  8
0
 10
25.1564
 20
189.976
 30
0.0
 40
0.333333
 41
0.333333
  0
VERTEX
  8
0
 10
25.1261
 20
189.778
 30
0.0
 40
0.333333
 41
0.333333
  0
VERTEX
  8
0
 10
25.0768
 20
189.586
 30
0.0
 40
0.333333
 41
0.333333
  0
VERTEX
  8
0
 10
25.0094
 20
189.401
 30
0.0
 40
0.333333
 41
0.333333
  0
VERTEX
  8
0
 10
24.9253
 20
189.228
 30
0.0
 40
0.333333
 41
0.333333
  0
VERTEX
  8
0
 10
24.8251
 20
189.063
 30
0.0
 40
0.333333
 41
0.333333
  0
VERTEX
  8
0
 10
24.71
 20
188.908
 30
0.0
 40
0.333333
 41
0.333333
  0
VERTEX
  8
0
 10
24.5808
 20
188.767
 30
0.0
 40
0.333333
 41
0.333333
  0
VERTEX
  8
0
 10
24.4389
 20
188.638
 30
0.0
 40
0.333333
 41
0.333333
  0
VERTEX
  8
0
 10
24.2849
 20
188.522
 30
0.0
 40
0.333333
 41
0.333333
  0
VERTEX
  8
0
 10
24.12
 20
188.422
 30
0.0
 40
0.333333
 41
0.333333
  0
VERTEX
  8
0
 10
23.9451
 20
188.337
 30
0.0
 40
0.333333
 41
0.333333
  0
VERTEX
  8
0
 10
23.7614
 20
188.271
 30
0.0
 40
0.333333
 41
0.333333
  0
VERTEX
  8
0
 10
23.5697
 20
188.221
 30
0.0
 40
0.333333
 41
0.333333
  0
VERTEX
  8
0
 10
23.3712
 20
188.19
 30
0.0
 40
0.333333
 41
0.333333
  0
VERTEX
  8
0
 10
23.2178
 20
188.181
 30
0.0
 40
0.333333
 41
0.333333
  0
VERTEX
  8
0
 10
23.1667
 20
188.181
 30
0.0
 40
0.333333
 41
0.333333
  0
VERTEX
  8
0
 10
23.1156
 20
188.181
 30
0.0
 40
0.333333
 41
0.333333
  0
VERTEX
  8
0
 10
22.9622
 20
188.19
 30
0.0
 40
0.333333
 41
0.333333
  0
VERTEX
  8
0
 10
22.7636
 20
188.221
 30
0.0
 40
0.333333
 41
0.333333
  0
VERTEX
  8
0
 10
22.5719
 20
188.271
 30
0.0
 40
0.333333
 41
0.333333
  0
VERTEX
  8
0
 10
22.3882
 20
188.337
 30
0.0
 40
0.333333
 41
0.333333
  0
VERTEX
  8
0
 10
22.2133
 20
188.422
 30
0.0
 40
0.333333
 41
0.333333
  0
VERTEX
  8
0
 10
22.0485
 20
188.522
 30
0.0
 40
0.333333
 41
0.333333
  0
VERTEX
  8
0
 10
21.8944
 20
188.638
 30
0.0
 40
0.333333
 41
0.333333
  0
VERTEX
  8
0
 10
21.7525
 20
188.767
 30
0.0
 40
0.333333
 41
0.333333
  0
VERTEX
  8
0
 10
21.6233
 20
188.908
 30
0.0
 40
0.333333
 41
0.333333
  0
VERTEX
  8
0
 10
21.5082
 20
189.063
 30
0.0
 40
0.333333
 41
0.333333
  0
VERTEX
  8
0
 10
21.4081
 20
189.228
 30
0.0
 40
0.333333
 41
0.333333
  0
VERTEX
  8
0
 10
21.3239
 20
189.401
 30
0.0
 40
0.333333
 41
0.333333
  0
VERTEX
  8
0
 10
21.2567
 20
189.586
 30
0.0
 40
0.333333
 41
0.333333
  0
VERTEX
  8
0
 10
21.2074
 20
189.778
 30
0.0
 40
0.333333
 41
0.333333
  0
VERTEX
  8
0
 10
21.1771
 20
189.976
 30
0.0
 40
0.333333
 41
0.333333
  0
VERTEX
  8
0
 10
21.1667
 20
190.129
 30
0.0
 40
0.333333
 41
0.333333
  0
VERTEX
  8
0
 10
21.1667
 20
190.181
 30
0.0
 40
0.333333
 41
0.333333
  0
VERTEX
  8
0
 10
21.1667
 20
190.232
 30
0.0
 40
0.333333
 41
0.333333
  0
VERTEX
  8
0
 10
21.1771
 20
190.385
 30
0.0
 40
0.333333
 41
0.333333
  0
VERTEX
  8
0
 10
21.2074
 20
190.583
 30
0.0
 40
0.333333
 41
0.333333
  0
VERTEX
  8
0
 10
21.2567
 20
190.775
 30
0.0
 40
0.333333
 41
0.333333
  0
VERTEX
  8
0
 10
21.3239
 20
190.96
 30
0.0
 40
0.333333
 41
0.333333
  0
VERTEX
  8
0
 10
21.4081
 20
191.133
 30
0.0
 40
0.333333
 41
0.333333
  0
VERTEX
  8
0
 10
21.5082
 20
191.299
 30
0.0
 40
0.333333
 41
0.333333
  0
VERTEX
  8
0
 10
21.6233
 20
191.453
 30
0.0
 40
0.333333
 41
0.333333
  0
VERTEX
  8
0
 10
21.7525
 20
191.594
 30
0.0
 40
0.333333
 41
0.333333
  0
VERTEX
  8
0
 10
21.8944
 20
191.724
 30
0.0
 40
0.333333
 41
0.333333
  0
VERTEX
  8
0
 10
22.0485
 20
191.839
 30
0.0
 40
0.333333
 41
0.333333
  0
VERTEX
  8
0
 10
22.2133
 20
191.939
 30
0.0
 40
0.333333
 41
0.333333
  0
VERTEX
  8
0
 10
22.3882
 20
192.024
 30
0.0
 40
0.333333
 41
0.333333
  0
VERTEX
  8
0
 10
22.5719
 20
192.09
 30
0.0
 40
0.333333
 41
0.333333
  0
VERTEX
  8
0
 10
22.7636
 20
192.14
 30
0.0
 40
0.333333
 41
0.333333
  0
VERTEX
  8
0
 10
22.9622
 20
192.171
 30
0.0
 40
0.333333
 41
0.333333
  0
VERTEX
  8
0
 10
23.1156
 20
192.181
 30
0.0
 40
0.333333
 41
0.333333
  0
VERTEX
  8
0
 10
23.1667
 20
192.181
 30
0.0
 40
0.333333
 41
0.333333
  0
SEQEND
 8
0
  0
POLYLINE
  8
0
 62
     0
 66
     1
 10
0
 20
0
 30
0.0
 70
     1
 40
0
 41
0
  0
VERTEX
  8
0
 10
23.1667
 20
12.1803
 30
0.0
 40
0
 41
0
  0
VERTEX
  8
0
 10
23.2178
 20
12.1803
 30
0.0
 40
0
 41
0
  0
VERTEX
  8
0
 10
23.3712
 20
12.17
 30
0.0
 40
0
 41
0
  0
VERTEX
  8
0
 10
23.5697
 20
12.1397
 30
0.0
 40
0
 41
0
  0
VERTEX
  8
0
 10
23.7614
 20
12.0904
 30
0.0
 40
0
 41
0
  0
VERTEX
  8
0
 10
23.9451
 20
12.0231
 30
0.0
 40
0
 41
0
  0
VERTEX
  8
0
 10
24.12
 20
11.9389
 30
0.0
 40
0
 41
0
  0
VERTEX
  8
0
 10
24.2849
 20
11.8388
 30
0.0
 40
0
 41
0
  0
VERTEX
  8
0
 10
24.4389
 20
11.7236
 30
0.0
 40
0
 41
0
  0
VERTEX
  8
0
 10
24.5808
 20
11.5945
 30
0.0
 40
0
 41
0
  0
VERTEX
  8
0
 10
24.71
 20
11.4525
 30
0.0
 40
0
 41
0
  0
VERTEX
  8
0
 10
24.8251
 20
11.2985
 30
0.0
 40
0
 41
0
  0
VERTEX
  8
0
 10
24.9253
 20
11.1336
 30
0.0
 40
0
 41
0
  0
VERTEX
  8
0
 10
25.0094
 20
10.9588
 30
0.0
 40
0
 41
0
  0
VERTEX
  8
0
 10
25.0768
 20
10.7751
 30
0.0
 40
0
 41
0
  0
VERTEX
  8
0
 10
25.1261
 20
10.5834
 30
0.0
 40
0
 41
0
  0
VERTEX
  8
0
 10
25.1564
 20
10.3848
 30
0.0
 40
0
 41
0
  0
VERTEX
  8
0
 10
25.1667
 20
10.2314
 30
0.0
 40
0
 41
0
  0
VERTEX
  8
0
 10
25.1667
 20
10.1803
 30
0.0
 40
0
 41
0
  0
VERTEX
  8
0
 10
25.1667
 20
10.1292
 30
0.0
 40
0
 41
0
  0
VERTEX
  8
0
 10
25.1564
 20
9.97581
 30
0.0
 40
0
 41
0
  0
VERTEX
  8
0
 10
25.1261
 20
9.77724
 30
0.0
 40
0
 41
0
  0
VERTEX
  8
0
 10
25.0768
 20
9.58556
 30
0.0
 40
0
 41
0
  0
VERTEX
  8
0
 10
25.0094
 20
9.40181
 30
0.0
 40
0
 41
0
  0
VERTEX
  8
0
 10
24.9253
 20
9.227
 30
0.0
 40
0
 41
0
  0
VERTEX
  8
0
 10
24.8251
 20
9.06207
 30
0.0
 40
0
 41
0
  0
VERTEX
  8
0
 10
24.71
 20
8.9081
 30
0.0
 40
0
 41
0
  0
VERTEX
  8
0
 10
24.5808
 20
8.76606
 30
0.0
 40
0
 41
0
  0
VERTEX
  8
0
 10
24.4389
 20
8.63699
 30
0.0
 40
0
 41
0
  0
VERTEX
  8
0
 10
24.2849
 20
8.52186
 30
0.0
 40
0
 41
0
  0
VERTEX
  8
0
 10
24.12
 20
8.42171
 30
0.0
 40
0
 41
0
  0
VERTEX
  8
0
 10
23.9451
 20
8.33746
 30
0.0
 40
0
 41
0
  0
VERTEX
  8
0
 10
23.7614
 20
8.27024
 30
0.0
 40
0
 41
0
  0
VERTEX
  8
0
 10
23.5697
 20
8.22092
 30
0.0
 40
0
 41
0
  0
VERTEX
  8
0
 10
23.3712
 20
8.19065
 30
0.0
 40
0
 41
0
  0
VERTEX
  8
0
 10
23.2178
 20
8.18028
 30
0.0
 40
0
 41
0
  0
VERTEX
  8
0
 10
23.1667
 20
8.18028
 30
0.0
 40
0
 41
0
  0
VERTEX
  8
0
 10
23.1156
 20
8.18028
 30
0.0
 40
0
 41
0
  0
VERTEX
  8
0
 10
22.9622
 20
8.19065
 30
0.0
 40
0
 41
0
  0
VERTEX
  8
0
 10
22.7636
 20
8.22092
 30
0.0
 40
0
 41
0
  0
VERTEX
  8
0
 10
22.5719
 20
8.27024
 30
0.0
 40
0
 41
0
  0
VERTEX
  8
0
 10
22.3882
 20
8.33746
 30
0.0
 40
0
 41
0
  0
VERTEX
  8
0
 10
22.2133
 20
8.42171
 30
0.0
 40
0
 41
0
  0
VERTEX
  8
0
 10
22.0485
 20
8.52186
 30
0.0
 40
0
 41
0
  0
VERTEX
  8
0
 10
21.8944
 20
8.63699
 30
0.0
 40
0
 41
0
  0
VERTEX
  8
0
 10
21.7525
 20
8.76606
 30
0.0
 40
0
 41
0
  0
VERTEX
  8
0
 10
21.6233
 20
8.9081
 30
0.0
 40
0
 41
0
  0
VERTEX
  8
0
 10
21.5082
 20
9.06207
 30
0.0
 40
0
 41
0
  0
VERTEX
  8
0
 10
21.4081
 20
9.227
 30
0.0
 40
0
 41
0
  0
VERTEX
  8
0
 10
21.3239
 20
9.40181
 30
0.0
 40
0
 41
0
  0
VERTEX
  8
0
 10
21.2567
 20
9.58556
 30
0.0
 40
0
 41
0
  0
VERTEX
  8
0
 10
21.2074
 20
9.77724
 30
0.0
 40
0
 41
0
  0
VERTEX
  8
0
 10
21.1771
 20
9.97581
 30
0.0
 40
0
 41
0
  0
VERTEX
  8
0
 10
21.1667
 20
10.1292
 30
0.0
 40
0
 41
0
  0
VERTEX
  8
0
 10
21.1667
 20
10.1803
 30
0.0
 40
0
 41
0
  0
VERTEX
  8
0
 10
21.1667
 20
10.2314
 30
0.0
 40
0
 41
0
  0
VERTEX
  8
0
 10
21.1771
 20
10.3848
 30
0.0
 40
0
 41
0
  0
VERTEX
  8
0
 10
21.2074
 20
10.5834
 30
0.0
 40
0
 41
0
  0
VERTEX
  8
0
 10
21.2567
 20
10.7751
 30
0.0
 40
0
 41
0
  0
VERTEX
  8
0
 10
21.3239
 20
10.9588
 30
0.0
 40
0
 41
0
  0
VERTEX
  8
0
 10
21.4081
 20
11.1336
 30
0.0
 40
0
 41
0
  0
VERTEX
  8
0
 10
21.5082
 20
11.2985
 30
0.0
 40
0
 41
0
  0
VERTEX
  8
0
 10
21.6233
 20
11.4525
 30
0.0
 40
0
 41
0
  0
VERTEX
  8
0
 10
21.7525
 20
11.5945
 30
0.0
 40
0
 41
0
  0
VERTEX
  8
0
 10
21.8944
 20
11.7236
 30
0.0
 40
0
 41
0
  0
VERTEX
  8
0
 10
22.0485
 20
11.8388
 30
0.0
 40
0
 41
0
  0
VERTEX
  8
0
 10
22.2133
 20
11.9389
 30
0.0
 40
0
 41
0
  0
VERTEX
  8
0
 10
22.3882
 20
12.0231
 30
0.0
 40
0
 41
0
  0
VERTEX
  8
0
 10
22.5719
 20
12.0904
 30
0.0
 40
0
 41
0
  0
VERTEX
  8
0
 10
22.7636
 20
12.1397
 30
0.0
 40
0
 41
0
  0
VERTEX
  8
0
 10
22.9622
 20
12.17
 30
0.0
 40
0
 41
0
  0
VERTEX
  8
0
 10
23.1156
 20
12.1803
 30
0.0
 40
0
 41
0
  0
VERTEX
  8
0
 10
23.1667
 20
12.1803
 30
0.0
 40
0
 41
0
  0
SEQEND
 8
0
  0
POLYLINE
  8
0
 62
     0
 66
     1
 10
0
 20
0
 30
0.0
 70
     1
 40
24
 41
24
  0
VERTEX
  8
0
 10
23.1667
 20
12.1803
 30
0.0
 40
0.333333
 41
0.333333
  0
VERTEX
  8
0
 10
23.2178
 20
12.1803
 30
0.0
 40
0.333333
 41
0.333333
  0
VERTEX
  8
0
 10
23.3712
 20
12.17
 30
0.0
 40
0.333333
 41
0.333333
  0
VERTEX
  8
0
 10
23.5697
 20
12.1397
 30
0.0
 40
0.333333
 41
0.333333
  0
VERTEX
  8
0
 10
23.7614
 20
12.0904
 30
0.0
 40
0.333333
 41
0.333333
  0
VERTEX
  8
0
 10
23.9451
 20
12.0231
 30
0.0
 40
0.333333
 41
0.333333
  0
VERTEX
  8
0
 10
24.12
 20
11.9389
 30
0.0
 40
0.333333
 41
0.333333
  0
VERTEX
  8
0
 10
24.2849
 20
11.8388
 30
0.0
 40
0.333333
 41
0.333333
  0
VERTEX
  8
0
 10
24.4389
 20
11.7236
 30
0.0
 40
0.333333
 41
0.333333
  0
VERTEX
  8
0
 10
24.5808
 20
11.5945
 30
0.0
 40
0.333333
 41
0.333333
  0
VERTEX
  8
0
 10
24.71
 20
11.4525
 30
0.0
 40
0.333333
 41
0.333333
  0
VERTEX
  8
0
 10
24.8251
 20
11.2985
 30
0.0
 40
0.333333
 41
0.333333
  0
VERTEX
  8
0
 10
24.9253
 20
11.1336
 30
0.0
 40
0.333333
 41
0.333333
  0
VERTEX
  8
0
 10
25.0094
 20
10.9588
 30
0.0
 40
0.333333
 41
0.333333
  0
VERTEX
  8
0
 10
25.0768
 20
10.7751
 30
0.0
 40
0.333333
 41
0.333333
  0
VERTEX
  8
0
 10
25.1261
 20
10.5834
 30
0.0
 40
0.333333
 41
0.333333
  0
VERTEX
  8
0
 10
25.1564
 20
10.3848
 30
0.0
 40
0.333333
 41
0.333333
  0
VERTEX
  8
0
 10
25.1667
 20
10.2314
 30
0.0
 40
0.333333
 41
0.333333
  0
VERTEX
  8
0
 10
25.1667
 20
10.1803
 30
0.0
 40
0.333333
 41
0.333333
  0
VERTEX
  8
0
 10
25.1667
 20
10.1292
 30
0.0
 40
0.333333
 41
0.333333
  0
VERTEX
  8
0
 10
25.1564
 20
9.97581
 30
0.0
 40
0.333333
 41
0.333333
  0
VERTEX
  8
0
 10
25.1261
 20
9.77724
 30
0.0
 40
0.333333
 41
0.333333
  0
VERTEX
  8
0
 10
25.0768
 20
9.58556
 30
0.0
 40
0.333333
 41
0.333333
  0
VERTEX
  8
0
 10
25.0094
 20
9.40181
 30
0.0
 40
0.333333
 41
0.333333
  0
VERTEX
  8
0
 10
24.9253
 20
9.227
 30
0.0
 40
0.333333
 41
0.333333
  0
VERTEX
  8
0
 10
24.8251
 20
9.06207
 30
0.0
 40
0.333333
 41
0.333333
  0
VERTEX
  8
0
 10
24.71
 20
8.9081
 30
0.0
 40
0.333333
 41
0.333333
  0
VERTEX
  8
0
 10
24.5808
 20
8.76606
 30
0.0
 40
0.333333
 41
0.333333
  0
VERTEX
  8
0
 10
24.4389
 20
8.63699
 30
0.0
 40
0.333333
 41
0.333333
  0
VERTEX
  8
0
 10
24.2849
 20
8.52186
 30
0.0
 40
0.333333
 41
0.333333
  0
VERTEX
  8
0
 10
24.12
 20
8.42171
 30
0.0
 40
0.333333
 41
0.333333
  0
VERTEX
  8
0
 10
23.9451
 20
8.33746
 30
0.0
 40
0.333333
 41
0.333333
  0
VERTEX
  8
0
 10
23.7614
 20
8.27024
 30
0.0
 40
0.333333
 41
0.333333
  0
VERTEX
  8
0
 10
23.5697
 20
8.22092
 30
0.0
 40
0.333333
 41
0.333333
  0
VERTEX
  8
0
 10
23.3712
 20
8.19065
 30
0.0
 40
0.333333
 41
0.333333
  0
VERTEX
  8
0
 10
23.2178
 20
8.18028
 30
0.0
 40
0.333333
 41
0.333333
  0
VERTEX
  8
0
 10
23.1667
 20
8.18028
 30
0.0
 40
0.333333
 41
0.333333
  0
VERTEX
  8
0
 10
23.1156
 20
8.18028
 30
0.0
 40
0.333333
 41
0.333333
  0
VERTEX
  8
0
 10
22.9622
 20
8.19065
 30
0.0
 40
0.333333
 41
0.333333
  0
VERTEX
  8
0
 10
22.7636
 20
8.22092
 30
0.0
 40
0.333333
 41
0.333333
  0
VERTEX
  8
0
 10
22.5719
 20
8.27024
 30
0.0
 40
0.333333
 41
0.333333
  0
VERTEX
  8
0
 10
22.3882
 20
8.33746
 30
0.0
 40
0.333333
 41
0.333333
  0
VERTEX
  8
0
 10
22.2133
 20
8.42171
 30
0.0
 40
0.333333
 41
0.333333
  0
VERTEX
  8
0
 10
22.0485
 20
8.52186
 30
0.0
 40
0.333333
 41
0.333333
  0
VERTEX
  8
0
 10
21.8944
 20
8.63699
 30
0.0
 40
0.333333
 41
0.333333
  0
VERTEX
  8
0
 10
21.7525
 20
8.76606
 30
0.0
 40
0.333333
 41
0.333333
  0
VERTEX
  8
0
 10
21.6233
 20
8.9081
 30
0.0
 40
0.333333
 41
0.333333
  0
VERTEX
  8
0
 10
21.5082
 20
9.06207
 30
0.0
 40
0.333333
 41
0.333333
  0
VERTEX
  8
0
 10
21.4081
 20
9.227
 30
0.0
 40
0.333333
 41
0.333333
  0
VERTEX
  8
0
 10
21.3239
 20
9.40181
 30
0.0
 40
0.333333
 41
0.333333
  0
VERTEX
  8
0
 10
21.2567
 20
9.58556
 30
0.0
 40
0.333333
 41
0.333333
  0
VERTEX
  8
0
 10
21.2074
 20
9.77724
 30
0.0
 40
0.333333
 41
0.333333
  0
VERTEX
  8
0
 10
21.1771
 20
9.97581
 30
0.0
 40
0.333333
 41
0.333333
  0
VERTEX
  8
0
 10
21.1667
 20
10.1292
 30
0.0
 40
0.333333
 41
0.333333
  0
VERTEX
  8
0
 10
21.1667
 20
10.1803
 30
0.0
 40
0.333333
 41
0.333333
  0
VERTEX
  8
0
 10
21.1667
 20
10.2314
 30
0.0
 40
0.333333
 41
0.333333
  0
VERTEX
  8
0
 10
21.1771
 20
10.3848
 30
0.0
 40
0.333333
 41
0.333333
  0
VERTEX
  8
0
 10
21.2074
 20
10.5834
 30
0.0
 40
0.333333
 41
0.333333
  0
VERTEX
  8
0
 10
21.2567
 20
10.7751
 30
0.0
 40
0.333333
 41
0.333333
  0
VERTEX
  8
0
 10
21.3239
 20
10.9588
 30
0.0
 40
0.333333
 41
0.333333
  0
VERTEX
  8
0
 10
21.4081
 20
11.1336
 30
0.0
 40
0.333333
 41
0.333333
  0
VERTEX
  8
0
 10
21.5082
 20
11.2985
 30
0.0
 40
0.333333
 41
0.333333
  0
VERTEX
  8
0
 10
21.6233
 20
11.4525
 30
0.0
 40
0.333333
 41
0.333333
  0
VERTEX
  8
0
 10
21.7525
 20
11.5945
 30
0.0
 40
0.333333
 41
0.333333
  0
VERTEX
  8
0
 10
21.8944
 20
11.7236
 30
0.0
 40
0.333333
 41
0.333333
  0
VERTEX
  8
0
 10
22.0485
 20
11.8388
 30
0.0
 40
0.333333
 41
0.333333
  0
VERTEX
  8
0
 10
22.2133
 20
11.9389
 30
0.0
 40
0.333333
 41
0.333333
  0
VERTEX
  8
0
 10
22.3882
 20
12.0231
 30
0.0
 40
0.333333
 41
0.333333
  0
VERTEX
  8
0
 10
22.5719
 20
12.0904
 30
0.0
 40
0.333333
 41
0.333333
  0
VERTEX
  8
0
 10
22.7636
 20
12.1397
 30
0.0
 40
0.333333
 41
0.333333
  0
VERTEX
  8
0
 10
22.9622
 20
12.17
 30
0.0
 40
0.333333
 41
0.333333
  0
VERTEX
  8
0
 10
23.1156
 20
12.1803
 30
0.0
 40
0.333333
 41
0.333333
  0
VERTEX
  8
0
 10
23.1667
 20
12.1803
 30
0.0
 40
0.333333
 41
0.333333
  0
SEQEND
 8
0
  0
POLYLINE
  8
0
 62
     0
 66
     1
 10
0
 20
0
 30
0.0
 70
     1
 40
0
 41
0
  0
VERTEX
  8
0
 10
78.1668
 20
12.1803
 30
0.0
 40
0
 41
0
  0
VERTEX
  8
0
 10
78.2179
 20
12.1803
 30
0.0
 40
0
 41
0
  0
VERTEX
  8
0
 10
78.3713
 20
12.17
 30
0.0
 40
0
 41
0
  0
VERTEX
  8
0
 10
78.5699
 20
12.1397
 30
0.0
 40
0
 41
0
  0
VERTEX
  8
0
 10
78.7615
 20
12.0904
 30
0.0
 40
0
 41
0
  0
VERTEX
  8
0
 10
78.9453
 20
12.0231
 30
0.0
 40
0
 41
0
  0
VERTEX
  8
0
 10
79.12
 20
11.9389
 30
0.0
 40
0
 41
0
  0
VERTEX
  8
0
 10
79.285
 20
11.8388
 30
0.0
 40
0
 41
0
  0
VERTEX
  8
0
 10
79.439
 20
11.7236
 30
0.0
 40
0
 41
0
  0
VERTEX
  8
0
 10
79.581
 20
11.5945
 30
0.0
 40
0
 41
0
  0
VERTEX
  8
0
 10
79.7101
 20
11.4525
 30
0.0
 40
0
 41
0
  0
VERTEX
  8
0
 10
79.8251
 20
11.2985
 30
0.0
 40
0
 41
0
  0
VERTEX
  8
0
 10
79.9254
 20
11.1336
 30
0.0
 40
0
 41
0
  0
VERTEX
  8
0
 10
80.0096
 20
10.9588
 30
0.0
 40
0
 41
0
  0
VERTEX
  8
0
 10
80.0768
 20
10.7751
 30
0.0
 40
0
 41
0
  0
VERTEX
  8
0
 10
80.1261
 20
10.5834
 30
0.0
 40
0
 41
0
  0
VERTEX
  8
0
 10
80.1564
 20
10.3848
 30
0.0
 40
0
 41
0
  0
VERTEX
  8
0
 10
80.1668
 20
10.2314
 30
0.0
 40
0
 41
0
  0
VERTEX
  8
0
 10
80.1668
 20
10.1803
 30
0.0
 40
0
 41
0
  0
VERTEX
  8
0
 10
80.1668
 20
10.1292
 30
0.0
 40
0
 41
0
  0
VERTEX
  8
0
 10
80.1564
 20
9.97581
 30
0.0
 40
0
 41
0
  0
VERTEX
  8
0
 10
80.1261
 20
9.77724
 30
0.0
 40
0
 41
0
  0
VERTEX
  8
0
 10
80.0768
 20
9.58556
 30
0.0
 40
0
 41
0
  0
VERTEX
  8
0
 10
80.0096
 20
9.40181
 30
0.0
 40
0
 41
0
  0
VERTEX
  8
0
 10
79.9254
 20
9.227
 30
0.0
 40
0
 41
0
  0
VERTEX
  8
0
 10
79.8251
 20
9.06207
 30
0.0
 40
0
 41
0
  0
VERTEX
  8
0
 10
79.7101
 20
8.9081
 30
0.0
 40
0
 41
0
  0
VERTEX
  8
0
 10
79.581
 20
8.76606
 30
0.0
 40
0
 41
0
  0
VERTEX
  8
0
 10
79.439
 20
8.63699
 30
0.0
 40
0
 41
0
  0
VERTEX
  8
0
 10
79.285
 20
8.52186
 30
0.0
 40
0
 41
0
  0
VERTEX
  8
0
 10
79.12
 20
8.42171
 30
0.0
 40
0
 41
0
  0
VERTEX
  8
0
 10
78.9453
 20
8.33746
 30
0.0
 40
0
 41
0
  0
VERTEX
  8
0
 10
78.7615
 20
8.27024
 30
0.0
 40
0
 41
0
  0
VERTEX
  8
0
 10
78.5699
 20
8.22092
 30
0.0
 40
0
 41
0
  0
VERTEX
  8
0
 10
78.3713
 20
8.19065
 30
0.0
 40
0
 41
0
  0
VERTEX
  8
0
 10
78.2179
 20
8.18028
 30
0.0
 40
0
 41
0
  0
VERTEX
  8
0
 10
78.1668
 20
8.18028
 30
0.0
 40
0
 41
0
  0
VERTEX
  8
0
 10
78.1156
 20
8.18028
 30
0.0
 40
0
 41
0
  0
VERTEX
  8
0
 10
77.9622
 20
8.19065
 30
0.0
 40
0
 41
0
  0
VERTEX
  8
0
 10
77.7636
 20
8.22092
 30
0.0
 40
0
 41
0
  0
VERTEX
  8
0
 10
77.5719
 20
8.27024
 30
0.0
 40
0
 41
0
  0
VERTEX
  8
0
 10
77.3883
 20
8.33746
 30
0.0
 40
0
 41
0
  0
VERTEX
  8
0
 10
77.2135
 20
8.42171
 30
0.0
 40
0
 41
0
  0
VERTEX
  8
0
 10
77.0486
 20
8.52186
 30
0.0
 40
0
 41
0
  0
VERTEX
  8
0
 10
76.8946
 20
8.63699
 30
0.0
 40
0
 41
0
  0
VERTEX
  8
0
 10
76.7525
 20
8.76606
 30
0.0
 40
0
 41
0
  0
VERTEX
  8
0
 10
76.6235
 20
8.9081
 30
0.0
 40
0
 41
0
  0
VERTEX
  8
0
 10
76.5083
 20
9.06207
 30
0.0
 40
0
 41
0
  0
VERTEX
  8
0
 10
76.4082
 20
9.227
 30
0.0
 40
0
 41
0
  0
VERTEX
  8
0
 10
76.3239
 20
9.40181
 30
0.0
 40
0
 41
0
  0
VERTEX
  8
0
 10
76.2567
 20
9.58556
 30
0.0
 40
0
 41
0
  0
VERTEX
  8
0
 10
76.2074
 20
9.77724
 30
0.0
 40
0
 41
0
  0
VERTEX
  8
0
 10
76.1771
 20
9.97581
 30
0.0
 40
0
 41
0
  0
VERTEX
  8
0
 10
76.1668
 20
10.1292
 30
0.0
 40
0
 41
0
  0
VERTEX
  8
0
 10
76.1668
 20
10.1803
 30
0.0
 40
0
 41
0
  0
VERTEX
  8
0
 10
76.1668
 20
10.2314
 30
0.0
 40
0
 41
0
  0
VERTEX
  8
0
 10
76.1771
 20
10.3848
 30
0.0
 40
0
 41
0
  0
VERTEX
  8
0
 10
76.2074
 20
10.5834
 30
0.0
 40
0
 41
0
  0
VERTEX
  8
0
 10
76.2567
 20
10.7751
 30
0.0
 40
0
 41
0
  0
VERTEX
  8
0
 10
76.3239
 20
10.9588
 30
0.0
 40
0
 41
0
  0
VERTEX
  8
0
 10
76.4082
 20
11.1336
 30
0.0
 40
0
 41
0
  0
VERTEX
  8
0
 10
76.5083
 20
11.2985
 30
0.0
 40
0
 41
0
  0
VERTEX
  8
0
 10
76.6235
 20
11.4525
 30
0.0
 40
0
 41
0
  0
VERTEX
  8
0
 10
76.7525
 20
11.5945
 30
0.0
 40
0
 41
0
  0
VERTEX
  8
0
 10
76.8946
 20
11.7236
 30
0.0
 40
0
 41
0
  0
VERTEX
  8
0
 10
77.0486
 20
11.8388
 30
0.0
 40
0
 41
0
  0
VERTEX
  8
0
 10
77.2135
 20
11.9389
 30
0.0
 40
0
 41
0
  0
VERTEX
  8
0
 10
77.3883
 20
12.0231
 30
0.0
 40
0
 41
0
  0
VERTEX
  8
0
 10
77.5719
 20
12.0904
 30
0.0
 40
0
 41
0
  0
VERTEX
  8
0
 10
77.7636
 20
12.1397
 30
0.0
 40
0
 41
0
  0
VERTEX
  8
0
 10
77.9622
 20
12.17
 30
0.0
 40
0
 41
0
  0
VERTEX
  8
0
 10
78.1156
 20
12.1803
 30
0.0
 40
0
 41
0
  0
VERTEX
  8
0
 10
78.1668
 20
12.1803
 30
0.0
 40
0
 41
0
  0
SEQEND
 8
0
  0
POLYLINE
  8
0
 62
     0
 66
     1
 10
0
 20
0
 30
0.0
 70
     1
 40
24
 41
24
  0
VERTEX
  8
0
 10
78.1668
 20
12.1803
 30
0.0
 40
0.333333
 41
0.333333
  0
VERTEX
  8
0
 10
78.2179
 20
12.1803
 30
0.0
 40
0.333333
 41
0.333333
  0
VERTEX
  8
0
 10
78.3713
 20
12.17
 30
0.0
 40
0.333333
 41
0.333333
  0
VERTEX
  8
0
 10
78.5699
 20
12.1397
 30
0.0
 40
0.333333
 41
0.333333
  0
VERTEX
  8
0
 10
78.7615
 20
12.0904
 30
0.0
 40
0.333333
 41
0.333333
  0
VERTEX
  8
0
 10
78.9453
 20
12.0231
 30
0.0
 40
0.333333
 41
0.333333
  0
VERTEX
  8
0
 10
79.12
 20
11.9389
 30
0.0
 40
0.333333
 41
0.333333
  0
VERTEX
  8
0
 10
79.285
 20
11.8388
 30
0.0
 40
0.333333
 41
0.333333
  0
VERTEX
  8
0
 10
79.439
 20
11.7236
 30
0.0
 40
0.333333
 41
0.333333
  0
VERTEX
  8
0
 10
79.581
 20
11.5945
 30
0.0
 40
0.333333
 41
0.333333
  0
VERTEX
  8
0
 10
79.7101
 20
11.4525
 30
0.0
 40
0.333333
 41
0.333333
  0
VERTEX
  8
0
 10
79.8251
 20
11.2985
 30
0.0
 40
0.333333
 41
0.333333
  0
VERTEX
  8
0
 10
79.9254
 20
11.1336
 30
0.0
 40
0.333333
 41
0.333333
  0
VERTEX
  8
0
 10
80.0096
 20
10.9588
 30
0.0
 40
0.333333
 41
0.333333
  0
VERTEX
  8
0
 10
80.0768
 20
10.7751
 30
0.0
 40
0.333333
 41
0.333333
  0
VERTEX
  8
0
 10
80.1261
 20
10.5834
 30
0.0
 40
0.333333
 41
0.333333
  0
VERTEX
  8
0
 10
80.1564
 20
10.3848
 30
0.0
 40
0.333333
 41
0.333333
  0
VERTEX
  8
0
 10
80.1668
 20
10.2314
 30
0.0
 40
0.333333
 41
0.333333
  0
VERTEX
  8
0
 10
80.1668
 20
10.1803
 30
0.0
 40
0.333333
 41
0.333333
  0
VERTEX
  8
0
 10
80.1668
 20
10.1292
 30
0.0
 40
0.333333
 41
0.333333
  0
VERTEX
  8
0
 10
80.1564
 20
9.97581
 30
0.0
 40
0.333333
 41
0.333333
  0
VERTEX
  8
0
 10
80.1261
 20
9.77724
 30
0.0
 40
0.333333
 41
0.333333
  0
VERTEX
  8
0
 10
80.0768
 20
9.58556
 30
0.0
 40
0.333333
 41
0.333333
  0
VERTEX
  8
0
 10
80.0096
 20
9.40181
 30
0.0
 40
0.333333
 41
0.333333
  0
VERTEX
  8
0
 10
79.9254
 20
9.227
 30
0.0
 40
0.333333
 41
0.333333
  0
VERTEX
  8
0
 10
79.8251
 20
9.06207
 30
0.0
 40
0.333333
 41
0.333333
  0
VERTEX
  8
0
 10
79.7101
 20
8.9081
 30
0.0
 40
0.333333
 41
0.333333
  0
VERTEX
  8
0
 10
79.581
 20
8.76606
 30
0.0
 40
0.333333
 41
0.333333
  0
VERTEX
  8
0
 10
79.439
 20
8.63699
 30
0.0
 40
0.333333
 41
0.333333
  0
VERTEX
  8
0
 10
79.285
 20
8.52186
 30
0.0
 40
0.333333
 41
0.333333
  0
VERTEX
  8
0
 10
79.12
 20
8.42171
 30
0.0
 40
0.333333
 41
0.333333
  0
VERTEX
  8
0
 10
78.9453
 20
8.33746
 30
0.0
 40
0.333333
 41
0.333333
  0
VERTEX
  8
0
 10
78.7615
 20
8.27024
 30
0.0
 40
0.333333
 41
0.333333
  0
VERTEX
  8
0
 10
78.5699
 20
8.22092
 30
0.0
 40
0.333333
 41
0.333333
  0
VERTEX
  8
0
 10
78.3713
 20
8.19065
 30
0.0
 40
0.333333
 41
0.333333
  0
VERTEX
  8
0
 10
78.2179
 20
8.18028
 30
0.0
 40
0.333333
 41
0.333333
  0
VERTEX
  8
0
 10
78.1668
 20
8.18028
 30
0.0
 40
0.333333
 41
0.333333
  0
VERTEX
  8
0
 10
78.1156
 20
8.18028
 30
0.0
 40
0.333333
 41
0.333333
  0
VERTEX
  8
0
 10
77.9622
 20
8.19065
 30
0.0
 40
0.333333
 41
0.333333
  0
VERTEX
  8
0
 10
77.7636
 20
8.22092
 30
0.0
 40
0.333333
 41
0.333333
  0
VERTEX
  8
0
 10
77.5719
 20
8.27024
 30
0.0
 40
0.333333
 41
0.333333
  0
VERTEX
  8
0
 10
77.3883
 20
8.33746
 30
0.0
 40
0.333333
 41
0.333333
  0
VERTEX
  8
0
 10
77.2135
 20
8.42171
 30
0.0
 40
0.333333
 41
0.333333
  0
VERTEX
  8
0
 10
77.0486
 20
8.52186
 30
0.0
 40
0.333333
 41
0.333333
  0
VERTEX
  8
0
 10
76.8946
 20
8.63699
 30
0.0
 40
0.333333
 41
0.333333
  0
VERTEX
  8
0
 10
76.7525
 20
8.76606
 30
0.0
 40
0.333333
 41
0.333333
  0
VERTEX
  8
0
 10
76.6235
 20
8.9081
 30
0.0
 40
0.333333
 41
0.333333
  0
VERTEX
  8
0
 10
76.5083
 20
9.06207
 30
0.0
 40
0.333333
 41
0.333333
  0
VERTEX
  8
0
 10
76.4082
 20
9.227
 30
0.0
 40
0.333333
 41
0.333333
  0
VERTEX
  8
0
 10
76.3239
 20
9.40181
 30
0.0
 40
0.333333
 41
0.333333
  0
VERTEX
  8
0
 10
76.2567
 20
9.58556
 30
0.0
 40
0.333333
 41
0.333333
  0
VERTEX
  8
0
 10
76.2074
 20
9.77724
 30
0.0
 40
0.333333
 41
0.333333
  0
VERTEX
  8
0
 10
76.1771
 20
9.97581
 30
0.0
 40
0.333333
 41
0.333333
  0
VERTEX
  8
0
 10
76.1668
 20
10.1292
 30
0.0
 40
0.333333
 41
0.333333
  0
VERTEX
  8
0
 10
76.1668
 20
10.1803
 30
0.0
 40
0.333333
 41
0.333333
  0
VERTEX
  8
0
 10
76.1668
 20
10.2314
 30
0.0
 40
0.333333
 41
0.333333
  0
VERTEX
  8
0
 10
76.1771
 20
10.3848
 30
0.0
 40
0.333333
 41
0.333333
  0
VERTEX
  8
0
 10
76.2074
 20
10.5834
 30
0.0
 40
0.333333
 41
0.333333
  0
VERTEX
  8
0
 10
76.2567
 20
10.7751
 30
0.0
 40
0.333333
 41
0.333333
  0
VERTEX
  8
0
 10
76.3239
 20
10.9588
 30
0.0
 40
0.333333
 41
0.333333
  0
VERTEX
  8
0
 10
76.4082
 20
11.1336
 30
0.0
 40
0.333333
 41
0.333333
  0
VERTEX
  8
0
 10
76.5083
 20
11.2985
 30
0.0
 40
0.333333
 41
0.333333
  0
VERTEX
  8
0
 10
76.6235
 20
11.4525
 30
0.0
 40
0.333333
 41
0.333333
  0
VERTEX
  8
0
 10
76.7525
 20
11.5945
 30
0.0
 40
0.333333
 41
0.333333
  0
VERTEX
  8
0
 10
76.8946
 20
11.7236
 30
0.0
 40
0.333333
 41
0.333333
  0
VERTEX
  8
0
 10
77.0486
 20
11.8388
 30
0.0
 40
0.333333
 41
0.333333
  0
VERTEX
  8
0
 10
77.2135
 20
11.9389
 30
0.0
 40
0.333333
 41
0.333333
  0
VERTEX
  8
0
 10
77.3883
 20
12.0231
 30
0.0
 40
0.333333
 41
0.333333
  0
VERTEX
  8
0
 10
77.5719
 20
12.0904
 30
0.0
 40
0.333333
 41
0.333333
  0
VERTEX
  8
0
 10
77.7636
 20
12.1397
 30
0.0
 40
0.333333
 41
0.333333
  0
VERTEX
  8
0
 10
77.9622
 20
12.17
 30
0.0
 40
0.333333
 41
0.333333
  0
VERTEX
  8
0
 10
78.1156
 20
12.1803
 30
0.0
 40
0.333333
 41
0.333333
  0
VERTEX
  8
0
 10
78.1668
 20
12.1803
 30
0.0
 40
0.333333
 41
0.333333
  0
SEQEND
 8
0
  0
POLYLINE
  8
0
 62
     0
 66
     1
 10
0
 20
0
 30
0.0
 70
     1
 40
0
 41
0
  0
VERTEX
  8
0
 10
69.9668
 20
57.1803
 30
0.0
 40
0
 41
0
  0
VERTEX
  8
0
 10
70.115
 20
57.1803
 30
0.0
 40
0
 41
0
  0
VERTEX
  8
0
 10
70.5597
 20
57.151
 30
0.0
 40
0
 41
0
  0
VERTEX
  8
0
 10
71.1428
 20
57.064
 30
0.0
 40
0
 41
0
  0
VERTEX
  8
0
 10
71.7118
 20
56.921
 30
0.0
 40
0
 41
0
  0
VERTEX
  8
0
 10
72.2629
 20
56.7236
 30
0.0
 40
0
 41
0
  0
VERTEX
  8
0
 10
72.7921
 20
56.4735
 30
0.0
 40
0
 41
0
  0
VERTEX
  8
0
 10
73.2956
 20
56.1722
 30
0.0
 40
0
 41
0
  0
VERTEX
  8
0
 10
73.7693
 20
55.8215
 30
0.0
 40
0
 41
0
  0
VERTEX
  8
0
 10
74.1046
 20
55.5278
 30
0.0
 40
0
 41
0
  0
VERTEX
  8
0
 10
74.2094
 20
55.4229
 30
0.0
 40
0
 41
0
  0
VERTEX
  8
0
 10
74.3143
 20
55.3182
 30
0.0
 40
0
 41
0
  0
VERTEX
  8
0
 10
74.6079
 20
54.9829
 30
0.0
 40
0
 41
0
  0
VERTEX
  8
0
 10
74.9586
 20
54.5092
 30
0.0
 40
0
 41
0
  0
VERTEX
  8
0
 10
75.2599
 20
54.0057
 30
0.0
 40
0
 41
0
  0
VERTEX
  8
0
 10
75.51
 20
53.4764
 30
0.0
 40
0
 41
0
  0
VERTEX
  8
0
 10
75.7074
 20
52.9254
 30
0.0
 40
0
 41
0
  0
VERTEX
  8
0
 10
75.8504
 20
52.3564
 30
0.0
 40
0
 41
0
  0
VERTEX
  8
0
 10
75.9374
 20
51.7733
 30
0.0
 40
0
 41
0
  0
VERTEX
  8
0
 10
75.9668
 20
51.3286
 30
0.0
 40
0
 41
0
  0
VERTEX
  8
0
 10
75.9668
 20
51.1803
 30
0.0
 40
0
 41
0
  0
VERTEX
  8
0
 10
75.9668
 20
51.0321
 30
0.0
 40
0
 41
0
  0
VERTEX
  8
0
 10
75.9374
 20
50.5874
 30
0.0
 40
0
 41
0
  0
VERTEX
  8
0
 10
75.8504
 20
50.0043
 30
0.0
 40
0
 41
0
  0
VERTEX
  8
0
 10
75.7074
 20
49.4353
 30
0.0
 40
0
 41
0
  0
VERTEX
  8
0
 10
75.51
 20
48.8842
 30
0.0
 40
0
 41
0
  0
VERTEX
  8
0
 10
75.2599
 20
48.355
 30
0.0
 40
0
 41
0
  0
VERTEX
  8
0
 10
74.9586
 20
47.8515
 30
0.0
 40
0
 41
0
  0
VERTEX
  8
0
 10
74.6079
 20
47.3778
 30
0.0
 40
0
 41
0
  0
VERTEX
  8
0
 10
74.3143
 20
47.0425
 30
0.0
 40
0
 41
0
  0
VERTEX
  8
0
 10
74.2094
 20
46.9376
 30
0.0
 40
0
 41
0
  0
VERTEX
  8
0
 10
74.1046
 20
46.8328
 30
0.0
 40
0
 41
0
  0
VERTEX
  8
0
 10
73.7693
 20
46.5392
 30
0.0
 40
0
 41
0
  0
VERTEX
  8
0
 10
73.2956
 20
46.1885
 30
0.0
 40
0
 41
0
  0
VERTEX
  8
0
 10
72.7921
 20
45.8872
 30
0.0
 40
0
 41
0
  0
VERTEX
  8
0
 10
72.2629
 20
45.6371
 30
0.0
 40
0
 41
0
  0
VERTEX
  8
0
 10
71.7118
 20
45.4397
 30
0.0
 40
0
 41
0
  0
VERTEX
  8
0
 10
71.1428
 20
45.2967
 30
0.0
 40
0
 41
0
  0
VERTEX
  8
0
 10
70.5597
 20
45.2097
 30
0.0
 40
0
 41
0
  0
VERTEX
  8
0
 10
70.115
 20
45.1803
 30
0.0
 40
0
 41
0
  0
VERTEX
  8
0
 10
69.9668
 20
45.1803
 30
0.0
 40
0
 41
0
  0
VERTEX
  8
0
 10
69.8185
 20
45.1803
 30
0.0
 40
0
 41
0
  0
VERTEX
  8
0
 10
69.3738
 20
45.2097
 30
0.0
 40
0
 41
0
  0
VERTEX
  8
0
 10
68.7907
 20
45.2967
 30
0.0
 40
0
 41
0
  0
VERTEX
  8
0
 10
68.2217
 20
45.4397
 30
0.0
 40
0
 41
0
  0
VERTEX
  8
0
 10
67.6707
 20
45.6371
 30
0.0
 40
0
 41
0
  0
VERTEX
  8
0
 10
67.1414
 20
45.8872
 30
0.0
 40
0
 41
0
  0
VERTEX
  8
0
 10
66.6379
 20
46.1885
 30
0.0
 40
0
 41
0
  0
VERTEX
  8
0
 10
66.1642
 20
46.5392
 30
0.0
 40
0
 41
0
  0
VERTEX
  8
0
 10
65.8289
 20
46.8328
 30
0.0
 40
0
 41
0
  0
VERTEX
  8
0
 10
65.7242
 20
46.9376
 30
0.0
 40
0
 41
0
  0
VERTEX
  8
0
 10
65.6193
 20
47.0425
 30
0.0
 40
0
 41
0
  0
VERTEX
  8
0
 10
65.3256
 20
47.3778
 30
0.0
 40
0
 41
0
  0
VERTEX
  8
0
 10
64.9749
 20
47.8515
 30
0.0
 40
0
 41
0
  0
VERTEX
  8
0
 10
64.6736
 20
48.355
 30
0.0
 40
0
 41
0
  0
VERTEX
  8
0
 10
64.4235
 20
48.8842
 30
0.0
 40
0
 41
0
  0
VERTEX
  8
0
 10
64.2261
 20
49.4353
 30
0.0
 40
0
 41
0
  0
VERTEX
  8
0
 10
64.0831
 20
50.0043
 30
0.0
 40
0
 41
0
  0
VERTEX
  8
0
 10
63.9961
 20
50.5874
 30
0.0
 40
0
 41
0
  0
VERTEX
  8
0
 10
63.9668
 20
51.0321
 30
0.0
 40
0
 41
0
  0
VERTEX
  8
0
 10
63.9668
 20
51.1803
 30
0.0
 40
0
 41
0
  0
VERTEX
  8
0
 10
63.9668
 20
51.3286
 30
0.0
 40
0
 41
0
  0
VERTEX
  8
0
 10
63.9961
 20
51.7733
 30
0.0
 40
0
 41
0
  0
VERTEX
  8
0
 10
64.0831
 20
52.3564
 30
0.0
 40
0
 41
0
  0
VERTEX
  8
0
 10
64.2261
 20
52.9254
 30
0.0
 40
0
 41
0
  0
VERTEX
  8
0
 10
64.4235
 20
53.4764
 30
0.0
 40
0
 41
0
  0
VERTEX
  8
0
 10
64.6736
 20
54.0057
 30
0.0
 40
0
 41
0
  0
VERTEX
  8
0
 10
64.9749
 20
54.5092
 30
0.0
 40
0
 41
0
  0
VERTEX
  8
0
 10
65.3256
 20
54.9829
 30
0.0
 40
0
 41
0
  0
VERTEX
  8
0
 10
65.6193
 20
55.3182
 30
0.0
 40
0
 41
0
  0
VERTEX
  8
0
 10
65.7242
 20
55.4229
 30
0.0
 40
0
 41
0
  0
VERTEX
  8
0
 10
65.8289
 20
55.5278
 30
0.0
 40
0
 41
0
  0
VERTEX
  8
0
 10
66.1642
 20
55.8215
 30
0.0
 40
0
 41
0
  0
VERTEX
  8
0
 10
66.6379
 20
56.1722
 30
0.0
 40
0
 41
0
  0
VERTEX
  8
0
 10
67.1414
 20
56.4735
 30
0.0
 40
0
 41
0
  0
VERTEX
  8
0
 10
67.6707
 20
56.7236
 30
0.0
 40
0
 41
0
  0
VERTEX
  8
0
 10
68.2217
 20
56.921
 30
0.0
 40
0
 41
0
  0
VERTEX
  8
0
 10
68.7907
 20
57.064
 30
0.0
 40
0
 41
0
  0
VERTEX
  8
0
 10
69.3738
 20
57.151
 30
0.0
 40
0
 41
0
  0
VERTEX
  8
0
 10
69.8185
 20
57.1803
 30
0.0
 40
0
 41
0
  0
VERTEX
  8
0
 10
69.9668
 20
57.1803
 30
0.0
 40
0
 41
0
  0
SEQEND
 8
0
  0
POLYLINE
  8
0
 62
     0
 66
     1
 10
0
 20
0
 30
0.0
 70
     1
 40
24
 41
24
  0
VERTEX
  8
0
 10
69.9668
 20
57.1803
 30
0.0
 40
0.333333
 41
0.333333
  0
VERTEX
  8
0
 10
70.115
 20
57.1803
 30
0.0
 40
0.333333
 41
0.333333
  0
VERTEX
  8
0
 10
70.5597
 20
57.151
 30
0.0
 40
0.333333
 41
0.333333
  0
VERTEX
  8
0
 10
71.1428
 20
57.064
 30
0.0
 40
0.333333
 41
0.333333
  0
VERTEX
  8
0
 10
71.7118
 20
56.921
 30
0.0
 40
0.333333
 41
0.333333
  0
VERTEX
  8
0
 10
72.2629
 20
56.7236
 30
0.0
 40
0.333333
 41
0.333333
  0
VERTEX
  8
0
 10
72.7921
 20
56.4735
 30
0.0
 40
0.333333
 41
0.333333
  0
VERTEX
  8
0
 10
73.2956
 20
56.1722
 30
0.0
 40
0.333333
 41
0.333333
  0
VERTEX
  8
0
 10
73.7693
 20
55.8215
 30
0.0
 40
0.333333
 41
0.333333
  0
VERTEX
  8
0
 10
74.1046
 20
55.5278
 30
0.0
 40
0.333333
 41
0.333333
  0
VERTEX
  8
0
 10
74.2094
 20
55.4229
 30
0.0
 40
0.333333
 41
0.333333
  0
VERTEX
  8
0
 10
74.3143
 20
55.3182
 30
0.0
 40
0.333333
 41
0.333333
  0
VERTEX
  8
0
 10
74.6079
 20
54.9829
 30
0.0
 40
0.333333
 41
0.333333
  0
VERTEX
  8
0
 10
74.9586
 20
54.5092
 30
0.0
 40
0.333333
 41
0.333333
  0
VERTEX
  8
0
 10
75.2599
 20
54.0057
 30
0.0
 40
0.333333
 41
0.333333
  0
VERTEX
  8
0
 10
75.51
 20
53.4764
 30
0.0
 40
0.333333
 41
0.333333
  0
VERTEX
  8
0
 10
75.7074
 20
52.9254
 30
0.0
 40
0.333333
 41
0.333333
  0
VERTEX
  8
0
 10
75.8504
 20
52.3564
 30
0.0
 40
0.333333
 41
0.333333
  0
VERTEX
  8
0
 10
75.9374
 20
51.7733
 30
0.0
 40
0.333333
 41
0.333333
  0
VERTEX
  8
0
 10
75.9668
 20
51.3286
 30
0.0
 40
0.333333
 41
0.333333
  0
VERTEX
  8
0
 10
75.9668
 20
51.1803
 30
0.0
 40
0.333333
 41
0.333333
  0
VERTEX
  8
0
 10
75.9668
 20
51.0321
 30
0.0
 40
0.333333
 41
0.333333
  0
VERTEX
  8
0
 10
75.9374
 20
50.5874
 30
0.0
 40
0.333333
 41
0.333333
  0
VERTEX
  8
0
 10
75.8504
 20
50.0043
 30
0.0
 40
0.333333
 41
0.333333
  0
VERTEX
  8
0
 10
75.7074
 20
49.4353
 30
0.0
 40
0.333333
 41
0.333333
  0
VERTEX
  8
0
 10
75.51
 20
48.8842
 30
0.0
 40
0.333333
 41
0.333333
  0
VERTEX
  8
0
 10
75.2599
 20
48.355
 30
0.0
 40
0.333333
 41
0.333333
  0
VERTEX
  8
0
 10
74.9586
 20
47.8515
 30
0.0
 40
0.333333
 41
0.333333
  0
VERTEX
  8
0
 10
74.6079
 20
47.3778
 30
0.0
 40
0.333333
 41
0.333333
  0
VERTEX
  8
0
 10
74.3143
 20
47.0425
 30
0.0
 40
0.333333
 41
0.333333
  0
VERTEX
  8
0
 10
74.2094
 20
46.9376
 30
0.0
 40
0.333333
 41
0.333333
  0
VERTEX
  8
0
 10
74.1046
 20
46.8328
 30
0.0
 40
0.333333
 41
0.333333
  0
VERTEX
  8
0
 10
73.7693
 20
46.5392
 30
0.0
 40
0.333333
 41
0.333333
  0
VERTEX
  8
0
 10
73.2956
 20
46.1885
 30
0.0
 40
0.333333
 41
0.333333
  0
VERTEX
  8
0
 10
72.7921
 20
45.8872
 30
0.0
 40
0.333333
 41
0.333333
  0
VERTEX
  8
0
 10
72.2629
 20
45.6371
 30
0.0
 40
0.333333
 41
0.333333
  0
VERTEX
  8
0
 10
71.7118
 20
45.4397
 30
0.0
 40
0.333333
 41
0.333333
  0
VERTEX
  8
0
 10
71.1428
 20
45.2967
 30
0.0
 40
0.333333
 41
0.333333
  0
VERTEX
  8
0
 10
70.5597
 20
45.2097
 30
0.0
 40
0.333333
 41
0.333333
  0
VERTEX
  8
0
 10
70.115
 20
45.1803
 30
0.0
 40
0.333333
 41
0.333333
  0
VERTEX
  8
0
 10
69.9668
 20
45.1803
 30
0.0
 40
0.333333
 41
0.333333
  0
VERTEX
  8
0
 10
69.8185
 20
45.1803
 30
0.0
 40
0.333333
 41
0.333333
  0
VERTEX
  8
0
 10
69.3738
 20
45.2097
 30
0.0
 40
0.333333
 41
0.333333
  0
VERTEX
  8
0
 10
68.7907
 20
45.2967
 30
0.0
 40
0.333333
 41
0.333333
  0
VERTEX
  8
0
 10
68.2217
 20
45.4397
 30
0.0
 40
0.333333
 41
0.333333
  0
VERTEX
  8
0
 10
67.6707
 20
45.6371
 30
0.0
 40
0.333333
 41
0.333333
  0
VERTEX
  8
0
 10
67.1414
 20
45.8872
 30
0.0
 40
0.333333
 41
0.333333
  0
VERTEX
  8
0
 10
66.6379
 20
46.1885
 30
0.0
 40
0.333333
 41
0.333333
  0
VERTEX
  8
0
 10
66.1642
 20
46.5392
 30
0.0
 40
0.333333
 41
0.333333
  0
VERTEX
  8
0
 10
65.8289
 20
46.8328
 30
0.0
 40
0.333333
 41
0.333333
  0
VERTEX
  8
0
 10
65.7242
 20
46.9376
 30
0.0
 40
0.333333
 41
0.333333
  0
VERTEX
  8
0
 10
65.6193
 20
47.0425
 30
0.0
 40
0.333333
 41
0.333333
  0
VERTEX
  8
0
 10
65.3256
 20
47.3778
 30
0.0
 40
0.333333
 41
0.333333
  0
VERTEX
  8
0
 10
64.9749
 20
47.8515
 30
0.0
 40
0.333333
 41
0.333333
  0
VERTEX
  8
0
 10
64.6736
 20
48.355
 30
0.0
 40
0.333333
 41
0.333333
  0
VERTEX
  8
0
 10
64.4235
 20
48.8842
 30
0.0
 40
0.333333
 41
0.333333
  0
VERTEX
  8
0
 10
64.2261
 20
49.4353
 30
0.0
 40
0.333333
 41
0.333333
  0
VERTEX
  8
0
 10
64.0831
 20
50.0043
 30
0.0
 40
0.333333
 41
0.333333
  0
VERTEX
  8
0
 10
63.9961
 20
50.5874
 30
0.0
 40
0.333333
 41
0.333333
  0
VERTEX
  8
0
 10
63.9668
 20
51.0321
 30
0.0
 40
0.333333
 41
0.333333
  0
VERTEX
  8
0
 10
63.9668
 20
51.1803
 30
0.0
 40
0.333333
 41
0.333333
  0
VERTEX
  8
0
 10
63.9668
 20
51.3286
 30
0.0
 40
0.333333
 41
0.333333
  0
VERTEX
  8
0
 10
63.9961
 20
51.7733
 30
0.0
 40
0.333333
 41
0.333333
  0
VERTEX
  8
0
 10
64.0831
 20
52.3564
 30
0.0
 40
0.333333
 41
0.333333
  0
VERTEX
  8
0
 10
64.2261
 20
52.9254
 30
0.0
 40
0.333333
 41
0.333333
  0
VERTEX
  8
0
 10
64.4235
 20
53.4764
 30
0.0
 40
0.333333
 41
0.333333
  0
VERTEX
  8
0
 10
64.6736
 20
54.0057
 30
0.0
 40
0.333333
 41
0.333333
  0
VERTEX
  8
0
 10
64.9749
 20
54.5092
 30
0.0
 40
0.333333
 41
0.333333
  0
VERTEX
  8
0
 10
65.3256
 20
54.9829
 30
0.0
 40
0.333333
 41
0.333333
  0
VERTEX
  8
0
 10
65.6193
 20
55.3182
 30
0.0
 40
0.333333
 41
0.333333
  0
VERTEX
  8
0
 10
65.7242
 20
55.4229
 30
0.0
 40
0.333333
 41
0.333333
  0
VERTEX
  8
0
 10
65.8289
 20
55.5278
 30
0.0
 40
0.333333
 41
0.333333
  0
VERTEX
  8
0
 10
66.1642
 20
55.8215
 30
0.0
 40
0.333333
 41
0.333333
  0
VERTEX
  8
0
 10
66.6379
 20
56.1722
 30
0.0
 40
0.333333
 41
0.333333
  0
VERTEX
  8
0
 10
67.1414
 20
56.4735
 30
0.0
 40
0.333333
 41
0.333333
  0
VERTEX
  8
0
 10
67.6707
 20
56.7236
 30
0.0
 40
0.333333
 41
0.333333
  0
VERTEX
  8
0
 10
68.2217
 20
56.921
 30
0.0
 40
0.333333
 41
0.333333
  0
VERTEX
  8
0
 10
68.7907
 20
57.064
 30
0.0
 40
0.333333
 41
0.333333
  0
VERTEX
  8
0
 10
69.3738
 20
57.151
 30
0.0
 40
0.333333
 41
0.333333
  0
VERTEX
  8
0
 10
69.8185
 20
57.1803
 30
0.0
 40
0.333333
 41
0.333333
  0
VERTEX
  8
0
 10
69.9668
 20
57.1803
 30
0.0
 40
0.333333
 41
0.333333
  0
SEQEND
 8
0
  0
POLYLINE
  8
0
 62
     0
 66
     1
 10
0
 20
0
 30
0.0
 70
     1
 40
0
 41
0
  0
VERTEX
  8
0
 10
45.6667
 20
6.68024
 30
0.0
 40
0
 41
0
  0
VERTEX
  8
0
 10
45.705
 20
6.68024
 30
0.0
 40
0
 41
0
  0
VERTEX
  8
0
 10
45.82
 20
6.67253
 30
0.0
 40
0
 41
0
  0
VERTEX
  8
0
 10
45.969
 20
6.64979
 30
0.0
 40
0
 41
0
  0
VERTEX
  8
0
 10
46.1128
 20
6.61285
 30
0.0
 40
0
 41
0
  0
VERTEX
  8
0
 10
46.2506
 20
6.56239
 30
0.0
 40
0
 41
0
  0
VERTEX
  8
0
 10
46.3817
 20
6.49924
 30
0.0
 40
0
 41
0
  0
VERTEX
  8
0
 10
46.5054
 20
6.4241
 30
0.0
 40
0
 41
0
  0
VERTEX
  8
0
 10
46.6208
 20
6.33772
 30
0.0
 40
0
 41
0
  0
VERTEX
  8
0
 10
46.7274
 20
6.24094
 30
0.0
 40
0
 41
0
  0
VERTEX
  8
0
 10
46.8242
 20
6.13439
 30
0.0
 40
0
 41
0
  0
VERTEX
  8
0
 10
46.9106
 20
6.01893
 30
0.0
 40
0
 41
0
  0
VERTEX
  8
0
 10
46.9857
 20
5.89524
 30
0.0
 40
0
 41
0
  0
VERTEX
  8
0
 10
47.0489
 20
5.76417
 30
0.0
 40
0
 41
0
  0
VERTEX
  8
0
 10
47.0993
 20
5.62631
 30
0.0
 40
0
 41
0
  0
VERTEX
  8
0
 10
47.1363
 20
5.48258
 30
0.0
 40
0
 41
0
  0
VERTEX
  8
0
 10
47.159
 20
5.33361
 30
0.0
 40
0
 41
0
  0
VERTEX
  8
0
 10
47.1667
 20
5.21858
 30
0.0
 40
0
 41
0
  0
VERTEX
  8
0
 10
47.1667
 20
5.18024
 30
0.0
 40
0
 41
0
  0
VERTEX
  8
0
 10
47.1667
 20
5.14193
 30
0.0
 40
0
 41
0
  0
VERTEX
  8
0
 10
47.159
 20
5.02692
 30
0.0
 40
0
 41
0
  0
VERTEX
  8
0
 10
47.1363
 20
4.87799
 30
0.0
 40
0
 41
0
  0
VERTEX
  8
0
 10
47.0993
 20
4.73421
 30
0.0
 40
0
 41
0
  0
VERTEX
  8
0
 10
47.0489
 20
4.5964
 30
0.0
 40
0
 41
0
  0
VERTEX
  8
0
 10
46.9857
 20
4.46528
 30
0.0
 40
0
 41
0
  0
VERTEX
  8
0
 10
46.9106
 20
4.34158
 30
0.0
 40
0
 41
0
  0
VERTEX
  8
0
 10
46.8242
 20
4.22613
 30
0.0
 40
0
 41
0
  0
VERTEX
  8
0
 10
46.7274
 20
4.11963
 30
0.0
 40
0
 41
0
  0
VERTEX
  8
0
 10
46.6208
 20
4.02279
 30
0.0
 40
0
 41
0
  0
VERTEX
  8
0
 10
46.5054
 20
3.93642
 30
0.0
 40
0
 41
0
  0
VERTEX
  8
0
 10
46.3817
 20
3.86133
 30
0.0
 40
0
 41
0
  0
VERTEX
  8
0
 10
46.2506
 20
3.79812
 30
0.0
 40
0
 41
0
  0
VERTEX
  8
0
 10
46.1128
 20
3.74772
 30
0.0
 40
0
 41
0
  0
VERTEX
  8
0
 10
45.969
 20
3.71072
 30
0.0
 40
0
 41
0
  0
VERTEX
  8
0
 10
45.82
 20
3.68799
 30
0.0
 40
0
 41
0
  0
VERTEX
  8
0
 10
45.705
 20
3.68024
 30
0.0
 40
0
 41
0
  0
VERTEX
  8
0
 10
45.6667
 20
3.68024
 30
0.0
 40
0
 41
0
  0
VERTEX
  8
0
 10
45.6283
 20
3.68024
 30
0.0
 40
0
 41
0
  0
VERTEX
  8
0
 10
45.5133
 20
3.68799
 30
0.0
 40
0
 41
0
  0
VERTEX
  8
0
 10
45.3644
 20
3.71072
 30
0.0
 40
0
 41
0
  0
VERTEX
  8
0
 10
45.2207
 20
3.74772
 30
0.0
 40
0
 41
0
  0
VERTEX
  8
0
 10
45.0828
 20
3.79812
 30
0.0
 40
0
 41
0
  0
VERTEX
  8
0
 10
44.9517
 20
3.86133
 30
0.0
 40
0
 41
0
  0
VERTEX
  8
0
 10
44.8281
 20
3.93642
 30
0.0
 40
0
 41
0
  0
VERTEX
  8
0
 10
44.7125
 20
4.02279
 30
0.0
 40
0
 41
0
  0
VERTEX
  8
0
 10
44.6061
 20
4.11963
 30
0.0
 40
0
 41
0
  0
VERTEX
  8
0
 10
44.5092
 20
4.22613
 30
0.0
 40
0
 41
0
  0
VERTEX
  8
0
 10
44.4229
 20
4.34158
 30
0.0
 40
0
 41
0
  0
VERTEX
  8
0
 10
44.3478
 20
4.46528
 30
0.0
 40
0
 41
0
  0
VERTEX
  8
0
 10
44.2846
 20
4.5964
 30
0.0
 40
0
 41
0
  0
VERTEX
  8
0
 10
44.2342
 20
4.73421
 30
0.0
 40
0
 41
0
  0
VERTEX
  8
0
 10
44.1972
 20
4.87799
 30
0.0
 40
0
 41
0
  0
VERTEX
  8
0
 10
44.1744
 20
5.02692
 30
0.0
 40
0
 41
0
  0
VERTEX
  8
0
 10
44.1667
 20
5.14193
 30
0.0
 40
0
 41
0
  0
VERTEX
  8
0
 10
44.1667
 20
5.18024
 30
0.0
 40
0
 41
0
  0
VERTEX
  8
0
 10
44.1667
 20
5.21858
 30
0.0
 40
0
 41
0
  0
VERTEX
  8
0
 10
44.1744
 20
5.33361
 30
0.0
 40
0
 41
0
  0
VERTEX
  8
0
 10
44.1972
 20
5.48258
 30
0.0
 40
0
 41
0
  0
VERTEX
  8
0
 10
44.2342
 20
5.62631
 30
0.0
 40
0
 41
0
  0
VERTEX
  8
0
 10
44.2846
 20
5.76417
 30
0.0
 40
0
 41
0
  0
VERTEX
  8
0
 10
44.3478
 20
5.89524
 30
0.0
 40
0
 41
0
  0
VERTEX
  8
0
 10
44.4229
 20
6.01893
 30
0.0
 40
0
 41
0
  0
VERTEX
  8
0
 10
44.5092
 20
6.13439
 30
0.0
 40
0
 41
0
  0
VERTEX
  8
0
 10
44.6061
 20
6.24094
 30
0.0
 40
0
 41
0
  0
VERTEX
  8
0
 10
44.7125
 20
6.33772
 30
0.0
 40
0
 41
0
  0
VERTEX
  8
0
 10
44.8281
 20
6.4241
 30
0.0
 40
0
 41
0
  0
VERTEX
  8
0
 10
44.9517
 20
6.49924
 30
0.0
 40
0
 41
0
  0
VERTEX
  8
0
 10
45.0828
 20
6.56239
 30
0.0
 40
0
 41
0
  0
VERTEX
  8
0
 10
45.2207
 20
6.61285
 30
0.0
 40
0
 41
0
  0
VERTEX
  8
0
 10
45.3644
 20
6.64979
 30
0.0
 40
0
 41
0
  0
VERTEX
  8
0
 10
45.5133
 20
6.67253
 30
0.0
 40
0
 41
0
  0
VERTEX
  8
0
 10
45.6283
 20
6.68024
 30
0.0
 40
0
 41
0
  0
VERTEX
  8
0
 10
45.6667
 20
6.68024
 30
0.0
 40
0
 41
0
  0
SEQEND
 8
0
  0
POLYLINE
  8
0
 62
     0
 66
     1
 10
0
 20
0
 30
0.0
 70
     1
 40
24
 41
24
  0
VERTEX
  8
0
 10
45.6667
 20
6.68024
 30
0.0
 40
0.333333
 41
0.333333
  0
VERTEX
  8
0
 10
45.705
 20
6.68024
 30
0.0
 40
0.333333
 41
0.333333
  0
VERTEX
  8
0
 10
45.82
 20
6.67253
 30
0.0
 40
0.333333
 41
0.333333
  0
VERTEX
  8
0
 10
45.969
 20
6.64979
 30
0.0
 40
0.333333
 41
0.333333
  0
VERTEX
  8
0
 10
46.1128
 20
6.61285
 30
0.0
 40
0.333333
 41
0.333333
  0
VERTEX
  8
0
 10
46.2506
 20
6.56239
 30
0.0
 40
0.333333
 41
0.333333
  0
VERTEX
  8
0
 10
46.3817
 20
6.49924
 30
0.0
 40
0.333333
 41
0.333333
  0
VERTEX
  8
0
 10
46.5054
 20
6.4241
 30
0.0
 40
0.333333
 41
0.333333
  0
VERTEX
  8
0
 10
46.6208
 20
6.33772
 30
0.0
 40
0.333333
 41
0.333333
  0
VERTEX
  8
0
 10
46.7274
 20
6.24094
 30
0.0
 40
0.333333
 41
0.333333
  0
VERTEX
  8
0
 10
46.8242
 20
6.13439
 30
0.0
 40
0.333333
 41
0.333333
  0
VERTEX
  8
0
 10
46.9106
 20
6.01893
 30
0.0
 40
0.333333
 41
0.333333
  0
VERTEX
  8
0
 10
46.9857
 20
5.89524
 30
0.0
 40
0.333333
 41
0.333333
  0
VERTEX
  8
0
 10
47.0489
 20
5.76417
 30
0.0
 40
0.333333
 41
0.333333
  0
VERTEX
  8
0
 10
47.0993
 20
5.62631
 30
0.0
 40
0.333333
 41
0.333333
  0
VERTEX
  8
0
 10
47.1363
 20
5.48258
 30
0.0
 40
0.333333
 41
0.333333
  0
VERTEX
  8
0
 10
47.159
 20
5.33361
 30
0.0
 40
0.333333
 41
0.333333
  0
VERTEX
  8
0
 10
47.1667
 20
5.21858
 30
0.0
 40
0.333333
 41
0.333333
  0
VERTEX
  8
0
 10
47.1667
 20
5.18024
 30
0.0
 40
0.333333
 41
0.333333
  0
VERTEX
  8
0
 10
47.1667
 20
5.14193
 30
0.0
 40
0.333333
 41
0.333333
  0
VERTEX
  8
0
 10
47.159
 20
5.02692
 30
0.0
 40
0.333333
 41
0.333333
  0
VERTEX
  8
0
 10
47.1363
 20
4.87799
 30
0.0
 40
0.333333
 41
0.333333
  0
VERTEX
  8
0
 10
47.0993
 20
4.73421
 30
0.0
 40
0.333333
 41
0.333333
  0
VERTEX
  8
0
 10
47.0489
 20
4.5964
 30
0.0
 40
0.333333
 41
0.333333
  0
VERTEX
  8
0
 10
46.9857
 20
4.46528
 30
0.0
 40
0.333333
 41
0.333333
  0
VERTEX
  8
0
 10
46.9106
 20
4.34158
 30
0.0
 40
0.333333
 41
0.333333
  0
VERTEX
  8
0
 10
46.8242
 20
4.22613
 30
0.0
 40
0.333333
 41
0.333333
  0
VERTEX
  8
0
 10
46.7274
 20
4.11963
 30
0.0
 40
0.333333
 41
0.333333
  0
VERTEX
  8
0
 10
46.6208
 20
4.02279
 30
0.0
 40
0.333333
 41
0.333333
  0
VERTEX
  8
0
 10
46.5054
 20
3.93642
 30
0.0
 40
0.333333
 41
0.333333
  0
VERTEX
  8
0
 10
46.3817
 20
3.86133
 30
0.0
 40
0.333333
 41
0.333333
  0
VERTEX
  8
0
 10
46.2506
 20
3.79812
 30
0.0
 40
0.333333
 41
0.333333
  0
VERTEX
  8
0
 10
46.1128
 20
3.74772
 30
0.0
 40
0.333333
 41
0.333333
  0
VERTEX
  8
0
 10
45.969
 20
3.71072
 30
0.0
 40
0.333333
 41
0.333333
  0
VERTEX
  8
0
 10
45.82
 20
3.68799
 30
0.0
 40
0.333333
 41
0.333333
  0
VERTEX
  8
0
 10
45.705
 20
3.68024
 30
0.0
 40
0.333333
 41
0.333333
  0
VERTEX
  8
0
 10
45.6667
 20
3.68024
 30
0.0
 40
0.333333
 41
0.333333
  0
VERTEX
  8
0
 10
45.6283
 20
3.68024
 30
0.0
 40
0.333333
 41
0.333333
  0
VERTEX
  8
0
 10
45.5133
 20
3.68799
 30
0.0
 40
0.333333
 41
0.333333
  0
VERTEX
  8
0
 10
45.3644
 20
3.71072
 30
0.0
 40
0.333333
 41
0.333333
  0
VERTEX
  8
0
 10
45.2207
 20
3.74772
 30
0.0
 40
0.333333
 41
0.333333
  0
VERTEX
  8
0
 10
45.0828
 20
3.79812
 30
0.0
 40
0.333333
 41
0.333333
  0
VERTEX
  8
0
 10
44.9517
 20
3.86133
 30
0.0
 40
0.333333
 41
0.333333
  0
VERTEX
  8
0
 10
44.8281
 20
3.93642
 30
0.0
 40
0.333333
 41
0.333333
  0
VERTEX
  8
0
 10
44.7125
 20
4.02279
 30
0.0
 40
0.333333
 41
0.333333
  0
VERTEX
  8
0
 10
44.6061
 20
4.11963
 30
0.0
 40
0.333333
 41
0.333333
  0
VERTEX
  8
0
 10
44.5092
 20
4.22613
 30
0.0
 40
0.333333
 41
0.333333
  0
VERTEX
  8
0
 10
44.4229
 20
4.34158
 30
0.0
 40
0.333333
 41
0.333333
  0
VERTEX
  8
0
 10
44.3478
 20
4.46528
 30
0.0
 40
0.333333
 41
0.333333
  0
VERTEX
  8
0
 10
44.2846
 20
4.5964
 30
0.0
 40
0.333333
 41
0.333333
  0
VERTEX
  8
0
 10
44.2342
 20
4.73421
 30
0.0
 40
0.333333
 41
0.333333
  0
VERTEX
  8
0
 10
44.1972
 20
4.87799
 30
0.0
 40
0.333333
 41
0.333333
  0
VERTEX
  8
0
 10
44.1744
 20
5.02692
 30
0.0
 40
0.333333
 41
0.333333
  0
VERTEX
  8
0
 10
44.1667
 20
5.14193
 30
0.0
 40
0.333333
 41
0.333333
  0
VERTEX
  8
0
 10
44.1667
 20
5.18024
 30
0.0
 40
0.333333
 41
0.333333
  0
VERTEX
  8
0
 10
44.1667
 20
5.21858
 30
0.0
 40
0.333333
 41
0.333333
  0
VERTEX
  8
0
 10
44.1744
 20
5.33361
 30
0.0
 40
0.333333
 41
0.333333
  0
VERTEX
  8
0
 10
44.1972
 20
5.48258
 30
0.0
 40
0.333333
 41
0.333333
  0
VERTEX
  8
0
 10
44.2342
 20
5.62631
 30
0.0
 40
0.333333
 41
0.333333
  0
VERTEX
  8
0
 10
44.2846
 20
5.76417
 30
0.0
 40
0.333333
 41
0.333333
  0
VERTEX
  8
0
 10
44.3478
 20
5.89524
 30
0.0
 40
0.333333
 41
0.333333
  0
VERTEX
  8
0
 10
44.4229
 20
6.01893
 30
0.0
 40
0.333333
 41
0.333333
  0
VERTEX
  8
0
 10
44.5092
 20
6.13439
 30
0.0
 40
0.333333
 41
0.333333
  0
VERTEX
  8
0
 10
44.6061
 20
6.24094
 30
0.0
 40
0.333333
 41
0.333333
  0
VERTEX
  8
0
 10
44.7125
 20
6.33772
 30
0.0
 40
0.333333
 41
0.333333
  0
VERTEX
  8
0
 10
44.8281
 20
6.4241
 30
0.0
 40
0.333333
 41
0.333333
  0
VERTEX
  8
0
 10
44.9517
 20
6.49924
 30
0.0
 40
0.333333
 41
0.333333
  0
VERTEX
  8
0
 10
45.0828
 20
6.56239
 30
0.0
 40
0.333333
 41
0.333333
  0
VERTEX
  8
0
 10
45.2207
 20
6.61285
 30
0.0
 40
0.333333
 41
0.333333
  0
VERTEX
  8
0
 10
45.3644
 20
6.64979
 30
0.0
 40
0.333333
 41
0.333333
  0
VERTEX
  8
0
 10
45.5133
 20
6.67253
 30
0.0
 40
0.333333
 41
0.333333
  0
VERTEX
  8
0
 10
45.6283
 20
6.68024
 30
0.0
 40
0.333333
 41
0.333333
  0
VERTEX
  8
0
 10
45.6667
 20
6.68024
 30
0.0
 40
0.333333
 41
0.333333
  0
SEQEND
 8
0
  0
POLYLINE
  8
0
 62
     0
 66
     1
 10
0
 20
0
 30
0.0
 70
     1
 40
0
 41
0
  0
VERTEX
  8
0
 10
71.6668
 20
6.68024
 30
0.0
 40
0
 41
0
  0
VERTEX
  8
0
 10
71.7051
 20
6.68024
 30
0.0
 40
0
 41
0
  0
VERTEX
  8
0
 10
71.8201
 20
6.67253
 30
0.0
 40
0
 41
0
  0
VERTEX
  8
0
 10
71.969
 20
6.64979
 30
0.0
 40
0
 41
0
  0
VERTEX
  8
0
 10
72.1128
 20
6.61285
 30
0.0
 40
0
 41
0
  0
VERTEX
  8
0
 10
72.2507
 20
6.56239
 30
0.0
 40
0
 41
0
  0
VERTEX
  8
0
 10
72.3817
 20
6.49924
 30
0.0
 40
0
 41
0
  0
VERTEX
  8
0
 10
72.5054
 20
6.4241
 30
0.0
 40
0
 41
0
  0
VERTEX
  8
0
 10
72.6208
 20
6.33772
 30
0.0
 40
0
 41
0
  0
VERTEX
  8
0
 10
72.7275
 20
6.24094
 30
0.0
 40
0
 41
0
  0
VERTEX
  8
0
 10
72.8242
 20
6.13439
 30
0.0
 40
0
 41
0
  0
VERTEX
  8
0
 10
72.9106
 20
6.01893
 30
0.0
 40
0
 41
0
  0
VERTEX
  8
0
 10
72.9857
 20
5.89524
 30
0.0
 40
0
 41
0
  0
VERTEX
  8
0
 10
73.0489
 20
5.76417
 30
0.0
 40
0
 41
0
  0
VERTEX
  8
0
 10
73.0993
 20
5.62631
 30
0.0
 40
0
 41
0
  0
VERTEX
  8
0
 10
73.1363
 20
5.48258
 30
0.0
 40
0
 41
0
  0
VERTEX
  8
0
 10
73.159
 20
5.33361
 30
0.0
 40
0
 41
0
  0
VERTEX
  8
0
 10
73.1668
 20
5.21858
 30
0.0
 40
0
 41
0
  0
VERTEX
  8
0
 10
73.1668
 20
5.18024
 30
0.0
 40
0
 41
0
  0
VERTEX
  8
0
 10
73.1668
 20
5.14193
 30
0.0
 40
0
 41
0
  0
VERTEX
  8
0
 10
73.159
 20
5.02692
 30
0.0
 40
0
 41
0
  0
VERTEX
  8
0
 10
73.1363
 20
4.87799
 30
0.0
 40
0
 41
0
  0
VERTEX
  8
0
 10
73.0993
 20
4.73421
 30
0.0
 40
0
 41
0
  0
VERTEX
  8
0
 10
73.0489
 20
4.5964
 30
0.0
 40
0
 41
0
  0
VERTEX
  8
0
 10
72.9857
 20
4.46528
 30
0.0
 40
0
 41
0
  0
VERTEX
  8
0
 10
72.9106
 20
4.34158
 30
0.0
 40
0
 41
0
  0
VERTEX
  8
0
 10
72.8242
 20
4.22613
 30
0.0
 40
0
 41
0
  0
VERTEX
  8
0
 10
72.7275
 20
4.11963
 30
0.0
 40
0
 41
0
  0
VERTEX
  8
0
 10
72.6208
 20
4.02279
 30
0.0
 40
0
 41
0
  0
VERTEX
  8
0
 10
72.5054
 20
3.93642
 30
0.0
 40
0
 41
0
  0
VERTEX
  8
0
 10
72.3817
 20
3.86133
 30
0.0
 40
0
 41
0
  0
VERTEX
  8
0
 10
72.2507
 20
3.79812
 30
0.0
 40
0
 41
0
  0
VERTEX
  8
0
 10
72.1128
 20
3.74772
 30
0.0
 40
0
 41
0
  0
VERTEX
  8
0
 10
71.969
 20
3.71072
 30
0.0
 40
0
 41
0
  0
VERTEX
  8
0
 10
71.8201
 20
3.68799
 30
0.0
 40
0
 41
0
  0
VERTEX
  8
0
 10
71.7051
 20
3.68024
 30
0.0
 40
0
 41
0
  0
VERTEX
  8
0
 10
71.6668
 20
3.68024
 30
0.0
 40
0
 41
0
  0
VERTEX
  8
0
 10
71.6285
 20
3.68024
 30
0.0
 40
0
 41
0
  0
VERTEX
  8
0
 10
71.5133
 20
3.68799
 30
0.0
 40
0
 41
0
  0
VERTEX
  8
0
 10
71.3644
 20
3.71072
 30
0.0
 40
0
 41
0
  0
VERTEX
  8
0
 10
71.2207
 20
3.74772
 30
0.0
 40
0
 41
0
  0
VERTEX
  8
0
 10
71.0828
 20
3.79812
 30
0.0
 40
0
 41
0
  0
VERTEX
  8
0
 10
70.9518
 20
3.86133
 30
0.0
 40
0
 41
0
  0
VERTEX
  8
0
 10
70.8281
 20
3.93642
 30
0.0
 40
0
 41
0
  0
VERTEX
  8
0
 10
70.7126
 20
4.02279
 30
0.0
 40
0
 41
0
  0
VERTEX
  8
0
 10
70.6061
 20
4.11963
 30
0.0
 40
0
 41
0
  0
VERTEX
  8
0
 10
70.5093
 20
4.22613
 30
0.0
 40
0
 41
0
  0
VERTEX
  8
0
 10
70.4229
 20
4.34158
 30
0.0
 40
0
 41
0
  0
VERTEX
  8
0
 10
70.3478
 20
4.46528
 30
0.0
 40
0
 41
0
  0
VERTEX
  8
0
 10
70.2846
 20
4.5964
 30
0.0
 40
0
 41
0
  0
VERTEX
  8
0
 10
70.2342
 20
4.73421
 30
0.0
 40
0
 41
0
  0
VERTEX
  8
0
 10
70.1972
 20
4.87799
 30
0.0
 40
0
 41
0
  0
VERTEX
  8
0
 10
70.1744
 20
5.02692
 30
0.0
 40
0
 41
0
  0
VERTEX
  8
0
 10
70.1668
 20
5.14193
 30
0.0
 40
0
 41
0
  0
VERTEX
  8
0
 10
70.1668
 20
5.18024
 30
0.0
 40
0
 41
0
  0
VERTEX
  8
0
 10
70.1668
 20
5.21858
 30
0.0
 40
0
 41
0
  0
VERTEX
  8
0
 10
70.1744
 20
5.33361
 30
0.0
 40
0
 41
0
  0
VERTEX
  8
0
 10
70.1972
 20
5.48258
 30
0.0
 40
0
 41
0
  0
VERTEX
  8
0
 10
70.2342
 20
5.62631
 30
0.0
 40
0
 41
0
  0
VERTEX
  8
0
 10
70.2846
 20
5.76417
 30
0.0
 40
0
 41
0
  0
VERTEX
  8
0
 10
70.3478
 20
5.89524
 30
0.0
 40
0
 41
0
  0
VERTEX
  8
0
 10
70.4229
 20
6.01893
 30
0.0
 40
0
 41
0
  0
VERTEX
  8
0
 10
70.5093
 20
6.13439
 30
0.0
 40
0
 41
0
  0
VERTEX
  8
0
 10
70.6061
 20
6.24094
 30
0.0
 40
0
 41
0
  0
VERTEX
  8
0
 10
70.7126
 20
6.33772
 30
0.0
 40
0
 41
0
  0
VERTEX
  8
0
 10
70.8281
 20
6.4241
 30
0.0
 40
0
 41
0
  0
VERTEX
  8
0
 10
70.9518
 20
6.49924
 30
0.0
 40
0
 41
0
  0
VERTEX
  8
0
 10
71.0828
 20
6.56239
 30
0.0
 40
0
 41
0
  0
VERTEX
  8
0
 10
71.2207
 20
6.61285
 30
0.0
 40
0
 41
0
  0
VERTEX
  8
0
 10
71.3644
 20
6.64979
 30
0.0
 40
0
 41
0
  0
VERTEX
  8
0
 10
71.5133
 20
6.67253
 30
0.0
 40
0
 41
0
  0
VERTEX
  8
0
 10
71.6285
 20
6.68024
 30
0.0
 40
0
 41
0
  0
VERTEX
  8
0
 10
71.6668
 20
6.68024
 30
0.0
 40
0
 41
0
  0
SEQEND
 8
0
  0
POLYLINE
  8
0
 62
     0
 66
     1
 10
0
 20
0
 30
0.0
 70
     1
 40
24
 41
24
  0
VERTEX
  8
0
 10
71.6668
 20
6.68024
 30
0.0
 40
0.333333
 41
0.333333
  0
VERTEX
  8
0
 10
71.7051
 20
6.68024
 30
0.0
 40
0.333333
 41
0.333333
  0
VERTEX
  8
0
 10
71.8201
 20
6.67253
 30
0.0
 40
0.333333
 41
0.333333
  0
VERTEX
  8
0
 10
71.969
 20
6.64979
 30
0.0
 40
0.333333
 41
0.333333
  0
VERTEX
  8
0
 10
72.1128
 20
6.61285
 30
0.0
 40
0.333333
 41
0.333333
  0
VERTEX
  8
0
 10
72.2507
 20
6.56239
 30
0.0
 40
0.333333
 41
0.333333
  0
VERTEX
  8
0
 10
72.3817
 20
6.49924
 30
0.0
 40
0.333333
 41
0.333333
  0
VERTEX
  8
0
 10
72.5054
 20
6.4241
 30
0.0
 40
0.333333
 41
0.333333
  0
VERTEX
  8
0
 10
72.6208
 20
6.33772
 30
0.0
 40
0.333333
 41
0.333333
  0
VERTEX
  8
0
 10
72.7275
 20
6.24094
 30
0.0
 40
0.333333
 41
0.333333
  0
VERTEX
  8
0
 10
72.8242
 20
6.13439
 30
0.0
 40
0.333333
 41
0.333333
  0
VERTEX
  8
0
 10
72.9106
 20
6.01893
 30
0.0
 40
0.333333
 41
0.333333
  0
VERTEX
  8
0
 10
72.9857
 20
5.89524
 30
0.0
 40
0.333333
 41
0.333333
  0
VERTEX
  8
0
 10
73.0489
 20
5.76417
 30
0.0
 40
0.333333
 41
0.333333
  0
VERTEX
  8
0
 10
73.0993
 20
5.62631
 30
0.0
 40
0.333333
 41
0.333333
  0
VERTEX
  8
0
 10
73.1363
 20
5.48258
 30
0.0
 40
0.333333
 41
0.333333
  0
VERTEX
  8
0
 10
73.159
 20
5.33361
 30
0.0
 40
0.333333
 41
0.333333
  0
VERTEX
  8
0
 10
73.1668
 20
5.21858
 30
0.0
 40
0.333333
 41
0.333333
  0
VERTEX
  8
0
 10
73.1668
 20
5.18024
 30
0.0
 40
0.333333
 41
0.333333
  0
VERTEX
  8
0
 10
73.1668
 20
5.14193
 30
0.0
 40
0.333333
 41
0.333333
  0
VERTEX
  8
0
 10
73.159
 20
5.02692
 30
0.0
 40
0.333333
 41
0.333333
  0
VERTEX
  8
0
 10
73.1363
 20
4.87799
 30
0.0
 40
0.333333
 41
0.333333
  0
VERTEX
  8
0
 10
73.0993
 20
4.73421
 30
0.0
 40
0.333333
 41
0.333333
  0
VERTEX
  8
0
 10
73.0489
 20
4.5964
 30
0.0
 40
0.333333
 41
0.333333
  0
VERTEX
  8
0
 10
72.9857
 20
4.46528
 30
0.0
 40
0.333333
 41
0.333333
  0
VERTEX
  8
0
 10
72.9106
 20
4.34158
 30
0.0
 40
0.333333
 41
0.333333
  0
VERTEX
  8
0
 10
72.8242
 20
4.22613
 30
0.0
 40
0.333333
 41
0.333333
  0
VERTEX
  8
0
 10
72.7275
 20
4.11963
 30
0.0
 40
0.333333
 41
0.333333
  0
VERTEX
  8
0
 10
72.6208
 20
4.02279
 30
0.0
 40
0.333333
 41
0.333333
  0
VERTEX
  8
0
 10
72.5054
 20
3.93642
 30
0.0
 40
0.333333
 41
0.333333
  0
VERTEX
  8
0
 10
72.3817
 20
3.86133
 30
0.0
 40
0.333333
 41
0.333333
  0
VERTEX
  8
0
 10
72.2507
 20
3.79812
 30
0.0
 40
0.333333
 41
0.333333
  0
VERTEX
  8
0
 10
72.1128
 20
3.74772
 30
0.0
 40
0.333333
 41
0.333333
  0
VERTEX
  8
0
 10
71.969
 20
3.71072
 30
0.0
 40
0.333333
 41
0.333333
  0
VERTEX
  8
0
 10
71.8201
 20
3.68799
 30
0.0
 40
0.333333
 41
0.333333
  0
VERTEX
  8
0
 10
71.7051
 20
3.68024
 30
0.0
 40
0.333333
 41
0.333333
  0
VERTEX
  8
0
 10
71.6668
 20
3.68024
 30
0.0
 40
0.333333
 41
0.333333
  0
VERTEX
  8
0
 10
71.6285
 20
3.68024
 30
0.0
 40
0.333333
 41
0.333333
  0
VERTEX
  8
0
 10
71.5133
 20
3.68799
 30
0.0
 40
0.333333
 41
0.333333
  0
VERTEX
  8
0
 10
71.3644
 20
3.71072
 30
0.0
 40
0.333333
 41
0.333333
  0
VERTEX
  8
0
 10
71.2207
 20
3.74772
 30
0.0
 40
0.333333
 41
0.333333
  0
VERTEX
  8
0
 10
71.0828
 20
3.79812
 30
0.0
 40
0.333333
 41
0.333333
  0
VERTEX
  8
0
 10
70.9518
 20
3.86133
 30
0.0
 40
0.333333
 41
0.333333
  0
VERTEX
  8
0
 10
70.8281
 20
3.93642
 30
0.0
 40
0.333333
 41
0.333333
  0
VERTEX
  8
0
 10
70.7126
 20
4.02279
 30
0.0
 40
0.333333
 41
0.333333
  0
VERTEX
  8
0
 10
70.6061
 20
4.11963
 30
0.0
 40
0.333333
 41
0.333333
  0
VERTEX
  8
0
 10
70.5093
 20
4.22613
 30
0.0
 40
0.333333
 41
0.333333
  0
VERTEX
  8
0
 10
70.4229
 20
4.34158
 30
0.0
 40
0.333333
 41
0.333333
  0
VERTEX
  8
0
 10
70.3478
 20
4.46528
 30
0.0
 40
0.333333
 41
0.333333
  0
VERTEX
  8
0
 10
70.2846
 20
4.5964
 30
0.0
 40
0.333333
 41
0.333333
  0
VERTEX
  8
0
 10
70.2342
 20
4.73421
 30
0.0
 40
0.333333
 41
0.333333
  0
VERTEX
  8
0
 10
70.1972
 20
4.87799
 30
0.0
 40
0.333333
 41
0.333333
  0
VERTEX
  8
0
 10
70.1744
 20
5.02692
 30
0.0
 40
0.333333
 41
0.333333
  0
VERTEX
  8
0
 10
70.1668
 20
5.14193
 30
0.0
 40
0.333333
 41
0.333333
  0
VERTEX
  8
0
 10
70.1668
 20
5.18024
 30
0.0
 40
0.333333
 41
0.333333
  0
VERTEX
  8
0
 10
70.1668
 20
5.21858
 30
0.0
 40
0.333333
 41
0.333333
  0
VERTEX
  8
0
 10
70.1744
 20
5.33361
 30
0.0
 40
0.333333
 41
0.333333
  0
VERTEX
  8
0
 10
70.1972
 20
5.48258
 30
0.0
 40
0.333333
 41
0.333333
  0
VERTEX
  8
0
 10
70.2342
 20
5.62631
 30
0.0
 40
0.333333
 41
0.333333
  0
VERTEX
  8
0
 10
70.2846
 20
5.76417
 30
0.0
 40
0.333333
 41
0.333333
  0
VERTEX
  8
0
 10
70.3478
 20
5.89524
 30
0.0
 40
0.333333
 41
0.333333
  0
VERTEX
  8
0
 10
70.4229
 20
6.01893
 30
0.0
 40
0.333333
 41
0.333333
  0
VERTEX
  8
0
 10
70.5093
 20
6.13439
 30
0.0
 40
0.333333
 41
0.333333
  0
VERTEX
  8
0
 10
70.6061
 20
6.24094
 30
0.0
 40
0.333333
 41
0.333333
  0
VERTEX
  8
0
 10
70.7126
 20
6.33772
 30
0.0
 40
0.333333
 41
0.333333
  0
VERTEX
  8
0
 10
70.8281
 20
6.4241
 30
0.0
 40
0.333333
 41
0.333333
  0
VERTEX
  8
0
 10
70.9518
 20
6.49924
 30
0.0
 40
0.333333
 41
0.333333
  0
VERTEX
  8
0
 10
71.0828
 20
6.56239
 30
0.0
 40
0.333333
 41
0.333333
  0
VERTEX
  8
0
 10
71.2207
 20
6.61285
 30
0.0
 40
0.333333
 41
0.333333
  0
VERTEX
  8
0
 10
71.3644
 20
6.64979
 30
0.0
 40
0.333333
 41
0.333333
  0
VERTEX
  8
0
 10
71.5133
 20
6.67253
 30
0.0
 40
0.333333
 41
0.333333
  0
VERTEX
  8
0
 10
71.6285
 20
6.68024
 30
0.0
 40
0.333333
 41
0.333333
  0
VERTEX
  8
0
 10
71.6668
 20
6.68024
 30
0.0
 40
0.333333
 41
0.333333
  0
SEQEND
 8
0
  0
POLYLINE
  8
0
 62
     0
 66
     1
 10
0
 20
0
 30
0.0
 70
     1
 40
0
 41
0
  0
VERTEX
  8
0
 10
55.6668
 20
6.68024
 30
0.0
 40
0
 41
0
  0
VERTEX
  8
0
 10
55.7051
 20
6.68024
 30
0.0
 40
0
 41
0
  0
VERTEX
  8
0
 10
55.8201
 20
6.67253
 30
0.0
 40
0
 41
0
  0
VERTEX
  8
0
 10
55.969
 20
6.64979
 30
0.0
 40
0
 41
0
  0
VERTEX
  8
0
 10
56.1128
 20
6.61285
 30
0.0
 40
0
 41
0
  0
VERTEX
  8
0
 10
56.2506
 20
6.56239
 30
0.0
 40
0
 41
0
  0
VERTEX
  8
0
 10
56.3817
 20
6.49924
 30
0.0
 40
0
 41
0
  0
VERTEX
  8
0
 10
56.5054
 20
6.4241
 30
0.0
 40
0
 41
0
  0
VERTEX
  8
0
 10
56.6208
 20
6.33772
 30
0.0
 40
0
 41
0
  0
VERTEX
  8
0
 10
56.7274
 20
6.24094
 30
0.0
 40
0
 41
0
  0
VERTEX
  8
0
 10
56.8242
 20
6.13439
 30
0.0
 40
0
 41
0
  0
VERTEX
  8
0
 10
56.9106
 20
6.01893
 30
0.0
 40
0
 41
0
  0
VERTEX
  8
0
 10
56.9857
 20
5.89524
 30
0.0
 40
0
 41
0
  0
VERTEX
  8
0
 10
57.0489
 20
5.76417
 30
0.0
 40
0
 41
0
  0
VERTEX
  8
0
 10
57.0993
 20
5.62631
 30
0.0
 40
0
 41
0
  0
VERTEX
  8
0
 10
57.1363
 20
5.48258
 30
0.0
 40
0
 41
0
  0
VERTEX
  8
0
 10
57.159
 20
5.33361
 30
0.0
 40
0
 41
0
  0
VERTEX
  8
0
 10
57.1668
 20
5.21858
 30
0.0
 40
0
 41
0
  0
VERTEX
  8
0
 10
57.1668
 20
5.18024
 30
0.0
 40
0
 41
0
  0
VERTEX
  8
0
 10
57.1668
 20
5.14193
 30
0.0
 40
0
 41
0
  0
VERTEX
  8
0
 10
57.159
 20
5.02692
 30
0.0
 40
0
 41
0
  0
VERTEX
  8
0
 10
57.1363
 20
4.87799
 30
0.0
 40
0
 41
0
  0
VERTEX
  8
0
 10
57.0993
 20
4.73421
 30
0.0
 40
0
 41
0
  0
VERTEX
  8
0
 10
57.0489
 20
4.5964
 30
0.0
 40
0
 41
0
  0
VERTEX
  8
0
 10
56.9857
 20
4.46528
 30
0.0
 40
0
 41
0
  0
VERTEX
  8
0
 10
56.9106
 20
4.34158
 30
0.0
 40
0
 41
0
  0
VERTEX
  8
0
 10
56.8242
 20
4.22613
 30
0.0
 40
0
 41
0
  0
VERTEX
  8
0
 10
56.7274
 20
4.11963
 30
0.0
 40
0
 41
0
  0
VERTEX
  8
0
 10
56.6208
 20
4.02279
 30
0.0
 40
0
 41
0
  0
VERTEX
  8
0
 10
56.5054
 20
3.93642
 30
0.0
 40
0
 41
0
  0
VERTEX
  8
0
 10
56.3817
 20
3.86133
 30
0.0
 40
0
 41
0
  0
VERTEX
  8
0
 10
56.2506
 20
3.79812
 30
0.0
 40
0
 41
0
  0
VERTEX
  8
0
 10
56.1128
 20
3.74772
 30
0.0
 40
0
 41
0
  0
VERTEX
  8
0
 10
55.969
 20
3.71072
 30
0.0
 40
0
 41
0
  0
VERTEX
  8
0
 10
55.8201
 20
3.68799
 30
0.0
 40
0
 41
0
  0
VERTEX
  8
0
 10
55.7051
 20
3.68024
 30
0.0
 40
0
 41
0
  0
VERTEX
  8
0
 10
55.6668
 20
3.68024
 30
0.0
 40
0
 41
0
  0
VERTEX
  8
0
 10
55.6285
 20
3.68024
 30
0.0
 40
0
 41
0
  0
VERTEX
  8
0
 10
55.5133
 20
3.68799
 30
0.0
 40
0
 41
0
  0
VERTEX
  8
0
 10
55.3644
 20
3.71072
 30
0.0
 40
0
 41
0
  0
VERTEX
  8
0
 10
55.2207
 20
3.74772
 30
0.0
 40
0
 41
0
  0
VERTEX
  8
0
 10
55.0828
 20
3.79812
 30
0.0
 40
0
 41
0
  0
VERTEX
  8
0
 10
54.9518
 20
3.86133
 30
0.0
 40
0
 41
0
  0
VERTEX
  8
0
 10
54.8281
 20
3.93642
 30
0.0
 40
0
 41
0
  0
VERTEX
  8
0
 10
54.7126
 20
4.02279
 30
0.0
 40
0
 41
0
  0
VERTEX
  8
0
 10
54.6061
 20
4.11963
 30
0.0
 40
0
 41
0
  0
VERTEX
  8
0
 10
54.5093
 20
4.22613
 30
0.0
 40
0
 41
0
  0
VERTEX
  8
0
 10
54.4229
 20
4.34158
 30
0.0
 40
0
 41
0
  0
VERTEX
  8
0
 10
54.3478
 20
4.46528
 30
0.0
 40
0
 41
0
  0
VERTEX
  8
0
 10
54.2846
 20
4.5964
 30
0.0
 40
0
 41
0
  0
VERTEX
  8
0
 10
54.2342
 20
4.73421
 30
0.0
 40
0
 41
0
  0
VERTEX
  8
0
 10
54.1972
 20
4.87799
 30
0.0
 40
0
 41
0
  0
VERTEX
  8
0
 10
54.1744
 20
5.02692
 30
0.0
 40
0
 41
0
  0
VERTEX
  8
0
 10
54.1668
 20
5.14193
 30
0.0
 40
0
 41
0
  0
VERTEX
  8
0
 10
54.1668
 20
5.18024
 30
0.0
 40
0
 41
0
  0
VERTEX
  8
0
 10
54.1668
 20
5.21858
 30
0.0
 40
0
 41
0
  0
VERTEX
  8
0
 10
54.1744
 20
5.33361
 30
0.0
 40
0
 41
0
  0
VERTEX
  8
0
 10
54.1972
 20
5.48258
 30
0.0
 40
0
 41
0
  0
VERTEX
  8
0
 10
54.2342
 20
5.62631
 30
0.0
 40
0
 41
0
  0
VERTEX
  8
0
 10
54.2846
 20
5.76417
 30
0.0
 40
0
 41
0
  0
VERTEX
  8
0
 10
54.3478
 20
5.89524
 30
0.0
 40
0
 41
0
  0
VERTEX
  8
0
 10
54.4229
 20
6.01893
 30
0.0
 40
0
 41
0
  0
VERTEX
  8
0
 10
54.5093
 20
6.13439
 30
0.0
 40
0
 41
0
  0
VERTEX
  8
0
 10
54.6061
 20
6.24094
 30
0.0
 40
0
 41
0
  0
VERTEX
  8
0
 10
54.7126
 20
6.33772
 30
0.0
 40
0
 41
0
  0
VERTEX
  8
0
 10
54.8281
 20
6.4241
 30
0.0
 40
0
 41
0
  0
VERTEX
  8
0
 10
54.9518
 20
6.49924
 30
0.0
 40
0
 41
0
  0
VERTEX
  8
0
 10
55.0828
 20
6.56239
 30
0.0
 40
0
 41
0
  0
VERTEX
  8
0
 10
55.2207
 20
6.61285
 30
0.0
 40
0
 41
0
  0
VERTEX
  8
0
 10
55.3644
 20
6.64979
 30
0.0
 40
0
 41
0
  0
VERTEX
  8
0
 10
55.5133
 20
6.67253
 30
0.0
 40
0
 41
0
  0
VERTEX
  8
0
 10
55.6285
 20
6.68024
 30
0.0
 40
0
 41
0
  0
VERTEX
  8
0
 10
55.6668
 20
6.68024
 30
0.0
 40
0
 41
0
  0
SEQEND
 8
0
  0
POLYLINE
  8
0
 62
     0
 66
     1
 10
0
 20
0
 30
0.0
 70
     1
 40
24
 41
24
  0
VERTEX
  8
0
 10
55.6668
 20
6.68024
 30
0.0
 40
0.333333
 41
0.333333
  0
VERTEX
  8
0
 10
55.7051
 20
6.68024
 30
0.0
 40
0.333333
 41
0.333333
  0
VERTEX
  8
0
 10
55.8201
 20
6.67253
 30
0.0
 40
0.333333
 41
0.333333
  0
VERTEX
  8
0
 10
55.969
 20
6.64979
 30
0.0
 40
0.333333
 41
0.333333
  0
VERTEX
  8
0
 10
56.1128
 20
6.61285
 30
0.0
 40
0.333333
 41
0.333333
  0
VERTEX
  8
0
 10
56.2506
 20
6.56239
 30
0.0
 40
0.333333
 41
0.333333
  0
VERTEX
  8
0
 10
56.3817
 20
6.49924
 30
0.0
 40
0.333333
 41
0.333333
  0
VERTEX
  8
0
 10
56.5054
 20
6.4241
 30
0.0
 40
0.333333
 41
0.333333
  0
VERTEX
  8
0
 10
56.6208
 20
6.33772
 30
0.0
 40
0.333333
 41
0.333333
  0
VERTEX
  8
0
 10
56.7274
 20
6.24094
 30
0.0
 40
0.333333
 41
0.333333
  0
VERTEX
  8
0
 10
56.8242
 20
6.13439
 30
0.0
 40
0.333333
 41
0.333333
  0
VERTEX
  8
0
 10
56.9106
 20
6.01893
 30
0.0
 40
0.333333
 41
0.333333
  0
VERTEX
  8
0
 10
56.9857
 20
5.89524
 30
0.0
 40
0.333333
 41
0.333333
  0
VERTEX
  8
0
 10
57.0489
 20
5.76417
 30
0.0
 40
0.333333
 41
0.333333
  0
VERTEX
  8
0
 10
57.0993
 20
5.62631
 30
0.0
 40
0.333333
 41
0.333333
  0
VERTEX
  8
0
 10
57.1363
 20
5.48258
 30
0.0
 40
0.333333
 41
0.333333
  0
VERTEX
  8
0
 10
57.159
 20
5.33361
 30
0.0
 40
0.333333
 41
0.333333
  0
VERTEX
  8
0
 10
57.1668
 20
5.21858
 30
0.0
 40
0.333333
 41
0.333333
  0
VERTEX
  8
0
 10
57.1668
 20
5.18024
 30
0.0
 40
0.333333
 41
0.333333
  0
VERTEX
  8
0
 10
57.1668
 20
5.14193
 30
0.0
 40
0.333333
 41
0.333333
  0
VERTEX
  8
0
 10
57.159
 20
5.02692
 30
0.0
 40
0.333333
 41
0.333333
  0
VERTEX
  8
0
 10
57.1363
 20
4.87799
 30
0.0
 40
0.333333
 41
0.333333
  0
VERTEX
  8
0
 10
57.0993
 20
4.73421
 30
0.0
 40
0.333333
 41
0.333333
  0
VERTEX
  8
0
 10
57.0489
 20
4.5964
 30
0.0
 40
0.333333
 41
0.333333
  0
VERTEX
  8
0
 10
56.9857
 20
4.46528
 30
0.0
 40
0.333333
 41
0.333333
  0
VERTEX
  8
0
 10
56.9106
 20
4.34158
 30
0.0
 40
0.333333
 41
0.333333
  0
VERTEX
  8
0
 10
56.8242
 20
4.22613
 30
0.0
 40
0.333333
 41
0.333333
  0
VERTEX
  8
0
 10
56.7274
 20
4.11963
 30
0.0
 40
0.333333
 41
0.333333
  0
VERTEX
  8
0
 10
56.6208
 20
4.02279
 30
0.0
 40
0.333333
 41
0.333333
  0
VERTEX
  8
0
 10
56.5054
 20
3.93642
 30
0.0
 40
0.333333
 41
0.333333
  0
VERTEX
  8
0
 10
56.3817
 20
3.86133
 30
0.0
 40
0.333333
 41
0.333333
  0
VERTEX
  8
0
 10
56.2506
 20
3.79812
 30
0.0
 40
0.333333
 41
0.333333
  0
VERTEX
  8
0
 10
56.1128
 20
3.74772
 30
0.0
 40
0.333333
 41
0.333333
  0
VERTEX
  8
0
 10
55.969
 20
3.71072
 30
0.0
 40
0.333333
 41
0.333333
  0
VERTEX
  8
0
 10
55.8201
 20
3.68799
 30
0.0
 40
0.333333
 41
0.333333
  0
VERTEX
  8
0
 10
55.7051
 20
3.68024
 30
0.0
 40
0.333333
 41
0.333333
  0
VERTEX
  8
0
 10
55.6668
 20
3.68024
 30
0.0
 40
0.333333
 41
0.333333
  0
VERTEX
  8
0
 10
55.6285
 20
3.68024
 30
0.0
 40
0.333333
 41
0.333333
  0
VERTEX
  8
0
 10
55.5133
 20
3.68799
 30
0.0
 40
0.333333
 41
0.333333
  0
VERTEX
  8
0
 10
55.3644
 20
3.71072
 30
0.0
 40
0.333333
 41
0.333333
  0
VERTEX
  8
0
 10
55.2207
 20
3.74772
 30
0.0
 40
0.333333
 41
0.333333
  0
VERTEX
  8
0
 10
55.0828
 20
3.79812
 30
0.0
 40
0.333333
 41
0.333333
  0
VERTEX
  8
0
 10
54.9518
 20
3.86133
 30
0.0
 40
0.333333
 41
0.333333
  0
VERTEX
  8
0
 10
54.8281
 20
3.93642
 30
0.0
 40
0.333333
 41
0.333333
  0
VERTEX
  8
0
 10
54.7126
 20
4.02279
 30
0.0
 40
0.333333
 41
0.333333
  0
VERTEX
  8
0
 10
54.6061
 20
4.11963
 30
0.0
 40
0.333333
 41
0.333333
  0
VERTEX
  8
0
 10
54.5093
 20
4.22613
 30
0.0
 40
0.333333
 41
0.333333
  0
VERTEX
  8
0
 10
54.4229
 20
4.34158
 30
0.0
 40
0.333333
 41
0.333333
  0
VERTEX
  8
0
 10
54.3478
 20
4.46528
 30
0.0
 40
0.333333
 41
0.333333
  0
VERTEX
  8
0
 10
54.2846
 20
4.5964
 30
0.0
 40
0.333333
 41
0.333333
  0
VERTEX
  8
0
 10
54.2342
 20
4.73421
 30
0.0
 40
0.333333
 41
0.333333
  0
VERTEX
  8
0
 10
54.1972
 20
4.87799
 30
0.0
 40
0.333333
 41
0.333333
  0
VERTEX
  8
0
 10
54.1744
 20
5.02692
 30
0.0
 40
0.333333
 41
0.333333
  0
VERTEX
  8
0
 10
54.1668
 20
5.14193
 30
0.0
 40
0.333333
 41
0.333333
  0
VERTEX
  8
0
 10
54.1668
 20
5.18024
 30
0.0
 40
0.333333
 41
0.333333
  0
VERTEX
  8
0
 10
54.1668
 20
5.21858
 30
0.0
 40
0.333333
 41
0.333333
  0
VERTEX
  8
0
 10
54.1744
 20
5.33361
 30
0.0
 40
0.333333
 41
0.333333
  0
VERTEX
  8
0
 10
54.1972
 20
5.48258
 30
0.0
 40
0.333333
 41
0.333333
  0
VERTEX
  8
0
 10
54.2342
 20
5.62631
 30
0.0
 40
0.333333
 41
0.333333
  0
VERTEX
  8
0
 10
54.2846
 20
5.76417
 30
0.0
 40
0.333333
 41
0.333333
  0
VERTEX
  8
0
 10
54.3478
 20
5.89524
 30
0.0
 40
0.333333
 41
0.333333
  0
VERTEX
  8
0
 10
54.4229
 20
6.01893
 30
0.0
 40
0.333333
 41
0.333333
  0
VERTEX
  8
0
 10
54.5093
 20
6.13439
 30
0.0
 40
0.333333
 41
0.333333
  0
VERTEX
  8
0
 10
54.6061
 20
6.24094
 30
0.0
 40
0.333333
 41
0.333333
  0
VERTEX
  8
0
 10
54.7126
 20
6.33772
 30
0.0
 40
0.333333
 41
0.333333
  0
VERTEX
  8
0
 10
54.8281
 20
6.4241
 30
0.0
 40
0.333333
 41
0.333333
  0
VERTEX
  8
0
 10
54.9518
 20
6.49924
 30
0.0
 40
0.333333
 41
0.333333
  0
VERTEX
  8
0
 10
55.0828
 20
6.56239
 30
0.0
 40
0.333333
 41
0.333333
  0
VERTEX
  8
0
 10
55.2207
 20
6.61285
 30
0.0
 40
0.333333
 41
0.333333
  0
VERTEX
  8
0
 10
55.3644
 20
6.64979
 30
0.0
 40
0.333333
 41
0.333333
  0
VERTEX
  8
0
 10
55.5133
 20
6.67253
 30
0.0
 40
0.333333
 41
0.333333
  0
VERTEX
  8
0
 10
55.6285
 20
6.68024
 30
0.0
 40
0.333333
 41
0.333333
  0
VERTEX
  8
0
 10
55.6668
 20
6.68024
 30
0.0
 40
0.333333
 41
0.333333
  0
SEQEND
 8
0
  0
POLYLINE
  8
0
 62
     0
 66
     1
 10
0
 20
0
 30
0.0
 70
     1
 40
0
 41
0
  0
VERTEX
  8
0
 10
29.6667
 20
6.68024
 30
0.0
 40
0
 41
0
  0
VERTEX
  8
0
 10
29.705
 20
6.68024
 30
0.0
 40
0
 41
0
  0
VERTEX
  8
0
 10
29.82
 20
6.67253
 30
0.0
 40
0
 41
0
  0
VERTEX
  8
0
 10
29.969
 20
6.64979
 30
0.0
 40
0
 41
0
  0
VERTEX
  8
0
 10
30.1128
 20
6.61285
 30
0.0
 40
0
 41
0
  0
VERTEX
  8
0
 10
30.2506
 20
6.56239
 30
0.0
 40
0
 41
0
  0
VERTEX
  8
0
 10
30.3817
 20
6.49924
 30
0.0
 40
0
 41
0
  0
VERTEX
  8
0
 10
30.5054
 20
6.4241
 30
0.0
 40
0
 41
0
  0
VERTEX
  8
0
 10
30.6208
 20
6.33772
 30
0.0
 40
0
 41
0
  0
VERTEX
  8
0
 10
30.7274
 20
6.24094
 30
0.0
 40
0
 41
0
  0
VERTEX
  8
0
 10
30.8242
 20
6.13439
 30
0.0
 40
0
 41
0
  0
VERTEX
  8
0
 10
30.9106
 20
6.01893
 30
0.0
 40
0
 41
0
  0
VERTEX
  8
0
 10
30.9856
 20
5.89524
 30
0.0
 40
0
 41
0
  0
VERTEX
  8
0
 10
31.0489
 20
5.76417
 30
0.0
 40
0
 41
0
  0
VERTEX
  8
0
 10
31.0992
 20
5.62631
 30
0.0
 40
0
 41
0
  0
VERTEX
  8
0
 10
31.1363
 20
5.48258
 30
0.0
 40
0
 41
0
  0
VERTEX
  8
0
 10
31.159
 20
5.33361
 30
0.0
 40
0
 41
0
  0
VERTEX
  8
0
 10
31.1667
 20
5.21858
 30
0.0
 40
0
 41
0
  0
VERTEX
  8
0
 10
31.1667
 20
5.18024
 30
0.0
 40
0
 41
0
  0
VERTEX
  8
0
 10
31.1667
 20
5.14193
 30
0.0
 40
0
 41
0
  0
VERTEX
  8
0
 10
31.159
 20
5.02692
 30
0.0
 40
0
 41
0
  0
VERTEX
  8
0
 10
31.1363
 20
4.87799
 30
0.0
 40
0
 41
0
  0
VERTEX
  8
0
 10
31.0992
 20
4.73421
 30
0.0
 40
0
 41
0
  0
VERTEX
  8
0
 10
31.0489
 20
4.5964
 30
0.0
 40
0
 41
0
  0
VERTEX
  8
0
 10
30.9856
 20
4.46528
 30
0.0
 40
0
 41
0
  0
VERTEX
  8
0
 10
30.9106
 20
4.34158
 30
0.0
 40
0
 41
0
  0
VERTEX
  8
0
 10
30.8242
 20
4.22613
 30
0.0
 40
0
 41
0
  0
VERTEX
  8
0
 10
30.7274
 20
4.11963
 30
0.0
 40
0
 41
0
  0
VERTEX
  8
0
 10
30.6208
 20
4.02279
 30
0.0
 40
0
 41
0
  0
VERTEX
  8
0
 10
30.5054
 20
3.93642
 30
0.0
 40
0
 41
0
  0
VERTEX
  8
0
 10
30.3817
 20
3.86133
 30
0.0
 40
0
 41
0
  0
VERTEX
  8
0
 10
30.2506
 20
3.79812
 30
0.0
 40
0
 41
0
  0
VERTEX
  8
0
 10
30.1128
 20
3.74772
 30
0.0
 40
0
 41
0
  0
VERTEX
  8
0
 10
29.969
 20
3.71072
 30
0.0
 40
0
 41
0
  0
VERTEX
  8
0
 10
29.82
 20
3.68799
 30
0.0
 40
0
 41
0
  0
VERTEX
  8
0
 10
29.705
 20
3.68024
 30
0.0
 40
0
 41
0
  0
VERTEX
  8
0
 10
29.6667
 20
3.68024
 30
0.0
 40
0
 41
0
  0
VERTEX
  8
0
 10
29.6283
 20
3.68024
 30
0.0
 40
0
 41
0
  0
VERTEX
  8
0
 10
29.5133
 20
3.68799
 30
0.0
 40
0
 41
0
  0
VERTEX
  8
0
 10
29.3643
 20
3.71072
 30
0.0
 40
0
 41
0
  0
VERTEX
  8
0
 10
29.2207
 20
3.74772
 30
0.0
 40
0
 41
0
  0
VERTEX
  8
0
 10
29.0828
 20
3.79812
 30
0.0
 40
0
 41
0
  0
VERTEX
  8
0
 10
28.9517
 20
3.86133
 30
0.0
 40
0
 41
0
  0
VERTEX
  8
0
 10
28.8281
 20
3.93642
 30
0.0
 40
0
 41
0
  0
VERTEX
  8
0
 10
28.7125
 20
4.02279
 30
0.0
 40
0
 41
0
  0
VERTEX
  8
0
 10
28.606
 20
4.11963
 30
0.0
 40
0
 41
0
  0
VERTEX
  8
0
 10
28.5092
 20
4.22613
 30
0.0
 40
0
 41
0
  0
VERTEX
  8
0
 10
28.4229
 20
4.34158
 30
0.0
 40
0
 41
0
  0
VERTEX
  8
0
 10
28.3478
 20
4.46528
 30
0.0
 40
0
 41
0
  0
VERTEX
  8
0
 10
28.2846
 20
4.5964
 30
0.0
 40
0
 41
0
  0
VERTEX
  8
0
 10
28.2342
 20
4.73421
 30
0.0
 40
0
 41
0
  0
VERTEX
  8
0
 10
28.1972
 20
4.87799
 30
0.0
 40
0
 41
0
  0
VERTEX
  8
0
 10
28.1744
 20
5.02692
 30
0.0
 40
0
 41
0
  0
VERTEX
  8
0
 10
28.1667
 20
5.14193
 30
0.0
 40
0
 41
0
  0
VERTEX
  8
0
 10
28.1667
 20
5.18024
 30
0.0
 40
0
 41
0
  0
VERTEX
  8
0
 10
28.1667
 20
5.21858
 30
0.0
 40
0
 41
0
  0
VERTEX
  8
0
 10
28.1744
 20
5.33361
 30
0.0
 40
0
 41
0
  0
VERTEX
  8
0
 10
28.1972
 20
5.48258
 30
0.0
 40
0
 41
0
  0
VERTEX
  8
0
 10
28.2342
 20
5.62631
 30
0.0
 40
0
 41
0
  0
VERTEX
  8
0
 10
28.2846
 20
5.76417
 30
0.0
 40
0
 41
0
  0
VERTEX
  8
0
 10
28.3478
 20
5.89524
 30
0.0
 40
0
 41
0
  0
VERTEX
  8
0
 10
28.4229
 20
6.01893
 30
0.0
 40
0
 41
0
  0
VERTEX
  8
0
 10
28.5092
 20
6.13439
 30
0.0
 40
0
 41
0
  0
VERTEX
  8
0
 10
28.606
 20
6.24094
 30
0.0
 40
0
 41
0
  0
VERTEX
  8
0
 10
28.7125
 20
6.33772
 30
0.0
 40
0
 41
0
  0
VERTEX
  8
0
 10
28.8281
 20
6.4241
 30
0.0
 40
0
 41
0
  0
VERTEX
  8
0
 10
28.9517
 20
6.49924
 30
0.0
 40
0
 41
0
  0
VERTEX
  8
0
 10
29.0828
 20
6.56239
 30
0.0
 40
0
 41
0
  0
VERTEX
  8
0
 10
29.2207
 20
6.61285
 30
0.0
 40
0
 41
0
  0
VERTEX
  8
0
 10
29.3643
 20
6.64979
 30
0.0
 40
0
 41
0
  0
VERTEX
  8
0
 10
29.5133
 20
6.67253
 30
0.0
 40
0
 41
0
  0
VERTEX
  8
0
 10
29.6283
 20
6.68024
 30
0.0
 40
0
 41
0
  0
VERTEX
  8
0
 10
29.6667
 20
6.68024
 30
0.0
 40
0
 41
0
  0
SEQEND
 8
0
  0
POLYLINE
  8
0
 62
     0
 66
     1
 10
0
 20
0
 30
0.0
 70
     1
 40
24
 41
24
  0
VERTEX
  8
0
 10
29.6667
 20
6.68024
 30
0.0
 40
0.333333
 41
0.333333
  0
VERTEX
  8
0
 10
29.705
 20
6.68024
 30
0.0
 40
0.333333
 41
0.333333
  0
VERTEX
  8
0
 10
29.82
 20
6.67253
 30
0.0
 40
0.333333
 41
0.333333
  0
VERTEX
  8
0
 10
29.969
 20
6.64979
 30
0.0
 40
0.333333
 41
0.333333
  0
VERTEX
  8
0
 10
30.1128
 20
6.61285
 30
0.0
 40
0.333333
 41
0.333333
  0
VERTEX
  8
0
 10
30.2506
 20
6.56239
 30
0.0
 40
0.333333
 41
0.333333
  0
VERTEX
  8
0
 10
30.3817
 20
6.49924
 30
0.0
 40
0.333333
 41
0.333333
  0
VERTEX
  8
0
 10
30.5054
 20
6.4241
 30
0.0
 40
0.333333
 41
0.333333
  0
VERTEX
  8
0
 10
30.6208
 20
6.33772
 30
0.0
 40
0.333333
 41
0.333333
  0
VERTEX
  8
0
 10
30.7274
 20
6.24094
 30
0.0
 40
0.333333
 41
0.333333
  0
VERTEX
  8
0
 10
30.8242
 20
6.13439
 30
0.0
 40
0.333333
 41
0.333333
  0
VERTEX
  8
0
 10
30.9106
 20
6.01893
 30
0.0
 40
0.333333
 41
0.333333
  0
VERTEX
  8
0
 10
30.9856
 20
5.89524
 30
0.0
 40
0.333333
 41
0.333333
  0
VERTEX
  8
0
 10
31.0489
 20
5.76417
 30
0.0
 40
0.333333
 41
0.333333
  0
VERTEX
  8
0
 10
31.0992
 20
5.62631
 30
0.0
 40
0.333333
 41
0.333333
  0
VERTEX
  8
0
 10
31.1363
 20
5.48258
 30
0.0
 40
0.333333
 41
0.333333
  0
VERTEX
  8
0
 10
31.159
 20
5.33361
 30
0.0
 40
0.333333
 41
0.333333
  0
VERTEX
  8
0
 10
31.1667
 20
5.21858
 30
0.0
 40
0.333333
 41
0.333333
  0
VERTEX
  8
0
 10
31.1667
 20
5.18024
 30
0.0
 40
0.333333
 41
0.333333
  0
VERTEX
  8
0
 10
31.1667
 20
5.14193
 30
0.0
 40
0.333333
 41
0.333333
  0
VERTEX
  8
0
 10
31.159
 20
5.02692
 30
0.0
 40
0.333333
 41
0.333333
  0
VERTEX
  8
0
 10
31.1363
 20
4.87799
 30
0.0
 40
0.333333
 41
0.333333
  0
VERTEX
  8
0
 10
31.0992
 20
4.73421
 30
0.0
 40
0.333333
 41
0.333333
  0
VERTEX
  8
0
 10
31.0489
 20
4.5964
 30
0.0
 40
0.333333
 41
0.333333
  0
VERTEX
  8
0
 10
30.9856
 20
4.46528
 30
0.0
 40
0.333333
 41
0.333333
  0
VERTEX
  8
0
 10
30.9106
 20
4.34158
 30
0.0
 40
0.333333
 41
0.333333
  0
VERTEX
  8
0
 10
30.8242
 20
4.22613
 30
0.0
 40
0.333333
 41
0.333333
  0
VERTEX
  8
0
 10
30.7274
 20
4.11963
 30
0.0
 40
0.333333
 41
0.333333
  0
VERTEX
  8
0
 10
30.6208
 20
4.02279
 30
0.0
 40
0.333333
 41
0.333333
  0
VERTEX
  8
0
 10
30.5054
 20
3.93642
 30
0.0
 40
0.333333
 41
0.333333
  0
VERTEX
  8
0
 10
30.3817
 20
3.86133
 30
0.0
 40
0.333333
 41
0.333333
  0
VERTEX
  8
0
 10
30.2506
 20
3.79812
 30
0.0
 40
0.333333
 41
0.333333
  0
VERTEX
  8
0
 10
30.1128
 20
3.74772
 30
0.0
 40
0.333333
 41
0.333333
  0
VERTEX
  8
0
 10
29.969
 20
3.71072
 30
0.0
 40
0.333333
 41
0.333333
  0
VERTEX
  8
0
 10
29.82
 20
3.68799
 30
0.0
 40
0.333333
 41
0.333333
  0
VERTEX
  8
0
 10
29.705
 20
3.68024
 30
0.0
 40
0.333333
 41
0.333333
  0
VERTEX
  8
0
 10
29.6667
 20
3.68024
 30
0.0
 40
0.333333
 41
0.333333
  0
VERTEX
  8
0
 10
29.6283
 20
3.68024
 30
0.0
 40
0.333333
 41
0.333333
  0
VERTEX
  8
0
 10
29.5133
 20
3.68799
 30
0.0
 40
0.333333
 41
0.333333
  0
VERTEX
  8
0
 10
29.3643
 20
3.71072
 30
0.0
 40
0.333333
 41
0.333333
  0
VERTEX
  8
0
 10
29.2207
 20
3.74772
 30
0.0
 40
0.333333
 41
0.333333
  0
VERTEX
  8
0
 10
29.0828
 20
3.79812
 30
0.0
 40
0.333333
 41
0.333333
  0
VERTEX
  8
0
 10
28.9517
 20
3.86133
 30
0.0
 40
0.333333
 41
0.333333
  0
VERTEX
  8
0
 10
28.8281
 20
3.93642
 30
0.0
 40
0.333333
 41
0.333333
  0
VERTEX
  8
0
 10
28.7125
 20
4.02279
 30
0.0
 40
0.333333
 41
0.333333
  0
VERTEX
  8
0
 10
28.606
 20
4.11963
 30
0.0
 40
0.333333
 41
0.333333
  0
VERTEX
  8
0
 10
28.5092
 20
4.22613
 30
0.0
 40
0.333333
 41
0.333333
  0
VERTEX
  8
0
 10
28.4229
 20
4.34158
 30
0.0
 40
0.333333
 41
0.333333
  0
VERTEX
  8
0
 10
28.3478
 20
4.46528
 30
0.0
 40
0.333333
 41
0.333333
  0
VERTEX
  8
0
 10
28.2846
 20
4.5964
 30
0.0
 40
0.333333
 41
0.333333
  0
VERTEX
  8
0
 10
28.2342
 20
4.73421
 30
0.0
 40
0.333333
 41
0.333333
  0
VERTEX
  8
0
 10
28.1972
 20
4.87799
 30
0.0
 40
0.333333
 41
0.333333
  0
VERTEX
  8
0
 10
28.1744
 20
5.02692
 30
0.0
 40
0.333333
 41
0.333333
  0
VERTEX
  8
0
 10
28.1667
 20
5.14193
 30
0.0
 40
0.333333
 41
0.333333
  0
VERTEX
  8
0
 10
28.1667
 20
5.18024
 30
0.0
 40
0.333333
 41
0.333333
  0
VERTEX
  8
0
 10
28.1667
 20
5.21858
 30
0.0
 40
0.333333
 41
0.333333
  0
VERTEX
  8
0
 10
28.1744
 20
5.33361
 30
0.0
 40
0.333333
 41
0.333333
  0
VERTEX
  8
0
 10
28.1972
 20
5.48258
 30
0.0
 40
0.333333
 41
0.333333
  0
VERTEX
  8
0
 10
28.2342
 20
5.62631
 30
0.0
 40
0.333333
 41
0.333333
  0
VERTEX
  8
0
 10
28.2846
 20
5.76417
 30
0.0
 40
0.333333
 41
0.333333
  0
VERTEX
  8
0
 10
28.3478
 20
5.89524
 30
0.0
 40
0.333333
 41
0.333333
  0
VERTEX
  8
0
 10
28.4229
 20
6.01893
 30
0.0
 40
0.333333
 41
0.333333
  0
VERTEX
  8
0
 10
28.5092
 20
6.13439
 30
0.0
 40
0.333333
 41
0.333333
  0
VERTEX
  8
0
 10
28.606
 20
6.24094
 30
0.0
 40
0.333333
 41
0.333333
  0
VERTEX
  8
0
 10
28.7125
 20
6.33772
 30
0.0
 40
0.333333
 41
0.333333
  0
VERTEX
  8
0
 10
28.8281
 20
6.4241
 30
0.0
 40
0.333333
 41
0.333333
  0
VERTEX
  8
0
 10
28.9517
 20
6.49924
 30
0.0
 40
0.333333
 41
0.333333
  0
VERTEX
  8
0
 10
29.0828
 20
6.56239
 30
0.0
 40
0.333333
 41
0.333333
  0
VERTEX
  8
0
 10
29.2207
 20
6.61285
 30
0.0
 40
0.333333
 41
0.333333
  0
VERTEX
  8
0
 10
29.3643
 20
6.64979
 30
0.0
 40
0.333333
 41
0.333333
  0
VERTEX
  8
0
 10
29.5133
 20
6.67253
 30
0.0
 40
0.333333
 41
0.333333
  0
VERTEX
  8
0
 10
29.6283
 20
6.68024
 30
0.0
 40
0.333333
 41
0.333333
  0
VERTEX
  8
0
 10
29.6667
 20
6.68024
 30
0.0
 40
0.333333
 41
0.333333
  0
SEQEND
 8
0
  0
POLYLINE
  8
0
 62
     0
 66
     1
 10
0
 20
0
 30
0.0
 70
     1
 40
0
 41
0
  0
VERTEX
  8
0
 10
94.9668
 20
138.43
 30
0.0
 40
0
 41
0
  0
VERTEX
  8
0
 10
95.0115
 20
138.43
 30
0.0
 40
0
 41
0
  0
VERTEX
  8
0
 10
95.1457
 20
138.421
 30
0.0
 40
0
 41
0
  0
VERTEX
  8
0
 10
95.3194
 20
138.395
 30
0.0
 40
0
 41
0
  0
VERTEX
  8
0
 10
95.4872
 20
138.352
 30
0.0
 40
0
 41
0
  0
VERTEX
  8
0
 10
95.6479
 20
138.293
 30
0.0
 40
0
 41
0
  0
VERTEX
  8
0
 10
95.801
 20
138.219
 30
0.0
 40
0
 41
0
  0
VERTEX
  8
0
 10
95.9451
 20
138.132
 30
0.0
 40
0
 41
0
  0
VERTEX
  8
0
 10
96.08
 20
138.031
 30
0.0
 40
0
 41
0
  0
VERTEX
  8
0
 10
96.2042
 20
137.918
 30
0.0
 40
0
 41
0
  0
VERTEX
  8
0
 10
96.3172
 20
137.794
 30
0.0
 40
0
 41
0
  0
VERTEX
  8
0
 10
96.4179
 20
137.659
 30
0.0
 40
0
 41
0
  0
VERTEX
  8
0
 10
96.5056
 20
137.515
 30
0.0
 40
0
 41
0
  0
VERTEX
  8
0
 10
96.5793
 20
137.362
 30
0.0
 40
0
 41
0
  0
VERTEX
  8
0
 10
96.6381
 20
137.201
 30
0.0
 40
0
 41
0
  0
VERTEX
  8
0
 10
96.6812
 20
137.033
 30
0.0
 40
0
 41
0
  0
VERTEX
  8
0
 10
96.7078
 20
136.859
 30
0.0
 40
0
 41
0
  0
VERTEX
  8
0
 10
96.7168
 20
136.725
 30
0.0
 40
0
 41
0
  0
VERTEX
  8
0
 10
96.7168
 20
136.68
 30
0.0
 40
0
 41
0
  0
VERTEX
  8
0
 10
96.7168
 20
136.636
 30
0.0
 40
0
 41
0
  0
VERTEX
  8
0
 10
96.7078
 20
136.502
 30
0.0
 40
0
 41
0
  0
VERTEX
  8
0
 10
96.6812
 20
136.328
 30
0.0
 40
0
 41
0
  0
VERTEX
  8
0
 10
96.6381
 20
136.16
 30
0.0
 40
0
 41
0
  0
VERTEX
  8
0
 10
96.5793
 20
135.999
 30
0.0
 40
0
 41
0
  0
VERTEX
  8
0
 10
96.5056
 20
135.846
 30
0.0
 40
0
 41
0
  0
VERTEX
  8
0
 10
96.4179
 20
135.702
 30
0.0
 40
0
 41
0
  0
VERTEX
  8
0
 10
96.3172
 20
135.567
 30
0.0
 40
0
 41
0
  0
VERTEX
  8
0
 10
96.2042
 20
135.443
 30
0.0
 40
0
 41
0
  0
VERTEX
  8
0
 10
96.08
 20
135.33
 30
0.0
 40
0
 41
0
  0
VERTEX
  8
0
 10
95.9451
 20
135.229
 30
0.0
 40
0
 41
0
  0
VERTEX
  8
0
 10
95.801
 20
135.142
 30
0.0
 40
0
 41
0
  0
VERTEX
  8
0
 10
95.6479
 20
135.068
 30
0.0
 40
0
 41
0
  0
VERTEX
  8
0
 10
95.4872
 20
135.009
 30
0.0
 40
0
 41
0
  0
VERTEX
  8
0
 10
95.3194
 20
134.966
 30
0.0
 40
0
 41
0
  0
VERTEX
  8
0
 10
95.1457
 20
134.939
 30
0.0
 40
0
 41
0
  0
VERTEX
  8
0
 10
95.0115
 20
134.93
 30
0.0
 40
0
 41
0
  0
VERTEX
  8
0
 10
94.9668
 20
134.93
 30
0.0
 40
0
 41
0
  0
VERTEX
  8
0
 10
94.9221
 20
134.93
 30
0.0
 40
0
 41
0
  0
VERTEX
  8
0
 10
94.7879
 20
134.939
 30
0.0
 40
0
 41
0
  0
VERTEX
  8
0
 10
94.614
 20
134.966
 30
0.0
 40
0
 41
0
  0
VERTEX
  8
0
 10
94.4464
 20
135.009
 30
0.0
 40
0
 41
0
  0
VERTEX
  8
0
 10
94.2856
 20
135.068
 30
0.0
 40
0
 41
0
  0
VERTEX
  8
0
 10
94.1326
 20
135.142
 30
0.0
 40
0
 41
0
  0
VERTEX
  8
0
 10
93.9883
 20
135.229
 30
0.0
 40
0
 41
0
  0
VERTEX
  8
0
 10
93.8536
 20
135.33
 30
0.0
 40
0
 41
0
  0
VERTEX
  8
0
 10
93.7293
 20
135.443
 30
0.0
 40
0
 41
0
  0
VERTEX
  8
0
 10
93.6164
 20
135.567
 30
0.0
 40
0
 41
0
  0
VERTEX
  8
0
 10
93.5157
 20
135.702
 30
0.0
 40
0
 41
0
  0
VERTEX
  8
0
 10
93.4281
 20
135.846
 30
0.0
 40
0
 41
0
  0
VERTEX
  8
0
 10
93.3543
 20
135.999
 30
0.0
 40
0
 41
0
  0
VERTEX
  8
0
 10
93.2954
 20
136.16
 30
0.0
 40
0
 41
0
  0
VERTEX
  8
0
 10
93.2524
 20
136.328
 30
0.0
 40
0
 41
0
  0
VERTEX
  8
0
 10
93.2258
 20
136.502
 30
0.0
 40
0
 41
0
  0
VERTEX
  8
0
 10
93.2168
 20
136.636
 30
0.0
 40
0
 41
0
  0
VERTEX
  8
0
 10
93.2168
 20
136.68
 30
0.0
 40
0
 41
0
  0
VERTEX
  8
0
 10
93.2168
 20
136.725
 30
0.0
 40
0
 41
0
  0
VERTEX
  8
0
 10
93.2258
 20
136.859
 30
0.0
 40
0
 41
0
  0
VERTEX
  8
0
 10
93.2524
 20
137.033
 30
0.0
 40
0
 41
0
  0
VERTEX
  8
0
 10
93.2954
 20
137.201
 30
0.0
 40
0
 41
0
  0
VERTEX
  8
0
 10
93.3543
 20
137.362
 30
0.0
 40
0
 41
0
  0
VERTEX
  8
0
 10
93.4281
 20
137.515
 30
0.0
 40
0
 41
0
  0
VERTEX
  8
0
 10
93.5157
 20
137.659
 30
0.0
 40
0
 41
0
  0
VERTEX
  8
0
 10
93.6164
 20
137.794
 30
0.0
 40
0
 41
0
  0
VERTEX
  8
0
 10
93.7293
 20
137.918
 30
0.0
 40
0
 41
0
  0
VERTEX
  8
0
 10
93.8536
 20
138.031
 30
0.0
 40
0
 41
0
  0
VERTEX
  8
0
 10
93.9883
 20
138.132
 30
0.0
 40
0
 41
0
  0
VERTEX
  8
0
 10
94.1326
 20
138.219
 30
0.0
 40
0
 41
0
  0
VERTEX
  8
0
 10
94.2856
 20
138.293
 30
0.0
 40
0
 41
0
  0
VERTEX
  8
0
 10
94.4464
 20
138.352
 30
0.0
 40
0
 41
0
  0
VERTEX
  8
0
 10
94.614
 20
138.395
 30
0.0
 40
0
 41
0
  0
VERTEX
  8
0
 10
94.7879
 20
138.421
 30
0.0
 40
0
 41
0
  0
VERTEX
  8
0
 10
94.9221
 20
138.43
 30
0.0
 40
0
 41
0
  0
VERTEX
  8
0
 10
94.9668
 20
138.43
 30
0.0
 40
0
 41
0
  0
SEQEND
 8
0
  0
POLYLINE
  8
0
 62
     0
 66
     1
 10
0
 20
0
 30
0.0
 70
     1
 40
24
 41
24
  0
VERTEX
  8
0
 10
94.9668
 20
138.43
 30
0.0
 40
0.333333
 41
0.333333
  0
VERTEX
  8
0
 10
95.0115
 20
138.43
 30
0.0
 40
0.333333
 41
0.333333
  0
VERTEX
  8
0
 10
95.1457
 20
138.421
 30
0.0
 40
0.333333
 41
0.333333
  0
VERTEX
  8
0
 10
95.3194
 20
138.395
 30
0.0
 40
0.333333
 41
0.333333
  0
VERTEX
  8
0
 10
95.4872
 20
138.352
 30
0.0
 40
0.333333
 41
0.333333
  0
VERTEX
  8
0
 10
95.6479
 20
138.293
 30
0.0
 40
0.333333
 41
0.333333
  0
VERTEX
  8
0
 10
95.801
 20
138.219
 30
0.0
 40
0.333333
 41
0.333333
  0
VERTEX
  8
0
 10
95.9451
 20
138.132
 30
0.0
 40
0.333333
 41
0.333333
  0
VERTEX
  8
0
 10
96.08
 20
138.031
 30
0.0
 40
0.333333
 41
0.333333
  0
VERTEX
  8
0
 10
96.2042
 20
137.918
 30
0.0
 40
0.333333
 41
0.333333
  0
VERTEX
  8
0
 10
96.3172
 20
137.794
 30
0.0
 40
0.333333
 41
0.333333
  0
VERTEX
  8
0
 10
96.4179
 20
137.659
 30
0.0
 40
0.333333
 41
0.333333
  0
VERTEX
  8
0
 10
96.5056
 20
137.515
 30
0.0
 40
0.333333
 41
0.333333
  0
VERTEX
  8
0
 10
96.5793
 20
137.362
 30
0.0
 40
0.333333
 41
0.333333
  0
VERTEX
  8
0
 10
96.6381
 20
137.201
 30
0.0
 40
0.333333
 41
0.333333
  0
VERTEX
  8
0
 10
96.6812
 20
137.033
 30
0.0
 40
0.333333
 41
0.333333
  0
VERTEX
  8
0
 10
96.7078
 20
136.859
 30
0.0
 40
0.333333
 41
0.333333
  0
VERTEX
  8
0
 10
96.7168
 20
136.725
 30
0.0
 40
0.333333
 41
0.333333
  0
VERTEX
  8
0
 10
96.7168
 20
136.68
 30
0.0
 40
0.333333
 41
0.333333
  0
VERTEX
  8
0
 10
96.7168
 20
136.636
 30
0.0
 40
0.333333
 41
0.333333
  0
VERTEX
  8
0
 10
96.7078
 20
136.502
 30
0.0
 40
0.333333
 41
0.333333
  0
VERTEX
  8
0
 10
96.6812
 20
136.328
 30
0.0
 40
0.333333
 41
0.333333
  0
VERTEX
  8
0
 10
96.6381
 20
136.16
 30
0.0
 40
0.333333
 41
0.333333
  0
VERTEX
  8
0
 10
96.5793
 20
135.999
 30
0.0
 40
0.333333
 41
0.333333
  0
VERTEX
  8
0
 10
96.5056
 20
135.846
 30
0.0
 40
0.333333
 41
0.333333
  0
VERTEX
  8
0
 10
96.4179
 20
135.702
 30
0.0
 40
0.333333
 41
0.333333
  0
VERTEX
  8
0
 10
96.3172
 20
135.567
 30
0.0
 40
0.333333
 41
0.333333
  0
VERTEX
  8
0
 10
96.2042
 20
135.443
 30
0.0
 40
0.333333
 41
0.333333
  0
VERTEX
  8
0
 10
96.08
 20
135.33
 30
0.0
 40
0.333333
 41
0.333333
  0
VERTEX
  8
0
 10
95.9451
 20
135.229
 30
0.0
 40
0.333333
 41
0.333333
  0
VERTEX
  8
0
 10
95.801
 20
135.142
 30
0.0
 40
0.333333
 41
0.333333
  0
VERTEX
  8
0
 10
95.6479
 20
135.068
 30
0.0
 40
0.333333
 41
0.333333
  0
VERTEX
  8
0
 10
95.4872
 20
135.009
 30
0.0
 40
0.333333
 41
0.333333
  0
VERTEX
  8
0
 10
95.3194
 20
134.966
 30
0.0
 40
0.333333
 41
0.333333
  0
VERTEX
  8
0
 10
95.1457
 20
134.939
 30
0.0
 40
0.333333
 41
0.333333
  0
VERTEX
  8
0
 10
95.0115
 20
134.93
 30
0.0
 40
0.333333
 41
0.333333
  0
VERTEX
  8
0
 10
94.9668
 20
134.93
 30
0.0
 40
0.333333
 41
0.333333
  0
VERTEX
  8
0
 10
94.9221
 20
134.93
 30
0.0
 40
0.333333
 41
0.333333
  0
VERTEX
  8
0
 10
94.7879
 20
134.939
 30
0.0
 40
0.333333
 41
0.333333
  0
VERTEX
  8
0
 10
94.614
 20
134.966
 30
0.0
 40
0.333333
 41
0.333333
  0
VERTEX
  8
0
 10
94.4464
 20
135.009
 30
0.0
 40
0.333333
 41
0.333333
  0
VERTEX
  8
0
 10
94.2856
 20
135.068
 30
0.0
 40
0.333333
 41
0.333333
  0
VERTEX
  8
0
 10
94.1326
 20
135.142
 30
0.0
 40
0.333333
 41
0.333333
  0
VERTEX
  8
0
 10
93.9883
 20
135.229
 30
0.0
 40
0.333333
 41
0.333333
  0
VERTEX
  8
0
 10
93.8536
 20
135.33
 30
0.0
 40
0.333333
 41
0.333333
  0
VERTEX
  8
0
 10
93.7293
 20
135.443
 30
0.0
 40
0.333333
 41
0.333333
  0
VERTEX
  8
0
 10
93.6164
 20
135.567
 30
0.0
 40
0.333333
 41
0.333333
  0
VERTEX
  8
0
 10
93.5157
 20
135.702
 30
0.0
 40
0.333333
 41
0.333333
  0
VERTEX
  8
0
 10
93.4281
 20
135.846
 30
0.0
 40
0.333333
 41
0.333333
  0
VERTEX
  8
0
 10
93.3543
 20
135.999
 30
0.0
 40
0.333333
 41
0.333333
  0
VERTEX
  8
0
 10
93.2954
 20
136.16
 30
0.0
 40
0.333333
 41
0.333333
  0
VERTEX
  8
0
 10
93.2524
 20
136.328
 30
0.0
 40
0.333333
 41
0.333333
  0
VERTEX
  8
0
 10
93.2258
 20
136.502
 30
0.0
 40
0.333333
 41
0.333333
  0
VERTEX
  8
0
 10
93.2168
 20
136.636
 30
0.0
 40
0.333333
 41
0.333333
  0
VERTEX
  8
0
 10
93.2168
 20
136.68
 30
0.0
 40
0.333333
 41
0.333333
  0
VERTEX
  8
0
 10
93.2168
 20
136.725
 30
0.0
 40
0.333333
 41
0.333333
  0
VERTEX
  8
0
 10
93.2258
 20
136.859
 30
0.0
 40
0.333333
 41
0.333333
  0
VERTEX
  8
0
 10
93.2524
 20
137.033
 30
0.0
 40
0.333333
 41
0.333333
  0
VERTEX
  8
0
 10
93.2954
 20
137.201
 30
0.0
 40
0.333333
 41
0.333333
  0
VERTEX
  8
0
 10
93.3543
 20
137.362
 30
0.0
 40
0.333333
 41
0.333333
  0
VERTEX
  8
0
 10
93.4281
 20
137.515
 30
0.0
 40
0.333333
 41
0.333333
  0
VERTEX
  8
0
 10
93.5157
 20
137.659
 30
0.0
 40
0.333333
 41
0.333333
  0
VERTEX
  8
0
 10
93.6164
 20
137.794
 30
0.0
 40
0.333333
 41
0.333333
  0
VERTEX
  8
0
 10
93.7293
 20
137.918
 30
0.0
 40
0.333333
 41
0.333333
  0
VERTEX
  8
0
 10
93.8536
 20
138.031
 30
0.0
 40
0.333333
 41
0.333333
  0
VERTEX
  8
0
 10
93.9883
 20
138.132
 30
0.0
 40
0.333333
 41
0.333333
  0
VERTEX
  8
0
 10
94.1326
 20
138.219
 30
0.0
 40
0.333333
 41
0.333333
  0
VERTEX
  8
0
 10
94.2856
 20
138.293
 30
0.0
 40
0.333333
 41
0.333333
  0
VERTEX
  8
0
 10
94.4464
 20
138.352
 30
0.0
 40
0.333333
 41
0.333333
  0
VERTEX
  8
0
 10
94.614
 20
138.395
 30
0.0
 40
0.333333
 41
0.333333
  0
VERTEX
  8
0
 10
94.7879
 20
138.421
 30
0.0
 40
0.333333
 41
0.333333
  0
VERTEX
  8
0
 10
94.9221
 20
138.43
 30
0.0
 40
0.333333
 41
0.333333
  0
VERTEX
  8
0
 10
94.9668
 20
138.43
 30
0.0
 40
0.333333
 41
0.333333
  0
SEQEND
 8
0
  0
POLYLINE
  8
0
 62
     0
 66
     1
 10
0
 20
0
 30
0.0
 70
     1
 40
0
 41
0
  0
VERTEX
  8
0
 10
45.9668
 20
138.43
 30
0.0
 40
0
 41
0
  0
VERTEX
  8
0
 10
46.0114
 20
138.43
 30
0.0
 40
0
 41
0
  0
VERTEX
  8
0
 10
46.1456
 20
138.421
 30
0.0
 40
0
 41
0
  0
VERTEX
  8
0
 10
46.3194
 20
138.395
 30
0.0
 40
0
 41
0
  0
VERTEX
  8
0
 10
46.4871
 20
138.352
 30
0.0
 40
0
 41
0
  0
VERTEX
  8
0
 10
46.6479
 20
138.293
 30
0.0
 40
0
 41
0
  0
VERTEX
  8
0
 10
46.8008
 20
138.219
 30
0.0
 40
0
 41
0
  0
VERTEX
  8
0
 10
46.9451
 20
138.132
 30
0.0
 40
0
 41
0
  0
VERTEX
  8
0
 10
47.0799
 20
138.031
 30
0.0
 40
0
 41
0
  0
VERTEX
  8
0
 10
47.2042
 20
137.918
 30
0.0
 40
0
 41
0
  0
VERTEX
  8
0
 10
47.3171
 20
137.794
 30
0.0
 40
0
 41
0
  0
VERTEX
  8
0
 10
47.4179
 20
137.659
 30
0.0
 40
0
 41
0
  0
VERTEX
  8
0
 10
47.5054
 20
137.515
 30
0.0
 40
0
 41
0
  0
VERTEX
  8
0
 10
47.5792
 20
137.362
 30
0.0
 40
0
 41
0
  0
VERTEX
  8
0
 10
47.6381
 20
137.201
 30
0.0
 40
0
 41
0
  0
VERTEX
  8
0
 10
47.6811
 20
137.033
 30
0.0
 40
0
 41
0
  0
VERTEX
  8
0
 10
47.7076
 20
136.859
 30
0.0
 40
0
 41
0
  0
VERTEX
  8
0
 10
47.7168
 20
136.725
 30
0.0
 40
0
 41
0
  0
VERTEX
  8
0
 10
47.7168
 20
136.68
 30
0.0
 40
0
 41
0
  0
VERTEX
  8
0
 10
47.7168
 20
136.636
 30
0.0
 40
0
 41
0
  0
VERTEX
  8
0
 10
47.7076
 20
136.502
 30
0.0
 40
0
 41
0
  0
VERTEX
  8
0
 10
47.6811
 20
136.328
 30
0.0
 40
0
 41
0
  0
VERTEX
  8
0
 10
47.6381
 20
136.16
 30
0.0
 40
0
 41
0
  0
VERTEX
  8
0
 10
47.5792
 20
135.999
 30
0.0
 40
0
 41
0
  0
VERTEX
  8
0
 10
47.5054
 20
135.846
 30
0.0
 40
0
 41
0
  0
VERTEX
  8
0
 10
47.4179
 20
135.702
 30
0.0
 40
0
 41
0
  0
VERTEX
  8
0
 10
47.3171
 20
135.567
 30
0.0
 40
0
 41
0
  0
VERTEX
  8
0
 10
47.2042
 20
135.443
 30
0.0
 40
0
 41
0
  0
VERTEX
  8
0
 10
47.0799
 20
135.33
 30
0.0
 40
0
 41
0
  0
VERTEX
  8
0
 10
46.9451
 20
135.229
 30
0.0
 40
0
 41
0
  0
VERTEX
  8
0
 10
46.8008
 20
135.142
 30
0.0
 40
0
 41
0
  0
VERTEX
  8
0
 10
46.6479
 20
135.068
 30
0.0
 40
0
 41
0
  0
VERTEX
  8
0
 10
46.4871
 20
135.009
 30
0.0
 40
0
 41
0
  0
VERTEX
  8
0
 10
46.3194
 20
134.966
 30
0.0
 40
0
 41
0
  0
VERTEX
  8
0
 10
46.1456
 20
134.939
 30
0.0
 40
0
 41
0
  0
VERTEX
  8
0
 10
46.0114
 20
134.93
 30
0.0
 40
0
 41
0
  0
VERTEX
  8
0
 10
45.9668
 20
134.93
 30
0.0
 40
0
 41
0
  0
VERTEX
  8
0
 10
45.9219
 20
134.93
 30
0.0
 40
0
 41
0
  0
VERTEX
  8
0
 10
45.7878
 20
134.939
 30
0.0
 40
0
 41
0
  0
VERTEX
  8
0
 10
45.614
 20
134.966
 30
0.0
 40
0
 41
0
  0
VERTEX
  8
0
 10
45.4462
 20
135.009
 30
0.0
 40
0
 41
0
  0
VERTEX
  8
0
 10
45.2856
 20
135.068
 30
0.0
 40
0
 41
0
  0
VERTEX
  8
0
 10
45.1325
 20
135.142
 30
0.0
 40
0
 41
0
  0
VERTEX
  8
0
 10
44.9883
 20
135.229
 30
0.0
 40
0
 41
0
  0
VERTEX
  8
0
 10
44.8535
 20
135.33
 30
0.0
 40
0
 41
0
  0
VERTEX
  8
0
 10
44.7293
 20
135.443
 30
0.0
 40
0
 41
0
  0
VERTEX
  8
0
 10
44.6164
 20
135.567
 30
0.0
 40
0
 41
0
  0
VERTEX
  8
0
 10
44.5156
 20
135.702
 30
0.0
 40
0
 41
0
  0
VERTEX
  8
0
 10
44.4279
 20
135.846
 30
0.0
 40
0
 41
0
  0
VERTEX
  8
0
 10
44.3542
 20
135.999
 30
0.0
 40
0
 41
0
  0
VERTEX
  8
0
 10
44.2954
 20
136.16
 30
0.0
 40
0
 41
0
  0
VERTEX
  8
0
 10
44.2522
 20
136.328
 30
0.0
 40
0
 41
0
  0
VERTEX
  8
0
 10
44.2257
 20
136.502
 30
0.0
 40
0
 41
0
  0
VERTEX
  8
0
 10
44.2168
 20
136.636
 30
0.0
 40
0
 41
0
  0
VERTEX
  8
0
 10
44.2168
 20
136.68
 30
0.0
 40
0
 41
0
  0
VERTEX
  8
0
 10
44.2168
 20
136.725
 30
0.0
 40
0
 41
0
  0
VERTEX
  8
0
 10
44.2257
 20
136.859
 30
0.0
 40
0
 41
0
  0
VERTEX
  8
0
 10
44.2522
 20
137.033
 30
0.0
 40
0
 41
0
  0
VERTEX
  8
0
 10
44.2954
 20
137.201
 30
0.0
 40
0
 41
0
  0
VERTEX
  8
0
 10
44.3542
 20
137.362
 30
0.0
 40
0
 41
0
  0
VERTEX
  8
0
 10
44.4279
 20
137.515
 30
0.0
 40
0
 41
0
  0
VERTEX
  8
0
 10
44.5156
 20
137.659
 30
0.0
 40
0
 41
0
  0
VERTEX
  8
0
 10
44.6164
 20
137.794
 30
0.0
 40
0
 41
0
  0
VERTEX
  8
0
 10
44.7293
 20
137.918
 30
0.0
 40
0
 41
0
  0
VERTEX
  8
0
 10
44.8535
 20
138.031
 30
0.0
 40
0
 41
0
  0
VERTEX
  8
0
 10
44.9883
 20
138.132
 30
0.0
 40
0
 41
0
  0
VERTEX
  8
0
 10
45.1325
 20
138.219
 30
0.0
 40
0
 41
0
  0
VERTEX
  8
0
 10
45.2856
 20
138.293
 30
0.0
 40
0
 41
0
  0
VERTEX
  8
0
 10
45.4462
 20
138.352
 30
0.0
 40
0
 41
0
  0
VERTEX
  8
0
 10
45.614
 20
138.395
 30
0.0
 40
0
 41
0
  0
VERTEX
  8
0
 10
45.7878
 20
138.421
 30
0.0
 40
0
 41
0
  0
VERTEX
  8
0
 10
45.9219
 20
138.43
 30
0.0
 40
0
 41
0
  0
VERTEX
  8
0
 10
45.9668
 20
138.43
 30
0.0
 40
0
 41
0
  0
SEQEND
 8
0
  0
POLYLINE
  8
0
 62
     0
 66
     1
 10
0
 20
0
 30
0.0
 70
     1
 40
24
 41
24
  0
VERTEX
  8
0
 10
45.9668
 20
138.43
 30
0.0
 40
0.333333
 41
0.333333
  0
VERTEX
  8
0
 10
46.0114
 20
138.43
 30
0.0
 40
0.333333
 41
0.333333
  0
VERTEX
  8
0
 10
46.1456
 20
138.421
 30
0.0
 40
0.333333
 41
0.333333
  0
VERTEX
  8
0
 10
46.3194
 20
138.395
 30
0.0
 40
0.333333
 41
0.333333
  0
VERTEX
  8
0
 10
46.4871
 20
138.352
 30
0.0
 40
0.333333
 41
0.333333
  0
VERTEX
  8
0
 10
46.6479
 20
138.293
 30
0.0
 40
0.333333
 41
0.333333
  0
VERTEX
  8
0
 10
46.8008
 20
138.219
 30
0.0
 40
0.333333
 41
0.333333
  0
VERTEX
  8
0
 10
46.9451
 20
138.132
 30
0.0
 40
0.333333
 41
0.333333
  0
VERTEX
  8
0
 10
47.0799
 20
138.031
 30
0.0
 40
0.333333
 41
0.333333
  0
VERTEX
  8
0
 10
47.2042
 20
137.918
 30
0.0
 40
0.333333
 41
0.333333
  0
VERTEX
  8
0
 10
47.3171
 20
137.794
 30
0.0
 40
0.333333
 41
0.333333
  0
VERTEX
  8
0
 10
47.4179
 20
137.659
 30
0.0
 40
0.333333
 41
0.333333
  0
VERTEX
  8
0
 10
47.5054
 20
137.515
 30
0.0
 40
0.333333
 41
0.333333
  0
VERTEX
  8
0
 10
47.5792
 20
137.362
 30
0.0
 40
0.333333
 41
0.333333
  0
VERTEX
  8
0
 10
47.6381
 20
137.201
 30
0.0
 40
0.333333
 41
0.333333
  0
VERTEX
  8
0
 10
47.6811
 20
137.033
 30
0.0
 40
0.333333
 41
0.333333
  0
VERTEX
  8
0
 10
47.7076
 20
136.859
 30
0.0
 40
0.333333
 41
0.333333
  0
VERTEX
  8
0
 10
47.7168
 20
136.725
 30
0.0
 40
0.333333
 41
0.333333
  0
VERTEX
  8
0
 10
47.7168
 20
136.68
 30
0.0
 40
0.333333
 41
0.333333
  0
VERTEX
  8
0
 10
47.7168
 20
136.636
 30
0.0
 40
0.333333
 41
0.333333
  0
VERTEX
  8
0
 10
47.7076
 20
136.502
 30
0.0
 40
0.333333
 41
0.333333
  0
VERTEX
  8
0
 10
47.6811
 20
136.328
 30
0.0
 40
0.333333
 41
0.333333
  0
VERTEX
  8
0
 10
47.6381
 20
136.16
 30
0.0
 40
0.333333
 41
0.333333
  0
VERTEX
  8
0
 10
47.5792
 20
135.999
 30
0.0
 40
0.333333
 41
0.333333
  0
VERTEX
  8
0
 10
47.5054
 20
135.846
 30
0.0
 40
0.333333
 41
0.333333
  0
VERTEX
  8
0
 10
47.4179
 20
135.702
 30
0.0
 40
0.333333
 41
0.333333
  0
VERTEX
  8
0
 10
47.3171
 20
135.567
 30
0.0
 40
0.333333
 41
0.333333
  0
VERTEX
  8
0
 10
47.2042
 20
135.443
 30
0.0
 40
0.333333
 41
0.333333
  0
VERTEX
  8
0
 10
47.0799
 20
135.33
 30
0.0
 40
0.333333
 41
0.333333
  0
VERTEX
  8
0
 10
46.9451
 20
135.229
 30
0.0
 40
0.333333
 41
0.333333
  0
VERTEX
  8
0
 10
46.8008
 20
135.142
 30
0.0
 40
0.333333
 41
0.333333
  0
VERTEX
  8
0
 10
46.6479
 20
135.068
 30
0.0
 40
0.333333
 41
0.333333
  0
VERTEX
  8
0
 10
46.4871
 20
135.009
 30
0.0
 40
0.333333
 41
0.333333
  0
VERTEX
  8
0
 10
46.3194
 20
134.966
 30
0.0
 40
0.333333
 41
0.333333
  0
VERTEX
  8
0
 10
46.1456
 20
134.939
 30
0.0
 40
0.333333
 41
0.333333
  0
VERTEX
  8
0
 10
46.0114
 20
134.93
 30
0.0
 40
0.333333
 41
0.333333
  0
VERTEX
  8
0
 10
45.9668
 20
134.93
 30
0.0
 40
0.333333
 41
0.333333
  0
VERTEX
  8
0
 10
45.9219
 20
134.93
 30
0.0
 40
0.333333
 41
0.333333
  0
VERTEX
  8
0
 10
45.7878
 20
134.939
 30
0.0
 40
0.333333
 41
0.333333
  0
VERTEX
  8
0
 10
45.614
 20
134.966
 30
0.0
 40
0.333333
 41
0.333333
  0
VERTEX
  8
0
 10
45.4462
 20
135.009
 30
0.0
 40
0.333333
 41
0.333333
  0
VERTEX
  8
0
 10
45.2856
 20
135.068
 30
0.0
 40
0.333333
 41
0.333333
  0
VERTEX
  8
0
 10
45.1325
 20
135.142
 30
0.0
 40
0.333333
 41
0.333333
  0
VERTEX
  8
0
 10
44.9883
 20
135.229
 30
0.0
 40
0.333333
 41
0.333333
  0
VERTEX
  8
0
 10
44.8535
 20
135.33
 30
0.0
 40
0.333333
 41
0.333333
  0
VERTEX
  8
0
 10
44.7293
 20
135.443
 30
0.0
 40
0.333333
 41
0.333333
  0
VERTEX
  8
0
 10
44.6164
 20
135.567
 30
0.0
 40
0.333333
 41
0.333333
  0
VERTEX
  8
0
 10
44.5156
 20
135.702
 30
0.0
 40
0.333333
 41
0.333333
  0
VERTEX
  8
0
 10
44.4279
 20
135.846
 30
0.0
 40
0.333333
 41
0.333333
  0
VERTEX
  8
0
 10
44.3542
 20
135.999
 30
0.0
 40
0.333333
 41
0.333333
  0
VERTEX
  8
0
 10
44.2954
 20
136.16
 30
0.0
 40
0.333333
 41
0.333333
  0
VERTEX
  8
0
 10
44.2522
 20
136.328
 30
0.0
 40
0.333333
 41
0.333333
  0
VERTEX
  8
0
 10
44.2257
 20
136.502
 30
0.0
 40
0.333333
 41
0.333333
  0
VERTEX
  8
0
 10
44.2168
 20
136.636
 30
0.0
 40
0.333333
 41
0.333333
  0
VERTEX
  8
0
 10
44.2168
 20
136.68
 30
0.0
 40
0.333333
 41
0.333333
  0
VERTEX
  8
0
 10
44.2168
 20
136.725
 30
0.0
 40
0.333333
 41
0.333333
  0
VERTEX
  8
0
 10
44.2257
 20
136.859
 30
0.0
 40
0.333333
 41
0.333333
  0
VERTEX
  8
0
 10
44.2522
 20
137.033
 30
0.0
 40
0.333333
 41
0.333333
  0
VERTEX
  8
0
 10
44.2954
 20
137.201
 30
0.0
 40
0.333333
 41
0.333333
  0
VERTEX
  8
0
 10
44.3542
 20
137.362
 30
0.0
 40
0.333333
 41
0.333333
  0
VERTEX
  8
0
 10
44.4279
 20
137.515
 30
0.0
 40
0.333333
 41
0.333333
  0
VERTEX
  8
0
 10
44.5156
 20
137.659
 30
0.0
 40
0.333333
 41
0.333333
  0
VERTEX
  8
0
 10
44.6164
 20
137.794
 30
0.0
 40
0.333333
 41
0.333333
  0
VERTEX
  8
0
 10
44.7293
 20
137.918
 30
0.0
 40
0.333333
 41
0.333333
  0
VERTEX
  8
0
 10
44.8535
 20
138.031
 30
0.0
 40
0.333333
 41
0.333333
  0
VERTEX
  8
0
 10
44.9883
 20
138.132
 30
0.0
 40
0.333333
 41
0.333333
  0
VERTEX
  8
0
 10
45.1325
 20
138.219
 30
0.0
 40
0.333333
 41
0.333333
  0
VERTEX
  8
0
 10
45.2856
 20
138.293
 30
0.0
 40
0.333333
 41
0.333333
  0
VERTEX
  8
0
 10
45.4462
 20
138.352
 30
0.0
 40
0.333333
 41
0.333333
  0
VERTEX
  8
0
 10
45.614
 20
138.395
 30
0.0
 40
0.333333
 41
0.333333
  0
VERTEX
  8
0
 10
45.7878
 20
138.421
 30
0.0
 40
0.333333
 41
0.333333
  0
VERTEX
  8
0
 10
45.9219
 20
138.43
 30
0.0
 40
0.333333
 41
0.333333
  0
VERTEX
  8
0
 10
45.9668
 20
138.43
 30
0.0
 40
0.333333
 41
0.333333
  0
SEQEND
 8
0
  0
POLYLINE
  8
0
 62
     0
 66
     1
 10
0
 20
0
 30
0.0
 70
     1
 40
0
 41
0
  0
VERTEX
  8
0
 10
71.6668
 20
196.681
 30
0.0
 40
0
 41
0
  0
VERTEX
  8
0
 10
71.7051
 20
196.681
 30
0.0
 40
0
 41
0
  0
VERTEX
  8
0
 10
71.8201
 20
196.672
 30
0.0
 40
0
 41
0
  0
VERTEX
  8
0
 10
71.969
 20
196.65
 30
0.0
 40
0
 41
0
  0
VERTEX
  8
0
 10
72.1128
 20
196.612
 30
0.0
 40
0
 41
0
  0
VERTEX
  8
0
 10
72.2507
 20
196.563
 30
0.0
 40
0
 41
0
  0
VERTEX
  8
0
 10
72.3817
 20
196.5
 30
0.0
 40
0
 41
0
  0
VERTEX
  8
0
 10
72.5054
 20
196.425
 30
0.0
 40
0
 41
0
  0
VERTEX
  8
0
 10
72.6208
 20
196.337
 30
0.0
 40
0
 41
0
  0
VERTEX
  8
0
 10
72.7275
 20
196.242
 30
0.0
 40
0
 41
0
  0
VERTEX
  8
0
 10
72.8242
 20
196.135
 30
0.0
 40
0
 41
0
  0
VERTEX
  8
0
 10
72.9106
 20
196.019
 30
0.0
 40
0
 41
0
  0
VERTEX
  8
0
 10
72.9857
 20
195.896
 30
0.0
 40
0
 41
0
  0
VERTEX
  8
0
 10
73.0489
 20
195.764
 30
0.0
 40
0
 41
0
  0
VERTEX
  8
0
 10
73.0993
 20
195.626
 30
0.0
 40
0
 41
0
  0
VERTEX
  8
0
 10
73.1363
 20
195.483
 30
0.0
 40
0
 41
0
  0
VERTEX
  8
0
 10
73.159
 20
195.333
 30
0.0
 40
0
 41
0
  0
VERTEX
  8
0
 10
73.1668
 20
195.219
 30
0.0
 40
0
 41
0
  0
VERTEX
  8
0
 10
73.1668
 20
195.181
 30
0.0
 40
0
 41
0
  0
VERTEX
  8
0
 10
73.1668
 20
195.142
 30
0.0
 40
0
 41
0
  0
VERTEX
  8
0
 10
73.159
 20
195.028
 30
0.0
 40
0
 41
0
  0
VERTEX
  8
0
 10
73.1363
 20
194.878
 30
0.0
 40
0
 41
0
  0
VERTEX
  8
0
 10
73.0993
 20
194.735
 30
0.0
 40
0
 41
0
  0
VERTEX
  8
0
 10
73.0489
 20
194.597
 30
0.0
 40
0
 41
0
  0
VERTEX
  8
0
 10
72.9857
 20
194.465
 30
0.0
 40
0
 41
0
  0
VERTEX
  8
0
 10
72.9106
 20
194.342
 30
0.0
 40
0
 41
0
  0
VERTEX
  8
0
 10
72.8242
 20
194.226
 30
0.0
 40
0
 41
0
  0
VERTEX
  8
0
 10
72.7275
 20
194.119
 30
0.0
 40
0
 41
0
  0
VERTEX
  8
0
 10
72.6208
 20
194.024
 30
0.0
 40
0
 41
0
  0
VERTEX
  8
0
 10
72.5054
 20
193.936
 30
0.0
 40
0
 41
0
  0
VERTEX
  8
0
 10
72.3817
 20
193.861
 30
0.0
 40
0
 41
0
  0
VERTEX
  8
0
 10
72.2507
 20
193.799
 30
0.0
 40
0
 41
0
  0
VERTEX
  8
0
 10
72.1128
 20
193.749
 30
0.0
 40
0
 41
0
  0
VERTEX
  8
0
 10
71.969
 20
193.711
 30
0.0
 40
0
 41
0
  0
VERTEX
  8
0
 10
71.8201
 20
193.689
 30
0.0
 40
0
 41
0
  0
VERTEX
  8
0
 10
71.7051
 20
193.681
 30
0.0
 40
0
 41
0
  0
VERTEX
  8
0
 10
71.6668
 20
193.681
 30
0.0
 40
0
 41
0
  0
VERTEX
  8
0
 10
71.6285
 20
193.681
 30
0.0
 40
0
 41
0
  0
VERTEX
  8
0
 10
71.5133
 20
193.689
 30
0.0
 40
0
 41
0
  0
VERTEX
  8
0
 10
71.3644
 20
193.711
 30
0.0
 40
0
 41
0
  0
VERTEX
  8
0
 10
71.2207
 20
193.749
 30
0.0
 40
0
 41
0
  0
VERTEX
  8
0
 10
71.0828
 20
193.799
 30
0.0
 40
0
 41
0
  0
VERTEX
  8
0
 10
70.9518
 20
193.861
 30
0.0
 40
0
 41
0
  0
VERTEX
  8
0
 10
70.8281
 20
193.936
 30
0.0
 40
0
 41
0
  0
VERTEX
  8
0
 10
70.7126
 20
194.024
 30
0.0
 40
0
 41
0
  0
VERTEX
  8
0
 10
70.6061
 20
194.119
 30
0.0
 40
0
 41
0
  0
VERTEX
  8
0
 10
70.5093
 20
194.226
 30
0.0
 40
0
 41
0
  0
VERTEX
  8
0
 10
70.4229
 20
194.342
 30
0.0
 40
0
 41
0
  0
VERTEX
  8
0
 10
70.3478
 20
194.465
 30
0.0
 40
0
 41
0
  0
VERTEX
  8
0
 10
70.2846
 20
194.597
 30
0.0
 40
0
 41
0
  0
VERTEX
  8
0
 10
70.2342
 20
194.735
 30
0.0
 40
0
 41
0
  0
VERTEX
  8
0
 10
70.1972
 20
194.878
 30
0.0
 40
0
 41
0
  0
VERTEX
  8
0
 10
70.1744
 20
195.028
 30
0.0
 40
0
 41
0
  0
VERTEX
  8
0
 10
70.1668
 20
195.142
 30
0.0
 40
0
 41
0
  0
VERTEX
  8
0
 10
70.1668
 20
195.181
 30
0.0
 40
0
 41
0
  0
VERTEX
  8
0
 10
70.1668
 20
195.219
 30
0.0
 40
0
 41
0
  0
VERTEX
  8
0
 10
70.1744
 20
195.333
 30
0.0
 40
0
 41
0
  0
VERTEX
  8
0
 10
70.1972
 20
195.483
 30
0.0
 40
0
 41
0
  0
VERTEX
  8
0
 10
70.2342
 20
195.626
 30
0.0
 40
0
 41
0
  0
VERTEX
  8
0
 10
70.2846
 20
195.764
 30
0.0
 40
0
 41
0
  0
VERTEX
  8
0
 10
70.3478
 20
195.896
 30
0.0
 40
0
 41
0
  0
VERTEX
  8
0
 10
70.4229
 20
196.019
 30
0.0
 40
0
 41
0
  0
VERTEX
  8
0
 10
70.5093
 20
196.135
 30
0.0
 40
0
 41
0
  0
VERTEX
  8
0
 10
70.6061
 20
196.242
 30
0.0
 40
0
 41
0
  0
VERTEX
  8
0
 10
70.7126
 20
196.337
 30
0.0
 40
0
 41
0
  0
VERTEX
  8
0
 10
70.8281
 20
196.425
 30
0.0
 40
0
 41
0
  0
VERTEX
  8
0
 10
70.9518
 20
196.5
 30
0.0
 40
0
 41
0
  0
VERTEX
  8
0
 10
71.0828
 20
196.563
 30
0.0
 40
0
 41
0
  0
VERTEX
  8
0
 10
71.2207
 20
196.612
 30
0.0
 40
0
 41
0
  0
VERTEX
  8
0
 10
71.3644
 20
196.65
 30
0.0
 40
0
 41
0
  0
VERTEX
  8
0
 10
71.5133
 20
196.672
 30
0.0
 40
0
 41
0
  0
VERTEX
  8
0
 10
71.6285
 20
196.681
 30
0.0
 40
0
 41
0
  0
VERTEX
  8
0
 10
71.6668
 20
196.681
 30
0.0
 40
0
 41
0
  0
SEQEND
 8
0
  0
POLYLINE
  8
0
 62
     0
 66
     1
 10
0
 20
0
 30
0.0
 70
     1
 40
24
 41
24
  0
VERTEX
  8
0
 10
71.6668
 20
196.681
 30
0.0
 40
0.333333
 41
0.333333
  0
VERTEX
  8
0
 10
71.7051
 20
196.681
 30
0.0
 40
0.333333
 41
0.333333
  0
VERTEX
  8
0
 10
71.8201
 20
196.672
 30
0.0
 40
0.333333
 41
0.333333
  0
VERTEX
  8
0
 10
71.969
 20
196.65
 30
0.0
 40
0.333333
 41
0.333333
  0
VERTEX
  8
0
 10
72.1128
 20
196.612
 30
0.0
 40
0.333333
 41
0.333333
  0
VERTEX
  8
0
 10
72.2507
 20
196.563
 30
0.0
 40
0.333333
 41
0.333333
  0
VERTEX
  8
0
 10
72.3817
 20
196.5
 30
0.0
 40
0.333333
 41
0.333333
  0
VERTEX
  8
0
 10
72.5054
 20
196.425
 30
0.0
 40
0.333333
 41
0.333333
  0
VERTEX
  8
0
 10
72.6208
 20
196.337
 30
0.0
 40
0.333333
 41
0.333333
  0
VERTEX
  8
0
 10
72.7275
 20
196.242
 30
0.0
 40
0.333333
 41
0.333333
  0
VERTEX
  8
0
 10
72.8242
 20
196.135
 30
0.0
 40
0.333333
 41
0.333333
  0
VERTEX
  8
0
 10
72.9106
 20
196.019
 30
0.0
 40
0.333333
 41
0.333333
  0
VERTEX
  8
0
 10
72.9857
 20
195.896
 30
0.0
 40
0.333333
 41
0.333333
  0
VERTEX
  8
0
 10
73.0489
 20
195.764
 30
0.0
 40
0.333333
 41
0.333333
  0
VERTEX
  8
0
 10
73.0993
 20
195.626
 30
0.0
 40
0.333333
 41
0.333333
  0
VERTEX
  8
0
 10
73.1363
 20
195.483
 30
0.0
 40
0.333333
 41
0.333333
  0
VERTEX
  8
0
 10
73.159
 20
195.333
 30
0.0
 40
0.333333
 41
0.333333
  0
VERTEX
  8
0
 10
73.1668
 20
195.219
 30
0.0
 40
0.333333
 41
0.333333
  0
VERTEX
  8
0
 10
73.1668
 20
195.181
 30
0.0
 40
0.333333
 41
0.333333
  0
VERTEX
  8
0
 10
73.1668
 20
195.142
 30
0.0
 40
0.333333
 41
0.333333
  0
VERTEX
  8
0
 10
73.159
 20
195.028
 30
0.0
 40
0.333333
 41
0.333333
  0
VERTEX
  8
0
 10
73.1363
 20
194.878
 30
0.0
 40
0.333333
 41
0.333333
  0
VERTEX
  8
0
 10
73.0993
 20
194.735
 30
0.0
 40
0.333333
 41
0.333333
  0
VERTEX
  8
0
 10
73.0489
 20
194.597
 30
0.0
 40
0.333333
 41
0.333333
  0
VERTEX
  8
0
 10
72.9857
 20
194.465
 30
0.0
 40
0.333333
 41
0.333333
  0
VERTEX
  8
0
 10
72.9106
 20
194.342
 30
0.0
 40
0.333333
 41
0.333333
  0
VERTEX
  8
0
 10
72.8242
 20
194.226
 30
0.0
 40
0.333333
 41
0.333333
  0
VERTEX
  8
0
 10
72.7275
 20
194.119
 30
0.0
 40
0.333333
 41
0.333333
  0
VERTEX
  8
0
 10
72.6208
 20
194.024
 30
0.0
 40
0.333333
 41
0.333333
  0
VERTEX
  8
0
 10
72.5054
 20
193.936
 30
0.0
 40
0.333333
 41
0.333333
  0
VERTEX
  8
0
 10
72.3817
 20
193.861
 30
0.0
 40
0.333333
 41
0.333333
  0
VERTEX
  8
0
 10
72.2507
 20
193.799
 30
0.0
 40
0.333333
 41
0.333333
  0
VERTEX
  8
0
 10
72.1128
 20
193.749
 30
0.0
 40
0.333333
 41
0.333333
  0
VERTEX
  8
0
 10
71.969
 20
193.711
 30
0.0
 40
0.333333
 41
0.333333
  0
VERTEX
  8
0
 10
71.8201
 20
193.689
 30
0.0
 40
0.333333
 41
0.333333
  0
VERTEX
  8
0
 10
71.7051
 20
193.681
 30
0.0
 40
0.333333
 41
0.333333
  0
VERTEX
  8
0
 10
71.6668
 20
193.681
 30
0.0
 40
0.333333
 41
0.333333
  0
VERTEX
  8
0
 10
71.6285
 20
193.681
 30
0.0
 40
0.333333
 41
0.333333
  0
VERTEX
  8
0
 10
71.5133
 20
193.689
 30
0.0
 40
0.333333
 41
0.333333
  0
VERTEX
  8
0
 10
71.3644
 20
193.711
 30
0.0
 40
0.333333
 41
0.333333
  0
VERTEX
  8
0
 10
71.2207
 20
193.749
 30
0.0
 40
0.333333
 41
0.333333
  0
VERTEX
  8
0
 10
71.0828
 20
193.799
 30
0.0
 40
0.333333
 41
0.333333
  0
VERTEX
  8
0
 10
70.9518
 20
193.861
 30
0.0
 40
0.333333
 41
0.333333
  0
VERTEX
  8
0
 10
70.8281
 20
193.936
 30
0.0
 40
0.333333
 41
0.333333
  0
VERTEX
  8
0
 10
70.7126
 20
194.024
 30
0.0
 40
0.333333
 41
0.333333
  0
VERTEX
  8
0
 10
70.6061
 20
194.119
 30
0.0
 40
0.333333
 41
0.333333
  0
VERTEX
  8
0
 10
70.5093
 20
194.226
 30
0.0
 40
0.333333
 41
0.333333
  0
VERTEX
  8
0
 10
70.4229
 20
194.342
 30
0.0
 40
0.333333
 41
0.333333
  0
VERTEX
  8
0
 10
70.3478
 20
194.465
 30
0.0
 40
0.333333
 41
0.333333
  0
VERTEX
  8
0
 10
70.2846
 20
194.597
 30
0.0
 40
0.333333
 41
0.333333
  0
VERTEX
  8
0
 10
70.2342
 20
194.735
 30
0.0
 40
0.333333
 41
0.333333
  0
VERTEX
  8
0
 10
70.1972
 20
194.878
 30
0.0
 40
0.333333
 41
0.333333
  0
VERTEX
  8
0
 10
70.1744
 20
195.028
 30
0.0
 40
0.333333
 41
0.333333
  0
VERTEX
  8
0
 10
70.1668
 20
195.142
 30
0.0
 40
0.333333
 41
0.333333
  0
VERTEX
  8
0
 10
70.1668
 20
195.181
 30
0.0
 40
0.333333
 41
0.333333
  0
VERTEX
  8
0
 10
70.1668
 20
195.219
 30
0.0
 40
0.333333
 41
0.333333
  0
VERTEX
  8
0
 10
70.1744
 20
195.333
 30
0.0
 40
0.333333
 41
0.333333
  0
VERTEX
  8
0
 10
70.1972
 20
195.483
 30
0.0
 40
0.333333
 41
0.333333
  0
VERTEX
  8
0
 10
70.2342
 20
195.626
 30
0.0
 40
0.333333
 41
0.333333
  0
VERTEX
  8
0
 10
70.2846
 20
195.764
 30
0.0
 40
0.333333
 41
0.333333
  0
VERTEX
  8
0
 10
70.3478
 20
195.896
 30
0.0
 40
0.333333
 41
0.333333
  0
VERTEX
  8
0
 10
70.4229
 20
196.019
 30
0.0
 40
0.333333
 41
0.333333
  0
VERTEX
  8
0
 10
70.5093
 20
196.135
 30
0.0
 40
0.333333
 41
0.333333
  0
VERTEX
  8
0
 10
70.6061
 20
196.242
 30
0.0
 40
0.333333
 41
0.333333
  0
VERTEX
  8
0
 10
70.7126
 20
196.337
 30
0.0
 40
0.333333
 41
0.333333
  0
VERTEX
  8
0
 10
70.8281
 20
196.425
 30
0.0
 40
0.333333
 41
0.333333
  0
VERTEX
  8
0
 10
70.9518
 20
196.5
 30
0.0
 40
0.333333
 41
0.333333
  0
VERTEX
  8
0
 10
71.0828
 20
196.563
 30
0.0
 40
0.333333
 41
0.333333
  0
VERTEX
  8
0
 10
71.2207
 20
196.612
 30
0.0
 40
0.333333
 41
0.333333
  0
VERTEX
  8
0
 10
71.3644
 20
196.65
 30
0.0
 40
0.333333
 41
0.333333
  0
VERTEX
  8
0
 10
71.5133
 20
196.672
 30
0.0
 40
0.333333
 41
0.333333
  0
VERTEX
  8
0
 10
71.6285
 20
196.681
 30
0.0
 40
0.333333
 41
0.333333
  0
VERTEX
  8
0
 10
71.6668
 20
196.681
 30
0.0
 40
0.333333
 41
0.333333
  0
SEQEND
 8
0
  0
POLYLINE
  8
0
 62
     0
 66
     1
 10
0
 20
0
 30
0.0
 70
     1
 40
0
 41
0
  0
VERTEX
  8
0
 10
55.6668
 20
196.681
 30
0.0
 40
0
 41
0
  0
VERTEX
  8
0
 10
55.7051
 20
196.681
 30
0.0
 40
0
 41
0
  0
VERTEX
  8
0
 10
55.8201
 20
196.672
 30
0.0
 40
0
 41
0
  0
VERTEX
  8
0
 10
55.969
 20
196.65
 30
0.0
 40
0
 41
0
  0
VERTEX
  8
0
 10
56.1128
 20
196.612
 30
0.0
 40
0
 41
0
  0
VERTEX
  8
0
 10
56.2506
 20
196.563
 30
0.0
 40
0
 41
0
  0
VERTEX
  8
0
 10
56.3817
 20
196.5
 30
0.0
 40
0
 41
0
  0
VERTEX
  8
0
 10
56.5054
 20
196.425
 30
0.0
 40
0
 41
0
  0
VERTEX
  8
0
 10
56.6208
 20
196.337
 30
0.0
 40
0
 41
0
  0
VERTEX
  8
0
 10
56.7274
 20
196.242
 30
0.0
 40
0
 41
0
  0
VERTEX
  8
0
 10
56.8242
 20
196.135
 30
0.0
 40
0
 41
0
  0
VERTEX
  8
0
 10
56.9106
 20
196.019
 30
0.0
 40
0
 41
0
  0
VERTEX
  8
0
 10
56.9857
 20
195.896
 30
0.0
 40
0
 41
0
  0
VERTEX
  8
0
 10
57.0489
 20
195.764
 30
0.0
 40
0
 41
0
  0
VERTEX
  8
0
 10
57.0993
 20
195.626
 30
0.0
 40
0
 41
0
  0
VERTEX
  8
0
 10
57.1363
 20
195.483
 30
0.0
 40
0
 41
0
  0
VERTEX
  8
0
 10
57.159
 20
195.333
 30
0.0
 40
0
 41
0
  0
VERTEX
  8
0
 10
57.1668
 20
195.219
 30
0.0
 40
0
 41
0
  0
VERTEX
  8
0
 10
57.1668
 20
195.181
 30
0.0
 40
0
 41
0
  0
VERTEX
  8
0
 10
57.1668
 20
195.142
 30
0.0
 40
0
 41
0
  0
VERTEX
  8
0
 10
57.159
 20
195.028
 30
0.0
 40
0
 41
0
  0
VERTEX
  8
0
 10
57.1363
 20
194.878
 30
0.0
 40
0
 41
0
  0
VERTEX
  8
0
 10
57.0993
 20
194.735
 30
0.0
 40
0
 41
0
  0
VERTEX
  8
0
 10
57.0489
 20
194.597
 30
0.0
 40
0
 41
0
  0
VERTEX
  8
0
 10
56.9857
 20
194.465
 30
0.0
 40
0
 41
0
  0
VERTEX
  8
0
 10
56.9106
 20
194.342
 30
0.0
 40
0
 41
0
  0
VERTEX
  8
0
 10
56.8242
 20
194.226
 30
0.0
 40
0
 41
0
  0
VERTEX
  8
0
 10
56.7274
 20
194.119
 30
0.0
 40
0
 41
0
  0
VERTEX
  8
0
 10
56.6208
 20
194.024
 30
0.0
 40
0
 41
0
  0
VERTEX
  8
0
 10
56.5054
 20
193.936
 30
0.0
 40
0
 41
0
  0
VERTEX
  8
0
 10
56.3817
 20
193.861
 30
0.0
 40
0
 41
0
  0
VERTEX
  8
0
 10
56.2506
 20
193.799
 30
0.0
 40
0
 41
0
  0
VERTEX
  8
0
 10
56.1128
 20
193.749
 30
0.0
 40
0
 41
0
  0
VERTEX
  8
0
 10
55.969
 20
193.711
 30
0.0
 40
0
 41
0
  0
VERTEX
  8
0
 10
55.8201
 20
193.689
 30
0.0
 40
0
 41
0
  0
VERTEX
  8
0
 10
55.7051
 20
193.681
 30
0.0
 40
0
 41
0
  0
VERTEX
  8
0
 10
55.6668
 20
193.681
 30
0.0
 40
0
 41
0
  0
VERTEX
  8
0
 10
55.6285
 20
193.681
 30
0.0
 40
0
 41
0
  0
VERTEX
  8
0
 10
55.5133
 20
193.689
 30
0.0
 40
0
 41
0
  0
VERTEX
  8
0
 10
55.3644
 20
193.711
 30
0.0
 40
0
 41
0
  0
VERTEX
  8
0
 10
55.2207
 20
193.749
 30
0.0
 40
0
 41
0
  0
VERTEX
  8
0
 10
55.0828
 20
193.799
 30
0.0
 40
0
 41
0
  0
VERTEX
  8
0
 10
54.9518
 20
193.861
 30
0.0
 40
0
 41
0
  0
VERTEX
  8
0
 10
54.8281
 20
193.936
 30
0.0
 40
0
 41
0
  0
VERTEX
  8
0
 10
54.7126
 20
194.024
 30
0.0
 40
0
 41
0
  0
VERTEX
  8
0
 10
54.6061
 20
194.119
 30
0.0
 40
0
 41
0
  0
VERTEX
  8
0
 10
54.5093
 20
194.226
 30
0.0
 40
0
 41
0
  0
VERTEX
  8
0
 10
54.4229
 20
194.342
 30
0.0
 40
0
 41
0
  0
VERTEX
  8
0
 10
54.3478
 20
194.465
 30
0.0
 40
0
 41
0
  0
VERTEX
  8
0
 10
54.2846
 20
194.597
 30
0.0
 40
0
 41
0
  0
VERTEX
  8
0
 10
54.2342
 20
194.735
 30
0.0
 40
0
 41
0
  0
VERTEX
  8
0
 10
54.1972
 20
194.878
 30
0.0
 40
0
 41
0
  0
VERTEX
  8
0
 10
54.1744
 20
195.028
 30
0.0
 40
0
 41
0
  0
VERTEX
  8
0
 10
54.1668
 20
195.142
 30
0.0
 40
0
 41
0
  0
VERTEX
  8
0
 10
54.1668
 20
195.181
 30
0.0
 40
0
 41
0
  0
VERTEX
  8
0
 10
54.1668
 20
195.219
 30
0.0
 40
0
 41
0
  0
VERTEX
  8
0
 10
54.1744
 20
195.333
 30
0.0
 40
0
 41
0
  0
VERTEX
  8
0
 10
54.1972
 20
195.483
 30
0.0
 40
0
 41
0
  0
VERTEX
  8
0
 10
54.2342
 20
195.626
 30
0.0
 40
0
 41
0
  0
VERTEX
  8
0
 10
54.2846
 20
195.764
 30
0.0
 40
0
 41
0
  0
VERTEX
  8
0
 10
54.3478
 20
195.896
 30
0.0
 40
0
 41
0
  0
VERTEX
  8
0
 10
54.4229
 20
196.019
 30
0.0
 40
0
 41
0
  0
VERTEX
  8
0
 10
54.5093
 20
196.135
 30
0.0
 40
0
 41
0
  0
VERTEX
  8
0
 10
54.6061
 20
196.242
 30
0.0
 40
0
 41
0
  0
VERTEX
  8
0
 10
54.7126
 20
196.337
 30
0.0
 40
0
 41
0
  0
VERTEX
  8
0
 10
54.8281
 20
196.425
 30
0.0
 40
0
 41
0
  0
VERTEX
  8
0
 10
54.9518
 20
196.5
 30
0.0
 40
0
 41
0
  0
VERTEX
  8
0
 10
55.0828
 20
196.563
 30
0.0
 40
0
 41
0
  0
VERTEX
  8
0
 10
55.2207
 20
196.612
 30
0.0
 40
0
 41
0
  0
VERTEX
  8
0
 10
55.3644
 20
196.65
 30
0.0
 40
0
 41
0
  0
VERTEX
  8
0
 10
55.5133
 20
196.672
 30
0.0
 40
0
 41
0
  0
VERTEX
  8
0
 10
55.6285
 20
196.681
 30
0.0
 40
0
 41
0
  0
VERTEX
  8
0
 10
55.6668
 20
196.681
 30
0.0
 40
0
 41
0
  0
SEQEND
 8
0
  0
POLYLINE
  8
0
 62
     0
 66
     1
 10
0
 20
0
 30
0.0
 70
     1
 40
24
 41
24
  0
VERTEX
  8
0
 10
55.6668
 20
196.681
 30
0.0
 40
0.333333
 41
0.333333
  0
VERTEX
  8
0
 10
55.7051
 20
196.681
 30
0.0
 40
0.333333
 41
0.333333
  0
VERTEX
  8
0
 10
55.8201
 20
196.672
 30
0.0
 40
0.333333
 41
0.333333
  0
VERTEX
  8
0
 10
55.969
 20
196.65
 30
0.0
 40
0.333333
 41
0.333333
  0
VERTEX
  8
0
 10
56.1128
 20
196.612
 30
0.0
 40
0.333333
 41
0.333333
  0
VERTEX
  8
0
 10
56.2506
 20
196.563
 30
0.0
 40
0.333333
 41
0.333333
  0
VERTEX
  8
0
 10
56.3817
 20
196.5
 30
0.0
 40
0.333333
 41
0.333333
  0
VERTEX
  8
0
 10
56.5054
 20
196.425
 30
0.0
 40
0.333333
 41
0.333333
  0
VERTEX
  8
0
 10
56.6208
 20
196.337
 30
0.0
 40
0.333333
 41
0.333333
  0
VERTEX
  8
0
 10
56.7274
 20
196.242
 30
0.0
 40
0.333333
 41
0.333333
  0
VERTEX
  8
0
 10
56.8242
 20
196.135
 30
0.0
 40
0.333333
 41
0.333333
  0
VERTEX
  8
0
 10
56.9106
 20
196.019
 30
0.0
 40
0.333333
 41
0.333333
  0
VERTEX
  8
0
 10
56.9857
 20
195.896
 30
0.0
 40
0.333333
 41
0.333333
  0
VERTEX
  8
0
 10
57.0489
 20
195.764
 30
0.0
 40
0.333333
 41
0.333333
  0
VERTEX
  8
0
 10
57.0993
 20
195.626
 30
0.0
 40
0.333333
 41
0.333333
  0
VERTEX
  8
0
 10
57.1363
 20
195.483
 30
0.0
 40
0.333333
 41
0.333333
  0
VERTEX
  8
0
 10
57.159
 20
195.333
 30
0.0
 40
0.333333
 41
0.333333
  0
VERTEX
  8
0
 10
57.1668
 20
195.219
 30
0.0
 40
0.333333
 41
0.333333
  0
VERTEX
  8
0
 10
57.1668
 20
195.181
 30
0.0
 40
0.333333
 41
0.333333
  0
VERTEX
  8
0
 10
57.1668
 20
195.142
 30
0.0
 40
0.333333
 41
0.333333
  0
VERTEX
  8
0
 10
57.159
 20
195.028
 30
0.0
 40
0.333333
 41
0.333333
  0
VERTEX
  8
0
 10
57.1363
 20
194.878
 30
0.0
 40
0.333333
 41
0.333333
  0
VERTEX
  8
0
 10
57.0993
 20
194.735
 30
0.0
 40
0.333333
 41
0.333333
  0
VERTEX
  8
0
 10
57.0489
 20
194.597
 30
0.0
 40
0.333333
 41
0.333333
  0
VERTEX
  8
0
 10
56.9857
 20
194.465
 30
0.0
 40
0.333333
 41
0.333333
  0
VERTEX
  8
0
 10
56.9106
 20
194.342
 30
0.0
 40
0.333333
 41
0.333333
  0
VERTEX
  8
0
 10
56.8242
 20
194.226
 30
0.0
 40
0.333333
 41
0.333333
  0
VERTEX
  8
0
 10
56.7274
 20
194.119
 30
0.0
 40
0.333333
 41
0.333333
  0
VERTEX
  8
0
 10
56.6208
 20
194.024
 30
0.0
 40
0.333333
 41
0.333333
  0
VERTEX
  8
0
 10
56.5054
 20
193.936
 30
0.0
 40
0.333333
 41
0.333333
  0
VERTEX
  8
0
 10
56.3817
 20
193.861
 30
0.0
 40
0.333333
 41
0.333333
  0
VERTEX
  8
0
 10
56.2506
 20
193.799
 30
0.0
 40
0.333333
 41
0.333333
  0
VERTEX
  8
0
 10
56.1128
 20
193.749
 30
0.0
 40
0.333333
 41
0.333333
  0
VERTEX
  8
0
 10
55.969
 20
193.711
 30
0.0
 40
0.333333
 41
0.333333
  0
VERTEX
  8
0
 10
55.8201
 20
193.689
 30
0.0
 40
0.333333
 41
0.333333
  0
VERTEX
  8
0
 10
55.7051
 20
193.681
 30
0.0
 40
0.333333
 41
0.333333
  0
VERTEX
  8
0
 10
55.6668
 20
193.681
 30
0.0
 40
0.333333
 41
0.333333
  0
VERTEX
  8
0
 10
55.6285
 20
193.681
 30
0.0
 40
0.333333
 41
0.333333
  0
VERTEX
  8
0
 10
55.5133
 20
193.689
 30
0.0
 40
0.333333
 41
0.333333
  0
VERTEX
  8
0
 10
55.3644
 20
193.711
 30
0.0
 40
0.333333
 41
0.333333
  0
VERTEX
  8
0
 10
55.2207
 20
193.749
 30
0.0
 40
0.333333
 41
0.333333
  0
VERTEX
  8
0
 10
55.0828
 20
193.799
 30
0.0
 40
0.333333
 41
0.333333
  0
VERTEX
  8
0
 10
54.9518
 20
193.861
 30
0.0
 40
0.333333
 41
0.333333
  0
VERTEX
  8
0
 10
54.8281
 20
193.936
 30
0.0
 40
0.333333
 41
0.333333
  0
VERTEX
  8
0
 10
54.7126
 20
194.024
 30
0.0
 40
0.333333
 41
0.333333
  0
VERTEX
  8
0
 10
54.6061
 20
194.119
 30
0.0
 40
0.333333
 41
0.333333
  0
VERTEX
  8
0
 10
54.5093
 20
194.226
 30
0.0
 40
0.333333
 41
0.333333
  0
VERTEX
  8
0
 10
54.4229
 20
194.342
 30
0.0
 40
0.333333
 41
0.333333
  0
VERTEX
  8
0
 10
54.3478
 20
194.465
 30
0.0
 40
0.333333
 41
0.333333
  0
VERTEX
  8
0
 10
54.2846
 20
194.597
 30
0.0
 40
0.333333
 41
0.333333
  0
VERTEX
  8
0
 10
54.2342
 20
194.735
 30
0.0
 40
0.333333
 41
0.333333
  0
VERTEX
  8
0
 10
54.1972
 20
194.878
 30
0.0
 40
0.333333
 41
0.333333
  0
VERTEX
  8
0
 10
54.1744
 20
195.028
 30
0.0
 40
0.333333
 41
0.333333
  0
VERTEX
  8
0
 10
54.1668
 20
195.142
 30
0.0
 40
0.333333
 41
0.333333
  0
VERTEX
  8
0
 10
54.1668
 20
195.181
 30
0.0
 40
0.333333
 41
0.333333
  0
VERTEX
  8
0
 10
54.1668
 20
195.219
 30
0.0
 40
0.333333
 41
0.333333
  0
VERTEX
  8
0
 10
54.1744
 20
195.333
 30
0.0
 40
0.333333
 41
0.333333
  0
VERTEX
  8
0
 10
54.1972
 20
195.483
 30
0.0
 40
0.333333
 41
0.333333
  0
VERTEX
  8
0
 10
54.2342
 20
195.626
 30
0.0
 40
0.333333
 41
0.333333
  0
VERTEX
  8
0
 10
54.2846
 20
195.764
 30
0.0
 40
0.333333
 41
0.333333
  0
VERTEX
  8
0
 10
54.3478
 20
195.896
 30
0.0
 40
0.333333
 41
0.333333
  0
VERTEX
  8
0
 10
54.4229
 20
196.019
 30
0.0
 40
0.333333
 41
0.333333
  0
VERTEX
  8
0
 10
54.5093
 20
196.135
 30
0.0
 40
0.333333
 41
0.333333
  0
VERTEX
  8
0
 10
54.6061
 20
196.242
 30
0.0
 40
0.333333
 41
0.333333
  0
VERTEX
  8
0
 10
54.7126
 20
196.337
 30
0.0
 40
0.333333
 41
0.333333
  0
VERTEX
  8
0
 10
54.8281
 20
196.425
 30
0.0
 40
0.333333
 41
0.333333
  0
VERTEX
  8
0
 10
54.9518
 20
196.5
 30
0.0
 40
0.333333
 41
0.333333
  0
VERTEX
  8
0
 10
55.0828
 20
196.563
 30
0.0
 40
0.333333
 41
0.333333
  0
VERTEX
  8
0
 10
55.2207
 20
196.612
 30
0.0
 40
0.333333
 41
0.333333
  0
VERTEX
  8
0
 10
55.3644
 20
196.65
 30
0.0
 40
0.333333
 41
0.333333
  0
VERTEX
  8
0
 10
55.5133
 20
196.672
 30
0.0
 40
0.333333
 41
0.333333
  0
VERTEX
  8
0
 10
55.6285
 20
196.681
 30
0.0
 40
0.333333
 41
0.333333
  0
VERTEX
  8
0
 10
55.6668
 20
196.681
 30
0.0
 40
0.333333
 41
0.333333
  0
SEQEND
 8
0
  0
POLYLINE
  8
0
 62
     0
 66
     1
 10
0
 20
0
 30
0.0
 70
     1
 40
0
 41
0
  0
VERTEX
  8
0
 10
45.6667
 20
196.681
 30
0.0
 40
0
 41
0
  0
VERTEX
  8
0
 10
45.705
 20
196.681
 30
0.0
 40
0
 41
0
  0
VERTEX
  8
0
 10
45.82
 20
196.672
 30
0.0
 40
0
 41
0
  0
VERTEX
  8
0
 10
45.969
 20
196.65
 30
0.0
 40
0
 41
0
  0
VERTEX
  8
0
 10
46.1128
 20
196.612
 30
0.0
 40
0
 41
0
  0
VERTEX
  8
0
 10
46.2506
 20
196.563
 30
0.0
 40
0
 41
0
  0
VERTEX
  8
0
 10
46.3817
 20
196.5
 30
0.0
 40
0
 41
0
  0
VERTEX
  8
0
 10
46.5054
 20
196.425
 30
0.0
 40
0
 41
0
  0
VERTEX
  8
0
 10
46.6208
 20
196.337
 30
0.0
 40
0
 41
0
  0
VERTEX
  8
0
 10
46.7274
 20
196.242
 30
0.0
 40
0
 41
0
  0
VERTEX
  8
0
 10
46.8242
 20
196.135
 30
0.0
 40
0
 41
0
  0
VERTEX
  8
0
 10
46.9106
 20
196.019
 30
0.0
 40
0
 41
0
  0
VERTEX
  8
0
 10
46.9857
 20
195.896
 30
0.0
 40
0
 41
0
  0
VERTEX
  8
0
 10
47.0489
 20
195.764
 30
0.0
 40
0
 41
0
  0
VERTEX
  8
0
 10
47.0993
 20
195.626
 30
0.0
 40
0
 41
0
  0
VERTEX
  8
0
 10
47.1363
 20
195.483
 30
0.0
 40
0
 41
0
  0
VERTEX
  8
0
 10
47.159
 20
195.333
 30
0.0
 40
0
 41
0
  0
VERTEX
  8
0
 10
47.1667
 20
195.219
 30
0.0
 40
0
 41
0
  0
VERTEX
  8
0
 10
47.1667
 20
195.181
 30
0.0
 40
0
 41
0
  0
VERTEX
  8
0
 10
47.1667
 20
195.142
 30
0.0
 40
0
 41
0
  0
VERTEX
  8
0
 10
47.159
 20
195.028
 30
0.0
 40
0
 41
0
  0
VERTEX
  8
0
 10
47.1363
 20
194.878
 30
0.0
 40
0
 41
0
  0
VERTEX
  8
0
 10
47.0993
 20
194.735
 30
0.0
 40
0
 41
0
  0
VERTEX
  8
0
 10
47.0489
 20
194.597
 30
0.0
 40
0
 41
0
  0
VERTEX
  8
0
 10
46.9857
 20
194.465
 30
0.0
 40
0
 41
0
  0
VERTEX
  8
0
 10
46.9106
 20
194.342
 30
0.0
 40
0
 41
0
  0
VERTEX
  8
0
 10
46.8242
 20
194.226
 30
0.0
 40
0
 41
0
  0
VERTEX
  8
0
 10
46.7274
 20
194.119
 30
0.0
 40
0
 41
0
  0
VERTEX
  8
0
 10
46.6208
 20
194.024
 30
0.0
 40
0
 41
0
  0
VERTEX
  8
0
 10
46.5054
 20
193.936
 30
0.0
 40
0
 41
0
  0
VERTEX
  8
0
 10
46.3817
 20
193.861
 30
0.0
 40
0
 41
0
  0
VERTEX
  8
0
 10
46.2506
 20
193.799
 30
0.0
 40
0
 41
0
  0
VERTEX
  8
0
 10
46.1128
 20
193.749
 30
0.0
 40
0
 41
0
  0
VERTEX
  8
0
 10
45.969
 20
193.711
 30
0.0
 40
0
 41
0
  0
VERTEX
  8
0
 10
45.82
 20
193.689
 30
0.0
 40
0
 41
0
  0
VERTEX
  8
0
 10
45.705
 20
193.681
 30
0.0
 40
0
 41
0
  0
VERTEX
  8
0
 10
45.6667
 20
193.681
 30
0.0
 40
0
 41
0
  0
VERTEX
  8
0
 10
45.6283
 20
193.681
 30
0.0
 40
0
 41
0
  0
VERTEX
  8
0
 10
45.5133
 20
193.689
 30
0.0
 40
0
 41
0
  0
VERTEX
  8
0
 10
45.3644
 20
193.711
 30
0.0
 40
0
 41
0
  0
VERTEX
  8
0
 10
45.2207
 20
193.749
 30
0.0
 40
0
 41
0
  0
VERTEX
  8
0
 10
45.0828
 20
193.799
 30
0.0
 40
0
 41
0
  0
VERTEX
  8
0
 10
44.9517
 20
193.861
 30
0.0
 40
0
 41
0
  0
VERTEX
  8
0
 10
44.8281
 20
193.936
 30
0.0
 40
0
 41
0
  0
VERTEX
  8
0
 10
44.7125
 20
194.024
 30
0.0
 40
0
 41
0
  0
VERTEX
  8
0
 10
44.6061
 20
194.119
 30
0.0
 40
0
 41
0
  0
VERTEX
  8
0
 10
44.5092
 20
194.226
 30
0.0
 40
0
 41
0
  0
VERTEX
  8
0
 10
44.4229
 20
194.342
 30
0.0
 40
0
 41
0
  0
VERTEX
  8
0
 10
44.3478
 20
194.465
 30
0.0
 40
0
 41
0
  0
VERTEX
  8
0
 10
44.2846
 20
194.597
 30
0.0
 40
0
 41
0
  0
VERTEX
  8
0
 10
44.2342
 20
194.735
 30
0.0
 40
0
 41
0
  0
VERTEX
  8
0
 10
44.1972
 20
194.878
 30
0.0
 40
0
 41
0
  0
VERTEX
  8
0
 10
44.1744
 20
195.028
 30
0.0
 40
0
 41
0
  0
VERTEX
  8
0
 10
44.1667
 20
195.142
 30
0.0
 40
0
 41
0
  0
VERTEX
  8
0
 10
44.1667
 20
195.181
 30
0.0
 40
0
 41
0
  0
VERTEX
  8
0
 10
44.1667
 20
195.219
 30
0.0
 40
0
 41
0
  0
VERTEX
  8
0
 10
44.1744
 20
195.333
 30
0.0
 40
0
 41
0
  0
VERTEX
  8
0
 10
44.1972
 20
195.483
 30
0.0
 40
0
 41
0
  0
VERTEX
  8
0
 10
44.2342
 20
195.626
 30
0.0
 40
0
 41
0
  0
VERTEX
  8
0
 10
44.2846
 20
195.764
 30
0.0
 40
0
 41
0
  0
VERTEX
  8
0
 10
44.3478
 20
195.896
 30
0.0
 40
0
 41
0
  0
VERTEX
  8
0
 10
44.4229
 20
196.019
 30
0.0
 40
0
 41
0
  0
VERTEX
  8
0
 10
44.5092
 20
196.135
 30
0.0
 40
0
 41
0
  0
VERTEX
  8
0
 10
44.6061
 20
196.242
 30
0.0
 40
0
 41
0
  0
VERTEX
  8
0
 10
44.7125
 20
196.337
 30
0.0
 40
0
 41
0
  0
VERTEX
  8
0
 10
44.8281
 20
196.425
 30
0.0
 40
0
 41
0
  0
VERTEX
  8
0
 10
44.9517
 20
196.5
 30
0.0
 40
0
 41
0
  0
VERTEX
  8
0
 10
45.0828
 20
196.563
 30
0.0
 40
0
 41
0
  0
VERTEX
  8
0
 10
45.2207
 20
196.612
 30
0.0
 40
0
 41
0
  0
VERTEX
  8
0
 10
45.3644
 20
196.65
 30
0.0
 40
0
 41
0
  0
VERTEX
  8
0
 10
45.5133
 20
196.672
 30
0.0
 40
0
 41
0
  0
VERTEX
  8
0
 10
45.6283
 20
196.681
 30
0.0
 40
0
 41
0
  0
VERTEX
  8
0
 10
45.6667
 20
196.681
 30
0.0
 40
0
 41
0
  0
SEQEND
 8
0
  0
POLYLINE
  8
0
 62
     0
 66
     1
 10
0
 20
0
 30
0.0
 70
     1
 40
24
 41
24
  0
VERTEX
  8
0
 10
45.6667
 20
196.681
 30
0.0
 40
0.333333
 41
0.333333
  0
VERTEX
  8
0
 10
45.705
 20
196.681
 30
0.0
 40
0.333333
 41
0.333333
  0
VERTEX
  8
0
 10
45.82
 20
196.672
 30
0.0
 40
0.333333
 41
0.333333
  0
VERTEX
  8
0
 10
45.969
 20
196.65
 30
0.0
 40
0.333333
 41
0.333333
  0
VERTEX
  8
0
 10
46.1128
 20
196.612
 30
0.0
 40
0.333333
 41
0.333333
  0
VERTEX
  8
0
 10
46.2506
 20
196.563
 30
0.0
 40
0.333333
 41
0.333333
  0
VERTEX
  8
0
 10
46.3817
 20
196.5
 30
0.0
 40
0.333333
 41
0.333333
  0
VERTEX
  8
0
 10
46.5054
 20
196.425
 30
0.0
 40
0.333333
 41
0.333333
  0
VERTEX
  8
0
 10
46.6208
 20
196.337
 30
0.0
 40
0.333333
 41
0.333333
  0
VERTEX
  8
0
 10
46.7274
 20
196.242
 30
0.0
 40
0.333333
 41
0.333333
  0
VERTEX
  8
0
 10
46.8242
 20
196.135
 30
0.0
 40
0.333333
 41
0.333333
  0
VERTEX
  8
0
 10
46.9106
 20
196.019
 30
0.0
 40
0.333333
 41
0.333333
  0
VERTEX
  8
0
 10
46.9857
 20
195.896
 30
0.0
 40
0.333333
 41
0.333333
  0
VERTEX
  8
0
 10
47.0489
 20
195.764
 30
0.0
 40
0.333333
 41
0.333333
  0
VERTEX
  8
0
 10
47.0993
 20
195.626
 30
0.0
 40
0.333333
 41
0.333333
  0
VERTEX
  8
0
 10
47.1363
 20
195.483
 30
0.0
 40
0.333333
 41
0.333333
  0
VERTEX
  8
0
 10
47.159
 20
195.333
 30
0.0
 40
0.333333
 41
0.333333
  0
VERTEX
  8
0
 10
47.1667
 20
195.219
 30
0.0
 40
0.333333
 41
0.333333
  0
VERTEX
  8
0
 10
47.1667
 20
195.181
 30
0.0
 40
0.333333
 41
0.333333
  0
VERTEX
  8
0
 10
47.1667
 20
195.142
 30
0.0
 40
0.333333
 41
0.333333
  0
VERTEX
  8
0
 10
47.159
 20
195.028
 30
0.0
 40
0.333333
 41
0.333333
  0
VERTEX
  8
0
 10
47.1363
 20
194.878
 30
0.0
 40
0.333333
 41
0.333333
  0
VERTEX
  8
0
 10
47.0993
 20
194.735
 30
0.0
 40
0.333333
 41
0.333333
  0
VERTEX
  8
0
 10
47.0489
 20
194.597
 30
0.0
 40
0.333333
 41
0.333333
  0
VERTEX
  8
0
 10
46.9857
 20
194.465
 30
0.0
 40
0.333333
 41
0.333333
  0
VERTEX
  8
0
 10
46.9106
 20
194.342
 30
0.0
 40
0.333333
 41
0.333333
  0
VERTEX
  8
0
 10
46.8242
 20
194.226
 30
0.0
 40
0.333333
 41
0.333333
  0
VERTEX
  8
0
 10
46.7274
 20
194.119
 30
0.0
 40
0.333333
 41
0.333333
  0
VERTEX
  8
0
 10
46.6208
 20
194.024
 30
0.0
 40
0.333333
 41
0.333333
  0
VERTEX
  8
0
 10
46.5054
 20
193.936
 30
0.0
 40
0.333333
 41
0.333333
  0
VERTEX
  8
0
 10
46.3817
 20
193.861
 30
0.0
 40
0.333333
 41
0.333333
  0
VERTEX
  8
0
 10
46.2506
 20
193.799
 30
0.0
 40
0.333333
 41
0.333333
  0
VERTEX
  8
0
 10
46.1128
 20
193.749
 30
0.0
 40
0.333333
 41
0.333333
  0
VERTEX
  8
0
 10
45.969
 20
193.711
 30
0.0
 40
0.333333
 41
0.333333
  0
VERTEX
  8
0
 10
45.82
 20
193.689
 30
0.0
 40
0.333333
 41
0.333333
  0
VERTEX
  8
0
 10
45.705
 20
193.681
 30
0.0
 40
0.333333
 41
0.333333
  0
VERTEX
  8
0
 10
45.6667
 20
193.681
 30
0.0
 40
0.333333
 41
0.333333
  0
VERTEX
  8
0
 10
45.6283
 20
193.681
 30
0.0
 40
0.333333
 41
0.333333
  0
VERTEX
  8
0
 10
45.5133
 20
193.689
 30
0.0
 40
0.333333
 41
0.333333
  0
VERTEX
  8
0
 10
45.3644
 20
193.711
 30
0.0
 40
0.333333
 41
0.333333
  0
VERTEX
  8
0
 10
45.2207
 20
193.749
 30
0.0
 40
0.333333
 41
0.333333
  0
VERTEX
  8
0
 10
45.0828
 20
193.799
 30
0.0
 40
0.333333
 41
0.333333
  0
VERTEX
  8
0
 10
44.9517
 20
193.861
 30
0.0
 40
0.333333
 41
0.333333
  0
VERTEX
  8
0
 10
44.8281
 20
193.936
 30
0.0
 40
0.333333
 41
0.333333
  0
VERTEX
  8
0
 10
44.7125
 20
194.024
 30
0.0
 40
0.333333
 41
0.333333
  0
VERTEX
  8
0
 10
44.6061
 20
194.119
 30
0.0
 40
0.333333
 41
0.333333
  0
VERTEX
  8
0
 10
44.5092
 20
194.226
 30
0.0
 40
0.333333
 41
0.333333
  0
VERTEX
  8
0
 10
44.4229
 20
194.342
 30
0.0
 40
0.333333
 41
0.333333
  0
VERTEX
  8
0
 10
44.3478
 20
194.465
 30
0.0
 40
0.333333
 41
0.333333
  0
VERTEX
  8
0
 10
44.2846
 20
194.597
 30
0.0
 40
0.333333
 41
0.333333
  0
VERTEX
  8
0
 10
44.2342
 20
194.735
 30
0.0
 40
0.333333
 41
0.333333
  0
VERTEX
  8
0
 10
44.1972
 20
194.878
 30
0.0
 40
0.333333
 41
0.333333
  0
VERTEX
  8
0
 10
44.1744
 20
195.028
 30
0.0
 40
0.333333
 41
0.333333
  0
VERTEX
  8
0
 10
44.1667
 20
195.142
 30
0.0
 40
0.333333
 41
0.333333
  0
VERTEX
  8
0
 10
44.1667
 20
195.181
 30
0.0
 40
0.333333
 41
0.333333
  0
VERTEX
  8
0
 10
44.1667
 20
195.219
 30
0.0
 40
0.333333
 41
0.333333
  0
VERTEX
  8
0
 10
44.1744
 20
195.333
 30
0.0
 40
0.333333
 41
0.333333
  0
VERTEX
  8
0
 10
44.1972
 20
195.483
 30
0.0
 40
0.333333
 41
0.333333
  0
VERTEX
  8
0
 10
44.2342
 20
195.626
 30
0.0
 40
0.333333
 41
0.333333
  0
VERTEX
  8
0
 10
44.2846
 20
195.764
 30
0.0
 40
0.333333
 41
0.333333
  0
VERTEX
  8
0
 10
44.3478
 20
195.896
 30
0.0
 40
0.333333
 41
0.333333
  0
VERTEX
  8
0
 10
44.4229
 20
196.019
 30
0.0
 40
0.333333
 41
0.333333
  0
VERTEX
  8
0
 10
44.5092
 20
196.135
 30
0.0
 40
0.333333
 41
0.333333
  0
VERTEX
  8
0
 10
44.6061
 20
196.242
 30
0.0
 40
0.333333
 41
0.333333
  0
VERTEX
  8
0
 10
44.7125
 20
196.337
 30
0.0
 40
0.333333
 41
0.333333
  0
VERTEX
  8
0
 10
44.8281
 20
196.425
 30
0.0
 40
0.333333
 41
0.333333
  0
VERTEX
  8
0
 10
44.9517
 20
196.5
 30
0.0
 40
0.333333
 41
0.333333
  0
VERTEX
  8
0
 10
45.0828
 20
196.563
 30
0.0
 40
0.333333
 41
0.333333
  0
VERTEX
  8
0
 10
45.2207
 20
196.612
 30
0.0
 40
0.333333
 41
0.333333
  0
VERTEX
  8
0
 10
45.3644
 20
196.65
 30
0.0
 40
0.333333
 41
0.333333
  0
VERTEX
  8
0
 10
45.5133
 20
196.672
 30
0.0
 40
0.333333
 41
0.333333
  0
VERTEX
  8
0
 10
45.6283
 20
196.681
 30
0.0
 40
0.333333
 41
0.333333
  0
VERTEX
  8
0
 10
45.6667
 20
196.681
 30
0.0
 40
0.333333
 41
0.333333
  0
SEQEND
 8
0
  0
POLYLINE
  8
0
 62
     0
 66
     1
 10
0
 20
0
 30
0.0
 70
     1
 40
0
 41
0
  0
VERTEX
  8
0
 10
29.6667
 20
196.681
 30
0.0
 40
0
 41
0
  0
VERTEX
  8
0
 10
29.705
 20
196.681
 30
0.0
 40
0
 41
0
  0
VERTEX
  8
0
 10
29.82
 20
196.672
 30
0.0
 40
0
 41
0
  0
VERTEX
  8
0
 10
29.969
 20
196.65
 30
0.0
 40
0
 41
0
  0
VERTEX
  8
0
 10
30.1128
 20
196.612
 30
0.0
 40
0
 41
0
  0
VERTEX
  8
0
 10
30.2506
 20
196.563
 30
0.0
 40
0
 41
0
  0
VERTEX
  8
0
 10
30.3817
 20
196.5
 30
0.0
 40
0
 41
0
  0
VERTEX
  8
0
 10
30.5054
 20
196.425
 30
0.0
 40
0
 41
0
  0
VERTEX
  8
0
 10
30.6208
 20
196.337
 30
0.0
 40
0
 41
0
  0
VERTEX
  8
0
 10
30.7274
 20
196.242
 30
0.0
 40
0
 41
0
  0
VERTEX
  8
0
 10
30.8242
 20
196.135
 30
0.0
 40
0
 41
0
  0
VERTEX
  8
0
 10
30.9106
 20
196.019
 30
0.0
 40
0
 41
0
  0
VERTEX
  8
0
 10
30.9856
 20
195.896
 30
0.0
 40
0
 41
0
  0
VERTEX
  8
0
 10
31.0489
 20
195.764
 30
0.0
 40
0
 41
0
  0
VERTEX
  8
0
 10
31.0992
 20
195.626
 30
0.0
 40
0
 41
0
  0
VERTEX
  8
0
 10
31.1363
 20
195.483
 30
0.0
 40
0
 41
0
  0
VERTEX
  8
0
 10
31.159
 20
195.333
 30
0.0
 40
0
 41
0
  0
VERTEX
  8
0
 10
31.1667
 20
195.219
 30
0.0
 40
0
 41
0
  0
VERTEX
  8
0
 10
31.1667
 20
195.181
 30
0.0
 40
0
 41
0
  0
VERTEX
  8
0
 10
31.1667
 20
195.142
 30
0.0
 40
0
 41
0
  0
VERTEX
  8
0
 10
31.159
 20
195.028
 30
0.0
 40
0
 41
0
  0
VERTEX
  8
0
 10
31.1363
 20
194.878
 30
0.0
 40
0
 41
0
  0
VERTEX
  8
0
 10
31.0992
 20
194.735
 30
0.0
 40
0
 41
0
  0
VERTEX
  8
0
 10
31.0489
 20
194.597
 30
0.0
 40
0
 41
0
  0
VERTEX
  8
0
 10
30.9856
 20
194.465
 30
0.0
 40
0
 41
0
  0
VERTEX
  8
0
 10
30.9106
 20
194.342
 30
0.0
 40
0
 41
0
  0
VERTEX
  8
0
 10
30.8242
 20
194.226
 30
0.0
 40
0
 41
0
  0
VERTEX
  8
0
 10
30.7274
 20
194.119
 30
0.0
 40
0
 41
0
  0
VERTEX
  8
0
 10
30.6208
 20
194.024
 30
0.0
 40
0
 41
0
  0
VERTEX
  8
0
 10
30.5054
 20
193.936
 30
0.0
 40
0
 41
0
  0
VERTEX
  8
0
 10
30.3817
 20
193.861
 30
0.0
 40
0
 41
0
  0
VERTEX
  8
0
 10
30.2506
 20
193.799
 30
0.0
 40
0
 41
0
  0
VERTEX
  8
0
 10
30.1128
 20
193.749
 30
0.0
 40
0
 41
0
  0
VERTEX
  8
0
 10
29.969
 20
193.711
 30
0.0
 40
0
 41
0
  0
VERTEX
  8
0
 10
29.82
 20
193.689
 30
0.0
 40
0
 41
0
  0
VERTEX
  8
0
 10
29.705
 20
193.681
 30
0.0
 40
0
 41
0
  0
VERTEX
  8
0
 10
29.6667
 20
193.681
 30
0.0
 40
0
 41
0
  0
VERTEX
  8
0
 10
29.6283
 20
193.681
 30
0.0
 40
0
 41
0
  0
VERTEX
  8
0
 10
29.5133
 20
193.689
 30
0.0
 40
0
 41
0
  0
VERTEX
  8
0
 10
29.3643
 20
193.711
 30
0.0
 40
0
 41
0
  0
VERTEX
  8
0
 10
29.2207
 20
193.749
 30
0.0
 40
0
 41
0
  0
VERTEX
  8
0
 10
29.0828
 20
193.799
 30
0.0
 40
0
 41
0
  0
VERTEX
  8
0
 10
28.9517
 20
193.861
 30
0.0
 40
0
 41
0
  0
VERTEX
  8
0
 10
28.8281
 20
193.936
 30
0.0
 40
0
 41
0
  0
VERTEX
  8
0
 10
28.7125
 20
194.024
 30
0.0
 40
0
 41
0
  0
VERTEX
  8
0
 10
28.606
 20
194.119
 30
0.0
 40
0
 41
0
  0
VERTEX
  8
0
 10
28.5092
 20
194.226
 30
0.0
 40
0
 41
0
  0
VERTEX
  8
0
 10
28.4229
 20
194.342
 30
0.0
 40
0
 41
0
  0
VERTEX
  8
0
 10
28.3478
 20
194.465
 30
0.0
 40
0
 41
0
  0
VERTEX
  8
0
 10
28.2846
 20
194.597
 30
0.0
 40
0
 41
0
  0
VERTEX
  8
0
 10
28.2342
 20
194.735
 30
0.0
 40
0
 41
0
  0
VERTEX
  8
0
 10
28.1972
 20
194.878
 30
0.0
 40
0
 41
0
  0
VERTEX
  8
0
 10
28.1744
 20
195.028
 30
0.0
 40
0
 41
0
  0
VERTEX
  8
0
 10
28.1667
 20
195.142
 30
0.0
 40
0
 41
0
  0
VERTEX
  8
0
 10
28.1667
 20
195.181
 30
0.0
 40
0
 41
0
  0
VERTEX
  8
0
 10
28.1667
 20
195.219
 30
0.0
 40
0
 41
0
  0
VERTEX
  8
0
 10
28.1744
 20
195.333
 30
0.0
 40
0
 41
0
  0
VERTEX
  8
0
 10
28.1972
 20
195.483
 30
0.0
 40
0
 41
0
  0
VERTEX
  8
0
 10
28.2342
 20
195.626
 30
0.0
 40
0
 41
0
  0
VERTEX
  8
0
 10
28.2846
 20
195.764
 30
0.0
 40
0
 41
0
  0
VERTEX
  8
0
 10
28.3478
 20
195.896
 30
0.0
 40
0
 41
0
  0
VERTEX
  8
0
 10
28.4229
 20
196.019
 30
0.0
 40
0
 41
0
  0
VERTEX
  8
0
 10
28.5092
 20
196.135
 30
0.0
 40
0
 41
0
  0
VERTEX
  8
0
 10
28.606
 20
196.242
 30
0.0
 40
0
 41
0
  0
VERTEX
  8
0
 10
28.7125
 20
196.337
 30
0.0
 40
0
 41
0
  0
VERTEX
  8
0
 10
28.8281
 20
196.425
 30
0.0
 40
0
 41
0
  0
VERTEX
  8
0
 10
28.9517
 20
196.5
 30
0.0
 40
0
 41
0
  0
VERTEX
  8
0
 10
29.0828
 20
196.563
 30
0.0
 40
0
 41
0
  0
VERTEX
  8
0
 10
29.2207
 20
196.612
 30
0.0
 40
0
 41
0
  0
VERTEX
  8
0
 10
29.3643
 20
196.65
 30
0.0
 40
0
 41
0
  0
VERTEX
  8
0
 10
29.5133
 20
196.672
 30
0.0
 40
0
 41
0
  0
VERTEX
  8
0
 10
29.6283
 20
196.681
 30
0.0
 40
0
 41
0
  0
VERTEX
  8
0
 10
29.6667
 20
196.681
 30
0.0
 40
0
 41
0
  0
SEQEND
 8
0
  0
POLYLINE
  8
0
 62
     0
 66
     1
 10
0
 20
0
 30
0.0
 70
     1
 40
24
 41
24
  0
VERTEX
  8
0
 10
29.6667
 20
196.681
 30
0.0
 40
0.333333
 41
0.333333
  0
VERTEX
  8
0
 10
29.705
 20
196.681
 30
0.0
 40
0.333333
 41
0.333333
  0
VERTEX
  8
0
 10
29.82
 20
196.672
 30
0.0
 40
0.333333
 41
0.333333
  0
VERTEX
  8
0
 10
29.969
 20
196.65
 30
0.0
 40
0.333333
 41
0.333333
  0
VERTEX
  8
0
 10
30.1128
 20
196.612
 30
0.0
 40
0.333333
 41
0.333333
  0
VERTEX
  8
0
 10
30.2506
 20
196.563
 30
0.0
 40
0.333333
 41
0.333333
  0
VERTEX
  8
0
 10
30.3817
 20
196.5
 30
0.0
 40
0.333333
 41
0.333333
  0
VERTEX
  8
0
 10
30.5054
 20
196.425
 30
0.0
 40
0.333333
 41
0.333333
  0
VERTEX
  8
0
 10
30.6208
 20
196.337
 30
0.0
 40
0.333333
 41
0.333333
  0
VERTEX
  8
0
 10
30.7274
 20
196.242
 30
0.0
 40
0.333333
 41
0.333333
  0
VERTEX
  8
0
 10
30.8242
 20
196.135
 30
0.0
 40
0.333333
 41
0.333333
  0
VERTEX
  8
0
 10
30.9106
 20
196.019
 30
0.0
 40
0.333333
 41
0.333333
  0
VERTEX
  8
0
 10
30.9856
 20
195.896
 30
0.0
 40
0.333333
 41
0.333333
  0
VERTEX
  8
0
 10
31.0489
 20
195.764
 30
0.0
 40
0.333333
 41
0.333333
  0
VERTEX
  8
0
 10
31.0992
 20
195.626
 30
0.0
 40
0.333333
 41
0.333333
  0
VERTEX
  8
0
 10
31.1363
 20
195.483
 30
0.0
 40
0.333333
 41
0.333333
  0
VERTEX
  8
0
 10
31.159
 20
195.333
 30
0.0
 40
0.333333
 41
0.333333
  0
VERTEX
  8
0
 10
31.1667
 20
195.219
 30
0.0
 40
0.333333
 41
0.333333
  0
VERTEX
  8
0
 10
31.1667
 20
195.181
 30
0.0
 40
0.333333
 41
0.333333
  0
VERTEX
  8
0
 10
31.1667
 20
195.142
 30
0.0
 40
0.333333
 41
0.333333
  0
VERTEX
  8
0
 10
31.159
 20
195.028
 30
0.0
 40
0.333333
 41
0.333333
  0
VERTEX
  8
0
 10
31.1363
 20
194.878
 30
0.0
 40
0.333333
 41
0.333333
  0
VERTEX
  8
0
 10
31.0992
 20
194.735
 30
0.0
 40
0.333333
 41
0.333333
  0
VERTEX
  8
0
 10
31.0489
 20
194.597
 30
0.0
 40
0.333333
 41
0.333333
  0
VERTEX
  8
0
 10
30.9856
 20
194.465
 30
0.0
 40
0.333333
 41
0.333333
  0
VERTEX
  8
0
 10
30.9106
 20
194.342
 30
0.0
 40
0.333333
 41
0.333333
  0
VERTEX
  8
0
 10
30.8242
 20
194.226
 30
0.0
 40
0.333333
 41
0.333333
  0
VERTEX
  8
0
 10
30.7274
 20
194.119
 30
0.0
 40
0.333333
 41
0.333333
  0
VERTEX
  8
0
 10
30.6208
 20
194.024
 30
0.0
 40
0.333333
 41
0.333333
  0
VERTEX
  8
0
 10
30.5054
 20
193.936
 30
0.0
 40
0.333333
 41
0.333333
  0
VERTEX
  8
0
 10
30.3817
 20
193.861
 30
0.0
 40
0.333333
 41
0.333333
  0
VERTEX
  8
0
 10
30.2506
 20
193.799
 30
0.0
 40
0.333333
 41
0.333333
  0
VERTEX
  8
0
 10
30.1128
 20
193.749
 30
0.0
 40
0.333333
 41
0.333333
  0
VERTEX
  8
0
 10
29.969
 20
193.711
 30
0.0
 40
0.333333
 41
0.333333
  0
VERTEX
  8
0
 10
29.82
 20
193.689
 30
0.0
 40
0.333333
 41
0.333333
  0
VERTEX
  8
0
 10
29.705
 20
193.681
 30
0.0
 40
0.333333
 41
0.333333
  0
VERTEX
  8
0
 10
29.6667
 20
193.681
 30
0.0
 40
0.333333
 41
0.333333
  0
VERTEX
  8
0
 10
29.6283
 20
193.681
 30
0.0
 40
0.333333
 41
0.333333
  0
VERTEX
  8
0
 10
29.5133
 20
193.689
 30
0.0
 40
0.333333
 41
0.333333
  0
VERTEX
  8
0
 10
29.3643
 20
193.711
 30
0.0
 40
0.333333
 41
0.333333
  0
VERTEX
  8
0
 10
29.2207
 20
193.749
 30
0.0
 40
0.333333
 41
0.333333
  0
VERTEX
  8
0
 10
29.0828
 20
193.799
 30
0.0
 40
0.333333
 41
0.333333
  0
VERTEX
  8
0
 10
28.9517
 20
193.861
 30
0.0
 40
0.333333
 41
0.333333
  0
VERTEX
  8
0
 10
28.8281
 20
193.936
 30
0.0
 40
0.333333
 41
0.333333
  0
VERTEX
  8
0
 10
28.7125
 20
194.024
 30
0.0
 40
0.333333
 41
0.333333
  0
VERTEX
  8
0
 10
28.606
 20
194.119
 30
0.0
 40
0.333333
 41
0.333333
  0
VERTEX
  8
0
 10
28.5092
 20
194.226
 30
0.0
 40
0.333333
 41
0.333333
  0
VERTEX
  8
0
 10
28.4229
 20
194.342
 30
0.0
 40
0.333333
 41
0.333333
  0
VERTEX
  8
0
 10
28.3478
 20
194.465
 30
0.0
 40
0.333333
 41
0.333333
  0
VERTEX
  8
0
 10
28.2846
 20
194.597
 30
0.0
 40
0.333333
 41
0.333333
  0
VERTEX
  8
0
 10
28.2342
 20
194.735
 30
0.0
 40
0.333333
 41
0.333333
  0
VERTEX
  8
0
 10
28.1972
 20
194.878
 30
0.0
 40
0.333333
 41
0.333333
  0
VERTEX
  8
0
 10
28.1744
 20
195.028
 30
0.0
 40
0.333333
 41
0.333333
  0
VERTEX
  8
0
 10
28.1667
 20
195.142
 30
0.0
 40
0.333333
 41
0.333333
  0
VERTEX
  8
0
 10
28.1667
 20
195.181
 30
0.0
 40
0.333333
 41
0.333333
  0
VERTEX
  8
0
 10
28.1667
 20
195.219
 30
0.0
 40
0.333333
 41
0.333333
  0
VERTEX
  8
0
 10
28.1744
 20
195.333
 30
0.0
 40
0.333333
 41
0.333333
  0
VERTEX
  8
0
 10
28.1972
 20
195.483
 30
0.0
 40
0.333333
 41
0.333333
  0
VERTEX
  8
0
 10
28.2342
 20
195.626
 30
0.0
 40
0.333333
 41
0.333333
  0
VERTEX
  8
0
 10
28.2846
 20
195.764
 30
0.0
 40
0.333333
 41
0.333333
  0
VERTEX
  8
0
 10
28.3478
 20
195.896
 30
0.0
 40
0.333333
 41
0.333333
  0
VERTEX
  8
0
 10
28.4229
 20
196.019
 30
0.0
 40
0.333333
 41
0.333333
  0
VERTEX
  8
0
 10
28.5092
 20
196.135
 30
0.0
 40
0.333333
 41
0.333333
  0
VERTEX
  8
0
 10
28.606
 20
196.242
 30
0.0
 40
0.333333
 41
0.333333
  0
VERTEX
  8
0
 10
28.7125
 20
196.337
 30
0.0
 40
0.333333
 41
0.333333
  0
VERTEX
  8
0
 10
28.8281
 20
196.425
 30
0.0
 40
0.333333
 41
0.333333
  0
VERTEX
  8
0
 10
28.9517
 20
196.5
 30
0.0
 40
0.333333
 41
0.333333
  0
VERTEX
  8
0
 10
29.0828
 20
196.563
 30
0.0
 40
0.333333
 41
0.333333
  0
VERTEX
  8
0
 10
29.2207
 20
196.612
 30
0.0
 40
0.333333
 41
0.333333
  0
VERTEX
  8
0
 10
29.3643
 20
196.65
 30
0.0
 40
0.333333
 41
0.333333
  0
VERTEX
  8
0
 10
29.5133
 20
196.672
 30
0.0
 40
0.333333
 41
0.333333
  0
VERTEX
  8
0
 10
29.6283
 20
196.681
 30
0.0
 40
0.333333
 41
0.333333
  0
VERTEX
  8
0
 10
29.6667
 20
196.681
 30
0.0
 40
0.333333
 41
0.333333
  0
SEQEND
 8
0
  0
POLYLINE
  8
0
 62
     0
 66
     1
 10
0
 20
0
 30
0.0
 70
     1
 40
0
 41
0
  0
VERTEX
  8
0
 10
69.9668
 20
155.181
 30
0.0
 40
0
 41
0
  0
VERTEX
  8
0
 10
70.115
 20
155.181
 30
0.0
 40
0
 41
0
  0
VERTEX
  8
0
 10
70.5597
 20
155.151
 30
0.0
 40
0
 41
0
  0
VERTEX
  8
0
 10
71.1428
 20
155.064
 30
0.0
 40
0
 41
0
  0
VERTEX
  8
0
 10
71.7118
 20
154.921
 30
0.0
 40
0
 41
0
  0
VERTEX
  8
0
 10
72.2629
 20
154.724
 30
0.0
 40
0
 41
0
  0
VERTEX
  8
0
 10
72.7921
 20
154.474
 30
0.0
 40
0
 41
0
  0
VERTEX
  8
0
 10
73.2956
 20
154.172
 30
0.0
 40
0
 41
0
  0
VERTEX
  8
0
 10
73.7693
 20
153.822
 30
0.0
 40
0
 41
0
  0
VERTEX
  8
0
 10
74.1046
 20
153.528
 30
0.0
 40
0
 41
0
  0
VERTEX
  8
0
 10
74.2094
 20
153.424
 30
0.0
 40
0
 41
0
  0
VERTEX
  8
0
 10
74.3143
 20
153.318
 30
0.0
 40
0
 41
0
  0
VERTEX
  8
0
 10
74.6079
 20
152.983
 30
0.0
 40
0
 41
0
  0
VERTEX
  8
0
 10
74.9586
 20
152.51
 30
0.0
 40
0
 41
0
  0
VERTEX
  8
0
 10
75.2599
 20
152.006
 30
0.0
 40
0
 41
0
  0
VERTEX
  8
0
 10
75.51
 20
151.476
 30
0.0
 40
0
 41
0
  0
VERTEX
  8
0
 10
75.7074
 20
150.925
 30
0.0
 40
0
 41
0
  0
VERTEX
  8
0
 10
75.8504
 20
150.357
 30
0.0
 40
0
 41
0
  0
VERTEX
  8
0
 10
75.9374
 20
149.774
 30
0.0
 40
0
 41
0
  0
VERTEX
  8
0
 10
75.9668
 20
149.329
 30
0.0
 40
0
 41
0
  0
VERTEX
  8
0
 10
75.9668
 20
149.181
 30
0.0
 40
0
 41
0
  0
VERTEX
  8
0
 10
75.9668
 20
149.032
 30
0.0
 40
0
 41
0
  0
VERTEX
  8
0
 10
75.9374
 20
148.587
 30
0.0
 40
0
 41
0
  0
VERTEX
  8
0
 10
75.8504
 20
148.004
 30
0.0
 40
0
 41
0
  0
VERTEX
  8
0
 10
75.7074
 20
147.436
 30
0.0
 40
0
 41
0
  0
VERTEX
  8
0
 10
75.51
 20
146.885
 30
0.0
 40
0
 41
0
  0
VERTEX
  8
0
 10
75.2599
 20
146.356
 30
0.0
 40
0
 41
0
  0
VERTEX
  8
0
 10
74.9586
 20
145.851
 30
0.0
 40
0
 41
0
  0
VERTEX
  8
0
 10
74.6079
 20
145.378
 30
0.0
 40
0
 41
0
  0
VERTEX
  8
0
 10
74.3143
 20
145.043
 30
0.0
 40
0
 41
0
  0
VERTEX
  8
0
 10
74.2094
 20
144.938
 30
0.0
 40
0
 41
0
  0
VERTEX
  8
0
 10
74.1046
 20
144.833
 30
0.0
 40
0
 41
0
  0
VERTEX
  8
0
 10
73.7693
 20
144.539
 30
0.0
 40
0
 41
0
  0
VERTEX
  8
0
 10
73.2956
 20
144.189
 30
0.0
 40
0
 41
0
  0
VERTEX
  8
0
 10
72.7921
 20
143.888
 30
0.0
 40
0
 41
0
  0
VERTEX
  8
0
 10
72.2629
 20
143.638
 30
0.0
 40
0
 41
0
  0
VERTEX
  8
0
 10
71.7118
 20
143.44
 30
0.0
 40
0
 41
0
  0
VERTEX
  8
0
 10
71.1428
 20
143.297
 30
0.0
 40
0
 41
0
  0
VERTEX
  8
0
 10
70.5597
 20
143.21
 30
0.0
 40
0
 41
0
  0
VERTEX
  8
0
 10
70.115
 20
143.181
 30
0.0
 40
0
 41
0
  0
VERTEX
  8
0
 10
69.9668
 20
143.181
 30
0.0
 40
0
 41
0
  0
VERTEX
  8
0
 10
69.8185
 20
143.181
 30
0.0
 40
0
 41
0
  0
VERTEX
  8
0
 10
69.3738
 20
143.21
 30
0.0
 40
0
 41
0
  0
VERTEX
  8
0
 10
68.7907
 20
143.297
 30
0.0
 40
0
 41
0
  0
VERTEX
  8
0
 10
68.2217
 20
143.44
 30
0.0
 40
0
 41
0
  0
VERTEX
  8
0
 10
67.6707
 20
143.638
 30
0.0
 40
0
 41
0
  0
VERTEX
  8
0
 10
67.1414
 20
143.888
 30
0.0
 40
0
 41
0
  0
VERTEX
  8
0
 10
66.6379
 20
144.189
 30
0.0
 40
0
 41
0
  0
VERTEX
  8
0
 10
66.1642
 20
144.539
 30
0.0
 40
0
 41
0
  0
VERTEX
  8
0
 10
65.8289
 20
144.833
 30
0.0
 40
0
 41
0
  0
VERTEX
  8
0
 10
65.7242
 20
144.938
 30
0.0
 40
0
 41
0
  0
VERTEX
  8
0
 10
65.6193
 20
145.043
 30
0.0
 40
0
 41
0
  0
VERTEX
  8
0
 10
65.3256
 20
145.378
 30
0.0
 40
0
 41
0
  0
VERTEX
  8
0
 10
64.9749
 20
145.851
 30
0.0
 40
0
 41
0
  0
VERTEX
  8
0
 10
64.6736
 20
146.356
 30
0.0
 40
0
 41
0
  0
VERTEX
  8
0
 10
64.4235
 20
146.885
 30
0.0
 40
0
 41
0
  0
VERTEX
  8
0
 10
64.2261
 20
147.436
 30
0.0
 40
0
 41
0
  0
VERTEX
  8
0
 10
64.0831
 20
148.004
 30
0.0
 40
0
 41
0
  0
VERTEX
  8
0
 10
63.9961
 20
148.587
 30
0.0
 40
0
 41
0
  0
VERTEX
  8
0
 10
63.9668
 20
149.032
 30
0.0
 40
0
 41
0
  0
VERTEX
  8
0
 10
63.9668
 20
149.181
 30
0.0
 40
0
 41
0
  0
VERTEX
  8
0
 10
63.9668
 20
149.329
 30
0.0
 40
0
 41
0
  0
VERTEX
  8
0
 10
63.9961
 20
149.774
 30
0.0
 40
0
 41
0
  0
VERTEX
  8
0
 10
64.0831
 20
150.357
 30
0.0
 40
0
 41
0
  0
VERTEX
  8
0
 10
64.2261
 20
150.925
 30
0.0
 40
0
 41
0
  0
VERTEX
  8
0
 10
64.4235
 20
151.476
 30
0.0
 40
0
 41
0
  0
VERTEX
  8
0
 10
64.6736
 20
152.006
 30
0.0
 40
0
 41
0
  0
VERTEX
  8
0
 10
64.9749
 20
152.51
 30
0.0
 40
0
 41
0
  0
VERTEX
  8
0
 10
65.3256
 20
152.983
 30
0.0
 40
0
 41
0
  0
VERTEX
  8
0
 10
65.6193
 20
153.318
 30
0.0
 40
0
 41
0
  0
VERTEX
  8
0
 10
65.7242
 20
153.424
 30
0.0
 40
0
 41
0
  0
VERTEX
  8
0
 10
65.8289
 20
153.528
 30
0.0
 40
0
 41
0
  0
VERTEX
  8
0
 10
66.1642
 20
153.822
 30
0.0
 40
0
 41
0
  0
VERTEX
  8
0
 10
66.6379
 20
154.172
 30
0.0
 40
0
 41
0
  0
VERTEX
  8
0
 10
67.1414
 20
154.474
 30
0.0
 40
0
 41
0
  0
VERTEX
  8
0
 10
67.6707
 20
154.724
 30
0.0
 40
0
 41
0
  0
VERTEX
  8
0
 10
68.2217
 20
154.921
 30
0.0
 40
0
 41
0
  0
VERTEX
  8
0
 10
68.7907
 20
155.064
 30
0.0
 40
0
 41
0
  0
VERTEX
  8
0
 10
69.3738
 20
155.151
 30
0.0
 40
0
 41
0
  0
VERTEX
  8
0
 10
69.8185
 20
155.181
 30
0.0
 40
0
 41
0
  0
VERTEX
  8
0
 10
69.9668
 20
155.181
 30
0.0
 40
0
 41
0
  0
SEQEND
 8
0
  0
POLYLINE
  8
0
 62
     0
 66
     1
 10
0
 20
0
 30
0.0
 70
     1
 40
24
 41
24
  0
VERTEX
  8
0
 10
69.9668
 20
155.181
 30
0.0
 40
0.333333
 41
0.333333
  0
VERTEX
  8
0
 10
70.115
 20
155.181
 30
0.0
 40
0.333333
 41
0.333333
  0
VERTEX
  8
0
 10
70.5597
 20
155.151
 30
0.0
 40
0.333333
 41
0.333333
  0
VERTEX
  8
0
 10
71.1428
 20
155.064
 30
0.0
 40
0.333333
 41
0.333333
  0
VERTEX
  8
0
 10
71.7118
 20
154.921
 30
0.0
 40
0.333333
 41
0.333333
  0
VERTEX
  8
0
 10
72.2629
 20
154.724
 30
0.0
 40
0.333333
 41
0.333333
  0
VERTEX
  8
0
 10
72.7921
 20
154.474
 30
0.0
 40
0.333333
 41
0.333333
  0
VERTEX
  8
0
 10
73.2956
 20
154.172
 30
0.0
 40
0.333333
 41
0.333333
  0
VERTEX
  8
0
 10
73.7693
 20
153.822
 30
0.0
 40
0.333333
 41
0.333333
  0
VERTEX
  8
0
 10
74.1046
 20
153.528
 30
0.0
 40
0.333333
 41
0.333333
  0
VERTEX
  8
0
 10
74.2094
 20
153.424
 30
0.0
 40
0.333333
 41
0.333333
  0
VERTEX
  8
0
 10
74.3143
 20
153.318
 30
0.0
 40
0.333333
 41
0.333333
  0
VERTEX
  8
0
 10
74.6079
 20
152.983
 30
0.0
 40
0.333333
 41
0.333333
  0
VERTEX
  8
0
 10
74.9586
 20
152.51
 30
0.0
 40
0.333333
 41
0.333333
  0
VERTEX
  8
0
 10
75.2599
 20
152.006
 30
0.0
 40
0.333333
 41
0.333333
  0
VERTEX
  8
0
 10
75.51
 20
151.476
 30
0.0
 40
0.333333
 41
0.333333
  0
VERTEX
  8
0
 10
75.7074
 20
150.925
 30
0.0
 40
0.333333
 41
0.333333
  0
VERTEX
  8
0
 10
75.8504
 20
150.357
 30
0.0
 40
0.333333
 41
0.333333
  0
VERTEX
  8
0
 10
75.9374
 20
149.774
 30
0.0
 40
0.333333
 41
0.333333
  0
VERTEX
  8
0
 10
75.9668
 20
149.329
 30
0.0
 40
0.333333
 41
0.333333
  0
VERTEX
  8
0
 10
75.9668
 20
149.181
 30
0.0
 40
0.333333
 41
0.333333
  0
VERTEX
  8
0
 10
75.9668
 20
149.032
 30
0.0
 40
0.333333
 41
0.333333
  0
VERTEX
  8
0
 10
75.9374
 20
148.587
 30
0.0
 40
0.333333
 41
0.333333
  0
VERTEX
  8
0
 10
75.8504
 20
148.004
 30
0.0
 40
0.333333
 41
0.333333
  0
VERTEX
  8
0
 10
75.7074
 20
147.436
 30
0.0
 40
0.333333
 41
0.333333
  0
VERTEX
  8
0
 10
75.51
 20
146.885
 30
0.0
 40
0.333333
 41
0.333333
  0
VERTEX
  8
0
 10
75.2599
 20
146.356
 30
0.0
 40
0.333333
 41
0.333333
  0
VERTEX
  8
0
 10
74.9586
 20
145.851
 30
0.0
 40
0.333333
 41
0.333333
  0
VERTEX
  8
0
 10
74.6079
 20
145.378
 30
0.0
 40
0.333333
 41
0.333333
  0
VERTEX
  8
0
 10
74.3143
 20
145.043
 30
0.0
 40
0.333333
 41
0.333333
  0
VERTEX
  8
0
 10
74.2094
 20
144.938
 30
0.0
 40
0.333333
 41
0.333333
  0
VERTEX
  8
0
 10
74.1046
 20
144.833
 30
0.0
 40
0.333333
 41
0.333333
  0
VERTEX
  8
0
 10
73.7693
 20
144.539
 30
0.0
 40
0.333333
 41
0.333333
  0
VERTEX
  8
0
 10
73.2956
 20
144.189
 30
0.0
 40
0.333333
 41
0.333333
  0
VERTEX
  8
0
 10
72.7921
 20
143.888
 30
0.0
 40
0.333333
 41
0.333333
  0
VERTEX
  8
0
 10
72.2629
 20
143.638
 30
0.0
 40
0.333333
 41
0.333333
  0
VERTEX
  8
0
 10
71.7118
 20
143.44
 30
0.0
 40
0.333333
 41
0.333333
  0
VERTEX
  8
0
 10
71.1428
 20
143.297
 30
0.0
 40
0.333333
 41
0.333333
  0
VERTEX
  8
0
 10
70.5597
 20
143.21
 30
0.0
 40
0.333333
 41
0.333333
  0
VERTEX
  8
0
 10
70.115
 20
143.181
 30
0.0
 40
0.333333
 41
0.333333
  0
VERTEX
  8
0
 10
69.9668
 20
143.181
 30
0.0
 40
0.333333
 41
0.333333
  0
VERTEX
  8
0
 10
69.8185
 20
143.181
 30
0.0
 40
0.333333
 41
0.333333
  0
VERTEX
  8
0
 10
69.3738
 20
143.21
 30
0.0
 40
0.333333
 41
0.333333
  0
VERTEX
  8
0
 10
68.7907
 20
143.297
 30
0.0
 40
0.333333
 41
0.333333
  0
VERTEX
  8
0
 10
68.2217
 20
143.44
 30
0.0
 40
0.333333
 41
0.333333
  0
VERTEX
  8
0
 10
67.6707
 20
143.638
 30
0.0
 40
0.333333
 41
0.333333
  0
VERTEX
  8
0
 10
67.1414
 20
143.888
 30
0.0
 40
0.333333
 41
0.333333
  0
VERTEX
  8
0
 10
66.6379
 20
144.189
 30
0.0
 40
0.333333
 41
0.333333
  0
VERTEX
  8
0
 10
66.1642
 20
144.539
 30
0.0
 40
0.333333
 41
0.333333
  0
VERTEX
  8
0
 10
65.8289
 20
144.833
 30
0.0
 40
0.333333
 41
0.333333
  0
VERTEX
  8
0
 10
65.7242
 20
144.938
 30
0.0
 40
0.333333
 41
0.333333
  0
VERTEX
  8
0
 10
65.6193
 20
145.043
 30
0.0
 40
0.333333
 41
0.333333
  0
VERTEX
  8
0
 10
65.3256
 20
145.378
 30
0.0
 40
0.333333
 41
0.333333
  0
VERTEX
  8
0
 10
64.9749
 20
145.851
 30
0.0
 40
0.333333
 41
0.333333
  0
VERTEX
  8
0
 10
64.6736
 20
146.356
 30
0.0
 40
0.333333
 41
0.333333
  0
VERTEX
  8
0
 10
64.4235
 20
146.885
 30
0.0
 40
0.333333
 41
0.333333
  0
VERTEX
  8
0
 10
64.2261
 20
147.436
 30
0.0
 40
0.333333
 41
0.333333
  0
VERTEX
  8
0
 10
64.0831
 20
148.004
 30
0.0
 40
0.333333
 41
0.333333
  0
VERTEX
  8
0
 10
63.9961
 20
148.587
 30
0.0
 40
0.333333
 41
0.333333
  0
VERTEX
  8
0
 10
63.9668
 20
149.032
 30
0.0
 40
0.333333
 41
0.333333
  0
VERTEX
  8
0
 10
63.9668
 20
149.181
 30
0.0
 40
0.333333
 41
0.333333
  0
VERTEX
  8
0
 10
63.9668
 20
149.329
 30
0.0
 40
0.333333
 41
0.333333
  0
VERTEX
  8
0
 10
63.9961
 20
149.774
 30
0.0
 40
0.333333
 41
0.333333
  0
VERTEX
  8
0
 10
64.0831
 20
150.357
 30
0.0
 40
0.333333
 41
0.333333
  0
VERTEX
  8
0
 10
64.2261
 20
150.925
 30
0.0
 40
0.333333
 41
0.333333
  0
VERTEX
  8
0
 10
64.4235
 20
151.476
 30
0.0
 40
0.333333
 41
0.333333
  0
VERTEX
  8
0
 10
64.6736
 20
152.006
 30
0.0
 40
0.333333
 41
0.333333
  0
VERTEX
  8
0
 10
64.9749
 20
152.51
 30
0.0
 40
0.333333
 41
0.333333
  0
VERTEX
  8
0
 10
65.3256
 20
152.983
 30
0.0
 40
0.333333
 41
0.333333
  0
VERTEX
  8
0
 10
65.6193
 20
153.318
 30
0.0
 40
0.333333
 41
0.333333
  0
VERTEX
  8
0
 10
65.7242
 20
153.424
 30
0.0
 40
0.333333
 41
0.333333
  0
VERTEX
  8
0
 10
65.8289
 20
153.528
 30
0.0
 40
0.333333
 41
0.333333
  0
VERTEX
  8
0
 10
66.1642
 20
153.822
 30
0.0
 40
0.333333
 41
0.333333
  0
VERTEX
  8
0
 10
66.6379
 20
154.172
 30
0.0
 40
0.333333
 41
0.333333
  0
VERTEX
  8
0
 10
67.1414
 20
154.474
 30
0.0
 40
0.333333
 41
0.333333
  0
VERTEX
  8
0
 10
67.6707
 20
154.724
 30
0.0
 40
0.333333
 41
0.333333
  0
VERTEX
  8
0
 10
68.2217
 20
154.921
 30
0.0
 40
0.333333
 41
0.333333
  0
VERTEX
  8
0
 10
68.7907
 20
155.064
 30
0.0
 40
0.333333
 41
0.333333
  0
VERTEX
  8
0
 10
69.3738
 20
155.151
 30
0.0
 40
0.333333
 41
0.333333
  0
VERTEX
  8
0
 10
69.8185
 20
155.181
 30
0.0
 40
0.333333
 41
0.333333
  0
VERTEX
  8
0
 10
69.9668
 20
155.181
 30
0.0
 40
0.333333
 41
0.333333
  0
SEQEND
 8
0
  0
POLYLINE
  8
0
 62
     0
 66
     1
 10
0
 20
0
 30
0.0
 70
     1
 40
0
 41
0
  0
VERTEX
  8
0
 10
5.16667
 20
132.68
 30
0.0
 40
0
 41
0
  0
VERTEX
  8
0
 10
36.1667
 20
132.68
 30
0.0
 40
0
 41
0
  0
VERTEX
  8
0
 10
36.1667
 20
67.6803
 30
0.0
 40
0
 41
0
  0
VERTEX
  8
0
 10
5.16667
 20
67.6803
 30
0.0
 40
0
 41
0
  0
VERTEX
  8
0
 10
5.16667
 20
132.68
 30
0.0
 40
0
 41
0
  0
SEQEND
 8
0
  0
POLYLINE
  8
0
 62
     0
 66
     1
 10
0
 20
0
 30
0.0
 70
     1
 40
0
 41
0
  0
VERTEX
  8
0
 10
19.6667
 20
76.1803
 30
0.0
 40
0
 41
0
  0
VERTEX
  8
0
 10
23.6667
 20
76.1803
 30
0.0
 40
0
 41
0
  0
VERTEX
  8
0
 10
23.6667
 20
68.1803
 30
0.0
 40
0
 41
0
  0
VERTEX
  8
0
 10
35.6667
 20
68.1803
 30
0.0
 40
0
 41
0
  0
VERTEX
  8
0
 10
35.6667
 20
98.1804
 30
0.0
 40
0
 41
0
  0
VERTEX
  8
0
 10
23.6667
 20
98.1804
 30
0.0
 40
0
 41
0
  0
VERTEX
  8
0
 10
23.6667
 20
90.1804
 30
0.0
 40
0
 41
0
  0
VERTEX
  8
0
 10
19.6667
 20
90.1804
 30
0.0
 40
0
 41
0
  0
VERTEX
  8
0
 10
19.6667
 20
76.1803
 30
0.0
 40
0
 41
0
  0
SEQEND
 8
0
  0
ENDSEC
  0
EOF
